<svg xmlns="http://www.w3.org/2000/svg" xmlns:xlink="http://www.w3.org/1999/xlink" contentStyleType="text/css" data-diagram-type="CLASS" height="1345px" preserveAspectRatio="none" style="width:1518px;height:1345px;background:#FFFFFF;" version="1.1" viewBox="0 0 1518 1345" width="1518px" zoomAndPan="magnify"><defs/><g><!--class Main--><g id="elem_Main"><rect codeLine="136" fill="#F1F1F1" height="96.8906" id="Main" rx="2.5" ry="2.5" style="stroke:#181818;stroke-width:0.5;" width="247.1768" x="964.5" y="7"/><ellipse cx="1067.1279" cy="23" fill="#ADD1B2" rx="11" ry="11" style="stroke:#181818;stroke-width:1;"/><path d="M1070.0967,28.6406 Q1069.5186,28.9375 1068.8779,29.0781 Q1068.2373,29.2344 1067.5342,29.2344 Q1065.0342,29.2344 1063.7061,27.5938 Q1062.3936,25.9375 1062.3936,22.8125 Q1062.3936,19.6875 1063.7061,18.0313 Q1065.0342,16.375 1067.5342,16.375 Q1068.2373,16.375 1068.8779,16.5313 Q1069.5342,16.6875 1070.0967,16.9844 L1070.0967,19.7031 Q1069.4717,19.125 1068.8779,18.8594 Q1068.2842,18.5781 1067.6592,18.5781 Q1066.3154,18.5781 1065.6279,19.6563 Q1064.9404,20.7188 1064.9404,22.8125 Q1064.9404,24.9063 1065.6279,25.9844 Q1066.3154,27.0469 1067.6592,27.0469 Q1068.2842,27.0469 1068.8779,26.7813 Q1069.4717,26.5 1070.0967,25.9219 L1070.0967,28.6406 Z " fill="#000000"/><text fill="#000000" font-family="sans-serif" font-size="14" lengthAdjust="spacing" textLength="33.4209" x="1087.6279" y="27.8467">Main</text><line style="stroke:#181818;stroke-width:0.5;" x1="965.5" x2="1210.6768" y1="39" y2="39"/><rect fill="transparent" height="6" style="stroke:#C82930;stroke-width:1;" width="6" x="972.5" y="49.6484"/><text fill="#000000" font-family="sans-serif" font-size="14" lengthAdjust="spacing" textLength="221.1768" x="984.5" y="55.9951">LibraryManager libraryManager</text><line style="stroke:#181818;stroke-width:0.5;" x1="965.5" x2="1210.6768" y1="63.2969" y2="63.2969"/><ellipse cx="975.5" cy="76.9453" fill="#84BE84" rx="3" ry="3" style="stroke:#038048;stroke-width:1;"/><text fill="#000000" font-family="sans-serif" font-size="14" lengthAdjust="spacing" textLength="210.54" x="984.5" y="80.292">static void main(String[] args)</text><ellipse cx="975.5" cy="93.2422" fill="#84BE84" rx="3" ry="3" style="stroke:#038048;stroke-width:1;"/><text fill="#000000" font-family="sans-serif" font-size="14" lengthAdjust="spacing" textLength="152.1816" x="984.5" y="96.5889">void startSimulation()</text></g><!--class LibraryManager--><g id="elem_LibraryManager"><rect codeLine="123" fill="#F1F1F1" height="210.9688" id="LibraryManager" rx="2.5" ry="2.5" style="stroke:#181818;stroke-width:0.5;" width="395.3457" x="890.5" y="181"/><ellipse cx="1028.7637" cy="197" fill="#ADD1B2" rx="11" ry="11" style="stroke:#181818;stroke-width:1;"/><path d="M1031.7324,202.6406 Q1031.1543,202.9375 1030.5137,203.0781 Q1029.873,203.2344 1029.1699,203.2344 Q1026.6699,203.2344 1025.3418,201.5938 Q1024.0293,199.9375 1024.0293,196.8125 Q1024.0293,193.6875 1025.3418,192.0313 Q1026.6699,190.375 1029.1699,190.375 Q1029.873,190.375 1030.5137,190.5313 Q1031.1699,190.6875 1031.7324,190.9844 L1031.7324,193.7031 Q1031.1074,193.125 1030.5137,192.8594 Q1029.9199,192.5781 1029.2949,192.5781 Q1027.9512,192.5781 1027.2637,193.6563 Q1026.5762,194.7188 1026.5762,196.8125 Q1026.5762,198.9063 1027.2637,199.9844 Q1027.9512,201.0469 1029.2949,201.0469 Q1029.9199,201.0469 1030.5137,200.7813 Q1031.1074,200.5 1031.7324,199.9219 L1031.7324,202.6406 Z " fill="#000000"/><text fill="#000000" font-family="sans-serif" font-size="14" lengthAdjust="spacing" textLength="110.3184" x="1049.2637" y="201.8467">LibraryManager</text><line style="stroke:#181818;stroke-width:0.5;" x1="891.5" x2="1284.8457" y1="213" y2="213"/><rect fill="transparent" height="6" style="stroke:#C82930;stroke-width:1;" width="6" x="898.5" y="223.6484"/><text fill="#000000" font-family="sans-serif" font-size="14" lengthAdjust="spacing" textLength="85.9346" x="910.5" y="229.9951">String name</text><rect fill="transparent" height="6" style="stroke:#C82930;stroke-width:1;" width="6" x="898.5" y="239.9453"/><text fill="#000000" font-family="sans-serif" font-size="14" lengthAdjust="spacing" textLength="112.4102" x="910.5" y="246.292">Storage storage</text><rect fill="transparent" height="6" style="stroke:#C82930;stroke-width:1;" width="6" x="898.5" y="256.2422"/><text fill="#000000" font-family="sans-serif" font-size="14" lengthAdjust="spacing" textLength="126.8408" x="910.5" y="262.5889">users: List&lt;User&gt;</text><rect fill="transparent" height="6" style="stroke:#C82930;stroke-width:1;" width="6" x="898.5" y="272.5391"/><text fill="#000000" font-family="sans-serif" font-size="14" lengthAdjust="spacing" textLength="128.1191" x="910.5" y="278.8857">loans: List&lt;Loan&gt;</text><ellipse cx="901.5" cy="291.8359" fill="transparent" rx="3" ry="3" style="stroke:#038048;stroke-width:1;"/><text fill="#000000" font-family="sans-serif" font-size="14" lengthAdjust="spacing" textLength="110.332" x="910.5" y="295.1826">String getLoans</text><line style="stroke:#181818;stroke-width:0.5;" x1="891.5" x2="1284.8457" y1="302.4844" y2="302.4844"/><ellipse cx="901.5" cy="316.1328" fill="#84BE84" rx="3" ry="3" style="stroke:#038048;stroke-width:1;"/><text fill="#000000" font-family="sans-serif" font-size="14" lengthAdjust="spacing" textLength="369.3457" x="910.5" y="319.4795">void addUser(String name, String email, String type)</text><ellipse cx="901.5" cy="332.4297" fill="#84BE84" rx="3" ry="3" style="stroke:#038048;stroke-width:1;"/><text fill="#000000" font-family="sans-serif" font-size="14" lengthAdjust="spacing" textLength="249.1426" x="910.5" y="335.7764">void addLoan(User user, Loan loan)</text><ellipse cx="901.5" cy="348.7266" fill="#84BE84" rx="3" ry="3" style="stroke:#038048;stroke-width:1;"/><text fill="#000000" font-family="sans-serif" font-size="14" lengthAdjust="spacing" textLength="119.3486" x="910.5" y="352.0732">String getUsers()</text><ellipse cx="901.5" cy="365.0234" fill="#84BE84" rx="3" ry="3" style="stroke:#038048;stroke-width:1;"/><text fill="#000000" font-family="sans-serif" font-size="14" lengthAdjust="spacing" textLength="201.209" x="910.5" y="368.3701">void addElementToStorage()</text><ellipse cx="901.5" cy="381.3203" fill="#84BE84" rx="3" ry="3" style="stroke:#038048;stroke-width:1;"/><text fill="#000000" font-family="sans-serif" font-size="14" lengthAdjust="spacing" textLength="147.916" x="910.5" y="384.667">Storage getStorage()</text></g><!--class Storage--><g id="elem_Storage"><rect codeLine="24" fill="#F1F1F1" height="390.2344" id="Storage" rx="2.5" ry="2.5" style="stroke:#181818;stroke-width:0.5;" width="342.6133" x="541.5" y="453"/><ellipse cx="681.1685" cy="469" fill="#ADD1B2" rx="11" ry="11" style="stroke:#181818;stroke-width:1;"/><path d="M684.1372,474.6406 Q683.5591,474.9375 682.9185,475.0781 Q682.2778,475.2344 681.5747,475.2344 Q679.0747,475.2344 677.7466,473.5938 Q676.4341,471.9375 676.4341,468.8125 Q676.4341,465.6875 677.7466,464.0313 Q679.0747,462.375 681.5747,462.375 Q682.2778,462.375 682.9185,462.5313 Q683.5747,462.6875 684.1372,462.9844 L684.1372,465.7031 Q683.5122,465.125 682.9185,464.8594 Q682.3247,464.5781 681.6997,464.5781 Q680.356,464.5781 679.6685,465.6563 Q678.981,466.7188 678.981,468.8125 Q678.981,470.9063 679.6685,471.9844 Q680.356,473.0469 681.6997,473.0469 Q682.3247,473.0469 682.9185,472.7813 Q683.5122,472.5 684.1372,471.9219 L684.1372,474.6406 Z " fill="#000000"/><text fill="#000000" font-family="sans-serif" font-size="14" lengthAdjust="spacing" textLength="54.7764" x="701.6685" y="473.8467">Storage</text><line style="stroke:#181818;stroke-width:0.5;" x1="542.5" x2="883.1133" y1="485" y2="485"/><rect fill="transparent" height="6" style="stroke:#C82930;stroke-width:1;" width="6" x="549.5" y="495.6484"/><text fill="#000000" font-family="sans-serif" font-size="14" lengthAdjust="spacing" textLength="35.4785" x="561.5" y="501.9951">int id</text><rect fill="transparent" height="6" style="stroke:#C82930;stroke-width:1;" width="6" x="549.5" y="511.9453"/><text fill="#000000" font-family="sans-serif" font-size="14" lengthAdjust="spacing" textLength="199.6504" x="561.5" y="518.292">magazines: List&lt;Magazine&gt;</text><rect fill="transparent" height="6" style="stroke:#C82930;stroke-width:1;" width="6" x="549.5" y="528.2422"/><text fill="#000000" font-family="sans-serif" font-size="14" lengthAdjust="spacing" textLength="133.3623" x="561.5" y="534.5889">books: List&lt;Book&gt;</text><rect fill="transparent" height="6" style="stroke:#C82930;stroke-width:1;" width="6" x="549.5" y="544.5391"/><text fill="#000000" font-family="sans-serif" font-size="14" lengthAdjust="spacing" textLength="224.6016" x="561.5" y="550.8857">audiovisuals: List&lt;Audiovisual&gt;</text><rect fill="transparent" height="6" style="stroke:#C82930;stroke-width:1;" width="6" x="549.5" y="560.8359"/><text fill="#000000" font-family="sans-serif" font-size="14" lengthAdjust="spacing" textLength="179.7031" x="561.5" y="567.1826">materials: List&lt;Material&gt;</text><rect fill="transparent" height="6" style="stroke:#C82930;stroke-width:1;" width="6" x="549.5" y="577.1328"/><text fill="#000000" font-family="sans-serif" font-size="14" lengthAdjust="spacing" textLength="209.0293" x="561.5" y="583.4795">classrooms: List&lt;Classroom&gt;</text><line style="stroke:#181818;stroke-width:0.5;" x1="542.5" x2="883.1133" y1="590.7813" y2="590.7813"/><ellipse cx="552.5" cy="604.4297" fill="#84BE84" rx="3" ry="3" style="stroke:#038048;stroke-width:1;"/><text fill="#000000" font-family="sans-serif" font-size="14" lengthAdjust="spacing" textLength="179.6143" x="561.5" y="607.7764">void addBook(Book book)</text><ellipse cx="552.5" cy="620.7266" fill="#84BE84" rx="3" ry="3" style="stroke:#038048;stroke-width:1;"/><text fill="#000000" font-family="sans-serif" font-size="14" lengthAdjust="spacing" textLength="277.9082" x="561.5" y="624.0732">void addMagazine(Magazine magazine)</text><ellipse cx="552.5" cy="637.0234" fill="#84BE84" rx="3" ry="3" style="stroke:#038048;stroke-width:1;"/><text fill="#000000" font-family="sans-serif" font-size="14" lengthAdjust="spacing" textLength="316.6133" x="561.5" y="640.3701">void addAudiovisual(Audiovisual audiovisual)</text><ellipse cx="552.5" cy="653.3203" fill="#84BE84" rx="3" ry="3" style="stroke:#038048;stroke-width:1;"/><text fill="#000000" font-family="sans-serif" font-size="14" lengthAdjust="spacing" textLength="293.7949" x="561.5" y="656.667">void addClassroom(Classroom classroom)</text><ellipse cx="552.5" cy="669.6172" fill="#84BE84" rx="3" ry="3" style="stroke:#038048;stroke-width:1;"/><text fill="#000000" font-family="sans-serif" font-size="14" lengthAdjust="spacing" textLength="247.9873" x="561.5" y="672.9639">void addMaterial(Material material)</text><ellipse cx="552.5" cy="685.9141" fill="#84BE84" rx="3" ry="3" style="stroke:#038048;stroke-width:1;"/><text fill="#000000" font-family="sans-serif" font-size="14" lengthAdjust="spacing" textLength="154.1777" x="561.5" y="689.2607">void eraseBook(int id)</text><ellipse cx="552.5" cy="702.2109" fill="#84BE84" rx="3" ry="3" style="stroke:#038048;stroke-width:1;"/><text fill="#000000" font-family="sans-serif" font-size="14" lengthAdjust="spacing" textLength="186.1836" x="561.5" y="705.5576">void eraseMagazine(int id)</text><ellipse cx="552.5" cy="718.5078" fill="#84BE84" rx="3" ry="3" style="stroke:#038048;stroke-width:1;"/><text fill="#000000" font-family="sans-serif" font-size="14" lengthAdjust="spacing" textLength="199.9375" x="561.5" y="721.8545">void eraseAudiovisual(int id)</text><ellipse cx="552.5" cy="734.8047" fill="#84BE84" rx="3" ry="3" style="stroke:#038048;stroke-width:1;"/><text fill="#000000" font-family="sans-serif" font-size="14" lengthAdjust="spacing" textLength="192.6914" x="561.5" y="738.1514">void eraseClassroom(int id)</text><ellipse cx="552.5" cy="751.1016" fill="#84BE84" rx="3" ry="3" style="stroke:#038048;stroke-width:1;"/><text fill="#000000" font-family="sans-serif" font-size="14" lengthAdjust="spacing" textLength="176.21" x="561.5" y="754.4482">void eraseMaterial(int id)</text><ellipse cx="552.5" cy="767.3984" fill="#84BE84" rx="3" ry="3" style="stroke:#038048;stroke-width:1;"/><text fill="#000000" font-family="sans-serif" font-size="14" lengthAdjust="spacing" textLength="174.4326" x="561.5" y="770.7451">Book getBookById(int id)</text><ellipse cx="552.5" cy="783.6953" fill="#84BE84" rx="3" ry="3" style="stroke:#038048;stroke-width:1;"/><text fill="#000000" font-family="sans-serif" font-size="14" lengthAdjust="spacing" textLength="238.4443" x="561.5" y="787.042">Magazine getMagazineById(int id)</text><ellipse cx="552.5" cy="799.9922" fill="#84BE84" rx="3" ry="3" style="stroke:#038048;stroke-width:1;"/><text fill="#000000" font-family="sans-serif" font-size="14" lengthAdjust="spacing" textLength="265.9521" x="561.5" y="803.3389">Audiovisual getAudiovisualById(int id)</text><ellipse cx="552.5" cy="816.2891" fill="#84BE84" rx="3" ry="3" style="stroke:#038048;stroke-width:1;"/><text fill="#000000" font-family="sans-serif" font-size="14" lengthAdjust="spacing" textLength="251.46" x="561.5" y="819.6357">Classroom getClassroomById(int id)</text><ellipse cx="552.5" cy="832.5859" fill="#84BE84" rx="3" ry="3" style="stroke:#038048;stroke-width:1;"/><text fill="#000000" font-family="sans-serif" font-size="14" lengthAdjust="spacing" textLength="218.4971" x="561.5" y="835.9326">Material getMaterialById(int id)</text></g><!--class User--><g id="elem_User"><rect codeLine="63" fill="#F1F1F1" height="259.8594" id="User" rx="2.5" ry="2.5" style="stroke:#181818;stroke-width:0.5;" width="219.6348" x="1292" y="518"/><ellipse cx="1381.6123" cy="534" fill="#ADD1B2" rx="11" ry="11" style="stroke:#181818;stroke-width:1;"/><path d="M1384.5811,539.6406 Q1384.0029,539.9375 1383.3623,540.0781 Q1382.7217,540.2344 1382.0186,540.2344 Q1379.5186,540.2344 1378.1904,538.5938 Q1376.8779,536.9375 1376.8779,533.8125 Q1376.8779,530.6875 1378.1904,529.0313 Q1379.5186,527.375 1382.0186,527.375 Q1382.7217,527.375 1383.3623,527.5313 Q1384.0186,527.6875 1384.5811,527.9844 L1384.5811,530.7031 Q1383.9561,530.125 1383.3623,529.8594 Q1382.7686,529.5781 1382.1436,529.5781 Q1380.7998,529.5781 1380.1123,530.6563 Q1379.4248,531.7188 1379.4248,533.8125 Q1379.4248,535.9063 1380.1123,536.9844 Q1380.7998,538.0469 1382.1436,538.0469 Q1382.7686,538.0469 1383.3623,537.7813 Q1383.9561,537.5 1384.5811,536.9219 L1384.5811,539.6406 Z " fill="#000000"/><text fill="#000000" font-family="sans-serif" font-size="14" lengthAdjust="spacing" textLength="31.9102" x="1402.1123" y="538.8467">User</text><line style="stroke:#181818;stroke-width:0.5;" x1="1293" x2="1510.6348" y1="550" y2="550"/><rect fill="transparent" height="6" style="stroke:#C82930;stroke-width:1;" width="6" x="1300" y="560.6484"/><text fill="#000000" font-family="sans-serif" font-size="14" lengthAdjust="spacing" textLength="35.4785" x="1312" y="566.9951">int id</text><rect fill="transparent" height="6" style="stroke:#C82930;stroke-width:1;" width="6" x="1300" y="576.9453"/><text fill="#000000" font-family="sans-serif" font-size="14" lengthAdjust="spacing" textLength="85.9346" x="1312" y="583.292">String name</text><rect fill="transparent" height="6" style="stroke:#C82930;stroke-width:1;" width="6" x="1300" y="593.2422"/><text fill="#000000" font-family="sans-serif" font-size="14" lengthAdjust="spacing" textLength="84.8408" x="1312" y="599.5889">String email</text><rect fill="transparent" height="6" style="stroke:#C82930;stroke-width:1;" width="6" x="1300" y="609.5391"/><text fill="#000000" font-family="sans-serif" font-size="14" lengthAdjust="spacing" textLength="77.5059" x="1312" y="615.8857">String type</text><rect fill="transparent" height="6" style="stroke:#C82930;stroke-width:1;" width="6" x="1300" y="625.8359"/><text fill="#000000" font-family="sans-serif" font-size="14" lengthAdjust="spacing" textLength="92.3672" x="1312" y="632.1826">int maxItems</text><line style="stroke:#181818;stroke-width:0.5;" x1="1293" x2="1510.6348" y1="639.4844" y2="639.4844"/><ellipse cx="1303" cy="653.1328" fill="#84BE84" rx="3" ry="3" style="stroke:#038048;stroke-width:1;"/><text fill="#000000" font-family="sans-serif" font-size="14" lengthAdjust="spacing" textLength="93.1602" x="1312" y="656.4795">String getId()</text><ellipse cx="1303" cy="669.4297" fill="#84BE84" rx="3" ry="3" style="stroke:#038048;stroke-width:1;"/><text fill="#000000" font-family="sans-serif" font-size="14" lengthAdjust="spacing" textLength="138.4209" x="1312" y="672.7764">void setId(String id)</text><ellipse cx="1303" cy="685.7266" fill="#84BE84" rx="3" ry="3" style="stroke:#038048;stroke-width:1;"/><text fill="#000000" font-family="sans-serif" font-size="14" lengthAdjust="spacing" textLength="121.4473" x="1312" y="689.0732">String getName()</text><ellipse cx="1303" cy="702.0234" fill="#84BE84" rx="3" ry="3" style="stroke:#038048;stroke-width:1;"/><text fill="#000000" font-family="sans-serif" font-size="14" lengthAdjust="spacing" textLength="193.6348" x="1312" y="705.3701">void setName(String name)</text><ellipse cx="1303" cy="718.3203" fill="#84BE84" rx="3" ry="3" style="stroke:#038048;stroke-width:1;"/><text fill="#000000" font-family="sans-serif" font-size="14" lengthAdjust="spacing" textLength="118.9863" x="1312" y="721.667">String getEmail()</text><ellipse cx="1303" cy="734.6172" fill="#84BE84" rx="3" ry="3" style="stroke:#038048;stroke-width:1;"/><text fill="#000000" font-family="sans-serif" font-size="14" lengthAdjust="spacing" textLength="190.0801" x="1312" y="737.9639">void setEmail(String email)</text><ellipse cx="1303" cy="750.9141" fill="#84BE84" rx="3" ry="3" style="stroke:#038048;stroke-width:1;"/><text fill="#000000" font-family="sans-serif" font-size="14" lengthAdjust="spacing" textLength="114.4814" x="1312" y="754.2607">String getType()</text><ellipse cx="1303" cy="767.2109" fill="#84BE84" rx="3" ry="3" style="stroke:#038048;stroke-width:1;"/><text fill="#000000" font-family="sans-serif" font-size="14" lengthAdjust="spacing" textLength="178.2402" x="1312" y="770.5576">void setType(String type)</text></g><!--class Loan--><g id="elem_Loan"><rect codeLine="142" fill="#F1F1F1" height="145.7813" id="Loan" rx="2.5" ry="2.5" style="stroke:#181818;stroke-width:0.5;" width="337.7734" x="919" y="575"/><ellipse cx="1066.728" cy="591" fill="#ADD1B2" rx="11" ry="11" style="stroke:#181818;stroke-width:1;"/><path d="M1069.6968,596.6406 Q1069.1187,596.9375 1068.478,597.0781 Q1067.8374,597.2344 1067.1343,597.2344 Q1064.6343,597.2344 1063.3062,595.5938 Q1061.9937,593.9375 1061.9937,590.8125 Q1061.9937,587.6875 1063.3062,586.0313 Q1064.6343,584.375 1067.1343,584.375 Q1067.8374,584.375 1068.478,584.5313 Q1069.1343,584.6875 1069.6968,584.9844 L1069.6968,587.7031 Q1069.0718,587.125 1068.478,586.8594 Q1067.8843,586.5781 1067.2593,586.5781 Q1065.9155,586.5781 1065.228,587.6563 Q1064.5405,588.7188 1064.5405,590.8125 Q1064.5405,592.9063 1065.228,593.9844 Q1065.9155,595.0469 1067.2593,595.0469 Q1067.8843,595.0469 1068.478,594.7813 Q1069.0718,594.5 1069.6968,593.9219 L1069.6968,596.6406 Z " fill="#000000"/><text fill="#000000" font-family="sans-serif" font-size="14" lengthAdjust="spacing" textLength="33.8174" x="1087.228" y="595.8467">Loan</text><line style="stroke:#181818;stroke-width:0.5;" x1="920" x2="1255.7734" y1="607" y2="607"/><rect fill="transparent" height="6" style="stroke:#C82930;stroke-width:1;" width="6" x="927" y="617.6484"/><text fill="#000000" font-family="sans-serif" font-size="14" lengthAdjust="spacing" textLength="88.1426" x="939" y="623.9951">int maxDays</text><rect fill="transparent" height="6" style="stroke:#C82930;stroke-width:1;" width="6" x="927" y="633.9453"/><text fill="#000000" font-family="sans-serif" font-size="14" lengthAdjust="spacing" textLength="66.8965" x="939" y="640.292">User user</text><rect fill="transparent" height="6" style="stroke:#C82930;stroke-width:1;" width="6" x="927" y="650.2422"/><text fill="#000000" font-family="sans-serif" font-size="14" lengthAdjust="spacing" textLength="112.4102" x="939" y="656.5889">Storage storage</text><line style="stroke:#181818;stroke-width:0.5;" x1="920" x2="1255.7734" y1="663.8906" y2="663.8906"/><ellipse cx="930" cy="677.5391" fill="#84BE84" rx="3" ry="3" style="stroke:#038048;stroke-width:1;"/><text fill="#000000" font-family="sans-serif" font-size="14" lengthAdjust="spacing" textLength="130.2793" x="939" y="680.8857">void setMaxDays()</text><ellipse cx="930" cy="693.8359" fill="#84BE84" rx="3" ry="3" style="stroke:#038048;stroke-width:1;"/><text fill="#000000" font-family="sans-serif" font-size="14" lengthAdjust="spacing" textLength="120.4971" x="939" y="697.1826">int getMaxDays()</text><ellipse cx="930" cy="710.1328" fill="#84BE84" rx="3" ry="3" style="stroke:#038048;stroke-width:1;"/><text fill="#000000" font-family="sans-serif" font-size="14" lengthAdjust="spacing" textLength="311.7734" x="939" y="713.4795">void createLoan(User user, Storage storage)</text></g><!--class Book--><g id="elem_Book"><rect codeLine="80" fill="#F1F1F1" height="145.7813" id="Book" rx="2.5" ry="2.5" style="stroke:#181818;stroke-width:0.5;" width="263.0977" x="581.5" y="904"/><ellipse cx="691.3774" cy="920" fill="#ADD1B2" rx="11" ry="11" style="stroke:#181818;stroke-width:1;"/><path d="M694.3462,925.6406 Q693.7681,925.9375 693.1274,926.0781 Q692.4868,926.2344 691.7837,926.2344 Q689.2837,926.2344 687.9556,924.5938 Q686.6431,922.9375 686.6431,919.8125 Q686.6431,916.6875 687.9556,915.0313 Q689.2837,913.375 691.7837,913.375 Q692.4868,913.375 693.1274,913.5313 Q693.7837,913.6875 694.3462,913.9844 L694.3462,916.7031 Q693.7212,916.125 693.1274,915.8594 Q692.5337,915.5781 691.9087,915.5781 Q690.5649,915.5781 689.8774,916.6563 Q689.1899,917.7188 689.1899,919.8125 Q689.1899,921.9063 689.8774,922.9844 Q690.5649,924.0469 691.9087,924.0469 Q692.5337,924.0469 693.1274,923.7813 Q693.7212,923.5 694.3462,922.9219 L694.3462,925.6406 Z " fill="#000000"/><text fill="#000000" font-family="sans-serif" font-size="14" lengthAdjust="spacing" textLength="34.8428" x="711.8774" y="924.8467">Book</text><line style="stroke:#181818;stroke-width:0.5;" x1="582.5" x2="843.5977" y1="936" y2="936"/><rect fill="transparent" height="6" style="stroke:#C82930;stroke-width:1;" width="6" x="589.5" y="946.6484"/><text fill="#000000" font-family="sans-serif" font-size="14" lengthAdjust="spacing" textLength="75.1748" x="601.5" y="952.9951">String isbn</text><rect fill="transparent" height="6" style="stroke:#C82930;stroke-width:1;" width="6" x="589.5" y="962.9453"/><text fill="#000000" font-family="sans-serif" font-size="14" lengthAdjust="spacing" textLength="95.9014" x="601.5" y="969.292">int numPages</text><line style="stroke:#181818;stroke-width:0.5;" x1="582.5" x2="843.5977" y1="976.5938" y2="976.5938"/><ellipse cx="592.5" cy="990.2422" fill="#84BE84" rx="3" ry="3" style="stroke:#038048;stroke-width:1;"/><text fill="#000000" font-family="sans-serif" font-size="14" lengthAdjust="spacing" textLength="109.3271" x="601.5" y="993.5889">String getIsbn()</text><ellipse cx="592.5" cy="1006.5391" fill="#84BE84" rx="3" ry="3" style="stroke:#038048;stroke-width:1;"/><text fill="#000000" font-family="sans-serif" font-size="14" lengthAdjust="spacing" textLength="170.7549" x="601.5" y="1009.8857">void setIsbn(String isbn)</text><ellipse cx="592.5" cy="1022.8359" fill="#84BE84" rx="3" ry="3" style="stroke:#038048;stroke-width:1;"/><text fill="#000000" font-family="sans-serif" font-size="14" lengthAdjust="spacing" textLength="131.4141" x="601.5" y="1026.1826">int getNumPages()</text><ellipse cx="592.5" cy="1039.1328" fill="#84BE84" rx="3" ry="3" style="stroke:#038048;stroke-width:1;"/><text fill="#000000" font-family="sans-serif" font-size="14" lengthAdjust="spacing" textLength="237.0977" x="601.5" y="1042.4795">void setNumPages(int numPages)</text></g><!--class Magazine--><g id="elem_Magazine"><rect codeLine="105" fill="#F1F1F1" height="145.7813" id="Magazine" rx="2.5" ry="2.5" style="stroke:#181818;stroke-width:0.5;" width="267.7939" x="278" y="904"/><ellipse cx="374.2227" cy="920" fill="#ADD1B2" rx="11" ry="11" style="stroke:#181818;stroke-width:1;"/><path d="M377.1914,925.6406 Q376.6133,925.9375 375.9727,926.0781 Q375.332,926.2344 374.6289,926.2344 Q372.1289,926.2344 370.8008,924.5938 Q369.4883,922.9375 369.4883,919.8125 Q369.4883,916.6875 370.8008,915.0313 Q372.1289,913.375 374.6289,913.375 Q375.332,913.375 375.9727,913.5313 Q376.6289,913.6875 377.1914,913.9844 L377.1914,916.7031 Q376.5664,916.125 375.9727,915.8594 Q375.3789,915.5781 374.7539,915.5781 Q373.4102,915.5781 372.7227,916.6563 Q372.0352,917.7188 372.0352,919.8125 Q372.0352,921.9063 372.7227,922.9844 Q373.4102,924.0469 374.7539,924.0469 Q375.3789,924.0469 375.9727,923.7813 Q376.5664,923.5 377.1914,922.9219 L377.1914,925.6406 Z " fill="#000000"/><text fill="#000000" font-family="sans-serif" font-size="14" lengthAdjust="spacing" textLength="66.8486" x="394.7227" y="924.8467">Magazine</text><line style="stroke:#181818;stroke-width:0.5;" x1="279" x2="544.7939" y1="936" y2="936"/><rect fill="transparent" height="6" style="stroke:#C82930;stroke-width:1;" width="6" x="286" y="946.6484"/><text fill="#000000" font-family="sans-serif" font-size="14" lengthAdjust="spacing" textLength="73.582" x="298" y="952.9951">String issn</text><rect fill="transparent" height="6" style="stroke:#C82930;stroke-width:1;" width="6" x="286" y="962.9453"/><text fill="#000000" font-family="sans-serif" font-size="14" lengthAdjust="spacing" textLength="119.1572" x="298" y="969.292">int numberPages</text><line style="stroke:#181818;stroke-width:0.5;" x1="279" x2="544.7939" y1="976.5938" y2="976.5938"/><ellipse cx="289" cy="990.2422" fill="#84BE84" rx="3" ry="3" style="stroke:#038048;stroke-width:1;"/><text fill="#000000" font-family="sans-serif" font-size="14" lengthAdjust="spacing" textLength="107.7344" x="298" y="993.5889">String getIssn()</text><ellipse cx="289" cy="1006.5391" fill="#84BE84" rx="3" ry="3" style="stroke:#038048;stroke-width:1;"/><text fill="#000000" font-family="sans-serif" font-size="14" lengthAdjust="spacing" textLength="167.5693" x="298" y="1009.8857">void setIssn(String issn)</text><ellipse cx="289" cy="1022.8359" fill="#84BE84" rx="3" ry="3" style="stroke:#038048;stroke-width:1;"/><text fill="#000000" font-family="sans-serif" font-size="14" lengthAdjust="spacing" textLength="154.6699" x="298" y="1026.1826">int getNumberPages()</text><ellipse cx="289" cy="1039.1328" fill="#84BE84" rx="3" ry="3" style="stroke:#038048;stroke-width:1;"/><text fill="#000000" font-family="sans-serif" font-size="14" lengthAdjust="spacing" textLength="241.7939" x="298" y="1042.4795">void setNumberPages(int number)</text></g><!--class Material--><g id="elem_Material"><rect codeLine="18" fill="#F1F1F1" height="96.8906" id="Material" rx="2.5" ry="2.5" style="stroke:#181818;stroke-width:0.5;" width="296.2041" x="880" y="928.5"/><ellipse cx="995.4146" cy="944.5" fill="#ADD1B2" rx="11" ry="11" style="stroke:#181818;stroke-width:1;"/><path d="M998.3833,950.1406 Q997.8052,950.4375 997.1646,950.5781 Q996.5239,950.7344 995.8208,950.7344 Q993.3208,950.7344 991.9927,949.0938 Q990.6802,947.4375 990.6802,944.3125 Q990.6802,941.1875 991.9927,939.5313 Q993.3208,937.875 995.8208,937.875 Q996.5239,937.875 997.1646,938.0313 Q997.8208,938.1875 998.3833,938.4844 L998.3833,941.2031 Q997.7583,940.625 997.1646,940.3594 Q996.5708,940.0781 995.9458,940.0781 Q994.6021,940.0781 993.9146,941.1563 Q993.2271,942.2188 993.2271,944.3125 Q993.2271,946.4063 993.9146,947.4844 Q994.6021,948.5469 995.9458,948.5469 Q996.5708,948.5469 997.1646,948.2813 Q997.7583,948 998.3833,947.4219 L998.3833,950.1406 Z " fill="#000000"/><text fill="#000000" font-family="sans-serif" font-size="14" lengthAdjust="spacing" textLength="56.875" x="1015.9146" y="949.3467">Material</text><line style="stroke:#181818;stroke-width:0.5;" x1="881" x2="1175.2041" y1="960.5" y2="960.5"/><rect fill="transparent" height="6" style="stroke:#C82930;stroke-width:1;" width="6" x="888" y="971.1484"/><text fill="#000000" font-family="sans-serif" font-size="14" lengthAdjust="spacing" textLength="124.0723" x="900" y="977.4951">String description</text><line style="stroke:#181818;stroke-width:0.5;" x1="881" x2="1175.2041" y1="984.7969" y2="984.7969"/><ellipse cx="891" cy="998.4453" fill="#84BE84" rx="3" ry="3" style="stroke:#038048;stroke-width:1;"/><text fill="#000000" font-family="sans-serif" font-size="14" lengthAdjust="spacing" textLength="159.8789" x="900" y="1001.792">String getDescription()</text><ellipse cx="891" cy="1014.7422" fill="#84BE84" rx="3" ry="3" style="stroke:#038048;stroke-width:1;"/><text fill="#000000" font-family="sans-serif" font-size="14" lengthAdjust="spacing" textLength="270.2041" x="900" y="1018.0889">void setDescription(String description)</text></g><!--class Classroom--><g id="elem_Classroom"><rect codeLine="89" fill="#F1F1F1" height="96.8906" id="Classroom" rx="2.5" ry="2.5" style="stroke:#181818;stroke-width:0.5;" width="235.3848" x="1211.5" y="928.5"/><ellipse cx="1288.2642" cy="944.5" fill="#ADD1B2" rx="11" ry="11" style="stroke:#181818;stroke-width:1;"/><path d="M1291.2329,950.1406 Q1290.6548,950.4375 1290.0142,950.5781 Q1289.3735,950.7344 1288.6704,950.7344 Q1286.1704,950.7344 1284.8423,949.0938 Q1283.5298,947.4375 1283.5298,944.3125 Q1283.5298,941.1875 1284.8423,939.5313 Q1286.1704,937.875 1288.6704,937.875 Q1289.3735,937.875 1290.0142,938.0313 Q1290.6704,938.1875 1291.2329,938.4844 L1291.2329,941.2031 Q1290.6079,940.625 1290.0142,940.3594 Q1289.4204,940.0781 1288.7954,940.0781 Q1287.4517,940.0781 1286.7642,941.1563 Q1286.0767,942.2188 1286.0767,944.3125 Q1286.0767,946.4063 1286.7642,947.4844 Q1287.4517,948.5469 1288.7954,948.5469 Q1289.4204,948.5469 1290.0142,948.2813 Q1290.6079,948 1291.2329,947.4219 L1291.2329,950.1406 Z " fill="#000000"/><text fill="#000000" font-family="sans-serif" font-size="14" lengthAdjust="spacing" textLength="73.3564" x="1308.7642" y="949.3467">Classroom</text><line style="stroke:#181818;stroke-width:0.5;" x1="1212.5" x2="1445.8848" y1="960.5" y2="960.5"/><rect fill="transparent" height="6" style="stroke:#C82930;stroke-width:1;" width="6" x="1219.5" y="971.1484"/><text fill="#000000" font-family="sans-serif" font-size="14" lengthAdjust="spacing" textLength="81.8057" x="1231.5" y="977.4951">int capacity</text><line style="stroke:#181818;stroke-width:0.5;" x1="1212.5" x2="1445.8848" y1="984.7969" y2="984.7969"/><ellipse cx="1222.5" cy="998.4453" fill="#84BE84" rx="3" ry="3" style="stroke:#038048;stroke-width:1;"/><text fill="#000000" font-family="sans-serif" font-size="14" lengthAdjust="spacing" textLength="117.7969" x="1231.5" y="1001.792">int getCapacity()</text><ellipse cx="1222.5" cy="1014.7422" fill="#84BE84" rx="3" ry="3" style="stroke:#038048;stroke-width:1;"/><text fill="#000000" font-family="sans-serif" font-size="14" lengthAdjust="spacing" textLength="209.3848" x="1231.5" y="1018.0889">void setCapacity(int capacity)</text></g><!--class Audiovisual--><g id="elem_Audiovisual"><rect codeLine="114" fill="#F1F1F1" height="145.7813" id="Audiovisual" rx="2.5" ry="2.5" style="stroke:#181818;stroke-width:0.5;" width="235.665" x="7" y="904"/><ellipse cx="80.2813" cy="920" fill="#ADD1B2" rx="11" ry="11" style="stroke:#181818;stroke-width:1;"/><path d="M83.25,925.6406 Q82.6719,925.9375 82.0313,926.0781 Q81.3906,926.2344 80.6875,926.2344 Q78.1875,926.2344 76.8594,924.5938 Q75.5469,922.9375 75.5469,919.8125 Q75.5469,916.6875 76.8594,915.0313 Q78.1875,913.375 80.6875,913.375 Q81.3906,913.375 82.0313,913.5313 Q82.6875,913.6875 83.25,913.9844 L83.25,916.7031 Q82.625,916.125 82.0313,915.8594 Q81.4375,915.5781 80.8125,915.5781 Q79.4688,915.5781 78.7813,916.6563 Q78.0938,917.7188 78.0938,919.8125 Q78.0938,921.9063 78.7813,922.9844 Q79.4688,924.0469 80.8125,924.0469 Q81.4375,924.0469 82.0313,923.7813 Q82.625,923.5 83.25,922.9219 L83.25,925.6406 Z " fill="#000000"/><text fill="#000000" font-family="sans-serif" font-size="14" lengthAdjust="spacing" textLength="80.6025" x="100.7813" y="924.8467">Audiovisual</text><line style="stroke:#181818;stroke-width:0.5;" x1="8" x2="241.665" y1="936" y2="936"/><rect fill="transparent" height="6" style="stroke:#C82930;stroke-width:1;" width="6" x="15" y="946.6484"/><text fill="#000000" font-family="sans-serif" font-size="14" lengthAdjust="spacing" textLength="93.1875" x="27" y="952.9951">String format</text><rect fill="transparent" height="6" style="stroke:#C82930;stroke-width:1;" width="6" x="15" y="962.9453"/><text fill="#000000" font-family="sans-serif" font-size="14" lengthAdjust="spacing" textLength="81.6143" x="27" y="969.292">int duration</text><line style="stroke:#181818;stroke-width:0.5;" x1="8" x2="241.665" y1="976.5938" y2="976.5938"/><ellipse cx="18" cy="990.2422" fill="#84BE84" rx="3" ry="3" style="stroke:#038048;stroke-width:1;"/><text fill="#000000" font-family="sans-serif" font-size="14" lengthAdjust="spacing" textLength="130.2246" x="27" y="993.5889">String getFormat()</text><ellipse cx="18" cy="1006.5391" fill="#84BE84" rx="3" ry="3" style="stroke:#038048;stroke-width:1;"/><text fill="#000000" font-family="sans-serif" font-size="14" lengthAdjust="spacing" textLength="209.665" x="27" y="1009.8857">void setFormat(String format)</text><ellipse cx="18" cy="1022.8359" fill="#84BE84" rx="3" ry="3" style="stroke:#038048;stroke-width:1;"/><text fill="#000000" font-family="sans-serif" font-size="14" lengthAdjust="spacing" textLength="117.4209" x="27" y="1026.1826">int getDuration()</text><ellipse cx="18" cy="1039.1328" fill="#84BE84" rx="3" ry="3" style="stroke:#038048;stroke-width:1;"/><text fill="#000000" font-family="sans-serif" font-size="14" lengthAdjust="spacing" textLength="208.8174" x="27" y="1042.4795">void setDuration(int duration)</text></g><!--class Service--><g id="elem_Service"><rect codeLine="95" fill="#F1F1F1" height="162.0781" id="Service" rx="2.5" ry="2.5" style="stroke:#181818;stroke-width:0.5;" width="192.708" x="1082.5" y="1143.5"/><ellipse cx="1148.7334" cy="1159.5" fill="#A9DCDF" rx="11" ry="11" style="stroke:#181818;stroke-width:1;"/><path d="M1148.8428,1154.8438 L1147.6865,1159.9219 L1150.0146,1159.9219 L1148.8428,1154.8438 Z M1147.3584,1152.6094 L1150.3428,1152.6094 L1153.7021,1165 L1151.249,1165 L1150.4834,1161.9375 L1147.2021,1161.9375 L1146.4521,1165 L1144.0146,1165 L1147.3584,1152.6094 Z " fill="#000000"/><text fill="#000000" font-family="sans-serif" font-size="14" font-style="italic" lengthAdjust="spacing" textLength="51.7412" x="1169.2334" y="1164.3467">Service</text><line style="stroke:#181818;stroke-width:0.5;" x1="1083.5" x2="1274.208" y1="1175.5" y2="1175.5"/><rect fill="transparent" height="6" style="stroke:#C82930;stroke-width:1;" width="6" x="1090.5" y="1186.1484"/><text fill="#000000" font-family="sans-serif" font-size="14" lengthAdjust="spacing" textLength="35.4785" x="1102.5" y="1192.4951">int id</text><rect fill="transparent" height="6" style="stroke:#C82930;stroke-width:1;" width="6" x="1090.5" y="1202.4453"/><text fill="#000000" font-family="sans-serif" font-size="14" lengthAdjust="spacing" textLength="85.9346" x="1102.5" y="1208.792">String name</text><rect fill="transparent" height="6" style="stroke:#C82930;stroke-width:1;" width="6" x="1090.5" y="1218.7422"/><text fill="#000000" font-family="sans-serif" font-size="14" lengthAdjust="spacing" textLength="123.6143" x="1102.5" y="1225.0889">boolean available</text><line style="stroke:#181818;stroke-width:0.5;" x1="1083.5" x2="1274.208" y1="1232.3906" y2="1232.3906"/><ellipse cx="1093.5" cy="1246.0391" fill="#84BE84" rx="3" ry="3" style="stroke:#038048;stroke-width:1;"/><text fill="#000000" font-family="sans-serif" font-size="14" lengthAdjust="spacing" textLength="93.1602" x="1102.5" y="1249.3857">String getId()</text><ellipse cx="1093.5" cy="1262.3359" fill="#84BE84" rx="3" ry="3" style="stroke:#038048;stroke-width:1;"/><text fill="#000000" font-family="sans-serif" font-size="14" lengthAdjust="spacing" textLength="138.4209" x="1102.5" y="1265.6826">void setId(String id)</text><ellipse cx="1093.5" cy="1278.6328" fill="#84BE84" rx="3" ry="3" style="stroke:#038048;stroke-width:1;"/><text fill="#000000" font-family="sans-serif" font-size="14" lengthAdjust="spacing" textLength="121.4473" x="1102.5" y="1281.9795">String getName()</text><ellipse cx="1093.5" cy="1294.9297" fill="#84BE84" rx="3" ry="3" style="stroke:#038048;stroke-width:1;"/><text fill="#000000" font-family="sans-serif" font-size="14" lengthAdjust="spacing" textLength="166.708" x="1102.5" y="1298.2764">void setName(String id)</text></g><!--class Document--><g id="elem_Document"><rect codeLine="48" fill="#F1F1F1" height="227.2656" id="Document" rx="2.5" ry="2.5" style="stroke:#181818;stroke-width:0.5;" width="198.5391" x="312.5" y="1111"/><ellipse cx="371.2549" cy="1127" fill="#A9DCDF" rx="11" ry="11" style="stroke:#181818;stroke-width:1;"/><path d="M371.3643,1122.3438 L370.208,1127.4219 L372.5361,1127.4219 L371.3643,1122.3438 Z M369.8799,1120.1094 L372.8643,1120.1094 L376.2236,1132.5 L373.7705,1132.5 L373.0049,1129.4375 L369.7236,1129.4375 L368.9736,1132.5 L366.5361,1132.5 L369.8799,1120.1094 Z " fill="#000000"/><text fill="#000000" font-family="sans-serif" font-size="14" font-style="italic" lengthAdjust="spacing" textLength="72.5293" x="391.7549" y="1131.8467">Document</text><line style="stroke:#181818;stroke-width:0.5;" x1="313.5" x2="510.0391" y1="1143" y2="1143"/><rect fill="transparent" height="6" style="stroke:#C82930;stroke-width:1;" width="6" x="320.5" y="1153.6484"/><text fill="#000000" font-family="sans-serif" font-size="14" lengthAdjust="spacing" textLength="35.4785" x="332.5" y="1159.9951">int id</text><rect fill="transparent" height="6" style="stroke:#C82930;stroke-width:1;" width="6" x="320.5" y="1169.9453"/><text fill="#000000" font-family="sans-serif" font-size="14" lengthAdjust="spacing" textLength="73.6025" x="332.5" y="1176.292">String title</text><rect fill="transparent" height="6" style="stroke:#C82930;stroke-width:1;" width="6" x="320.5" y="1186.2422"/><text fill="#000000" font-family="sans-serif" font-size="14" lengthAdjust="spacing" textLength="92.3672" x="332.5" y="1192.5889">String author</text><rect fill="transparent" height="6" style="stroke:#C82930;stroke-width:1;" width="6" x="320.5" y="1202.5391"/><text fill="#000000" font-family="sans-serif" font-size="14" lengthAdjust="spacing" textLength="131.7217" x="332.5" y="1208.8857">int publicationYear</text><rect fill="transparent" height="6" style="stroke:#C82930;stroke-width:1;" width="6" x="320.5" y="1218.8359"/><text fill="#000000" font-family="sans-serif" font-size="14" lengthAdjust="spacing" textLength="123.6143" x="332.5" y="1225.1826">boolean available</text><line style="stroke:#181818;stroke-width:0.5;" x1="313.5" x2="510.0391" y1="1232.4844" y2="1232.4844"/><ellipse cx="323.5" cy="1246.1328" fill="#84BE84" rx="3" ry="3" style="stroke:#038048;stroke-width:1;"/><text fill="#000000" font-family="sans-serif" font-size="14" lengthAdjust="spacing" textLength="93.1602" x="332.5" y="1249.4795">String getId()</text><ellipse cx="323.5" cy="1262.4297" fill="#84BE84" rx="3" ry="3" style="stroke:#038048;stroke-width:1;"/><text fill="#000000" font-family="sans-serif" font-size="14" lengthAdjust="spacing" textLength="138.4209" x="332.5" y="1265.7764">void setId(String id)</text><ellipse cx="323.5" cy="1278.7266" fill="#84BE84" rx="3" ry="3" style="stroke:#038048;stroke-width:1;"/><text fill="#000000" font-family="sans-serif" font-size="14" lengthAdjust="spacing" textLength="110.5781" x="332.5" y="1282.0732">String getTitle()</text><ellipse cx="323.5" cy="1295.0234" fill="#84BE84" rx="3" ry="3" style="stroke:#038048;stroke-width:1;"/><text fill="#000000" font-family="sans-serif" font-size="14" lengthAdjust="spacing" textLength="155.8389" x="332.5" y="1298.3701">void setTitle(String id)</text><ellipse cx="323.5" cy="1311.3203" fill="#84BE84" rx="3" ry="3" style="stroke:#038048;stroke-width:1;"/><text fill="#000000" font-family="sans-serif" font-size="14" lengthAdjust="spacing" textLength="127.2783" x="332.5" y="1314.667">String getAuthor()</text><ellipse cx="323.5" cy="1327.6172" fill="#84BE84" rx="3" ry="3" style="stroke:#038048;stroke-width:1;"/><text fill="#000000" font-family="sans-serif" font-size="14" lengthAdjust="spacing" textLength="172.5391" x="332.5" y="1330.9639">void setAuthor(String id)</text></g><!--link Main to LibraryManager--><g id="link_Main_LibraryManager"><path codeLine="1" d="M1088,104.23 C1088,126.51 1088,147.98 1088,174.74 " fill="transparent" id="Main-to-LibraryManager" style="stroke:#181818;stroke-width:1;"/><polygon fill="#181818" points="1088,180.74,1092,171.74,1088,175.74,1084,171.74,1088,180.74" style="stroke:#181818;stroke-width:1;"/><text fill="#000000" font-family="sans-serif" font-size="13" lengthAdjust="spacing" textLength="122.6685" x="1089" y="147.0669">instancia y ejecuta</text></g><!--reverse link LibraryManager to Storage--><g id="link_LibraryManager_Storage"><path codeLine="2" d="M958.1195,400.1142 C935.8695,420.0342 922,432.93 901,453 C895.58,458.18 890.09,463.48 884.59,468.85 " fill="transparent" id="LibraryManager-backto-Storage" style="stroke:#181818;stroke-width:1;"/><polygon fill="transparent" points="967.06,392.11,959.9217,393.132,958.1195,400.1142,965.2578,399.0923,967.06,392.11" style="stroke:#181818;stroke-width:1;"/></g><!--reverse link LibraryManager to User--><g id="link_LibraryManager_User"><path codeLine="3" d="M1223.6469,400.494 C1244.3069,419.804 1256.04,432.25 1274,453 C1291.3,472.98 1308.12,495.44 1323.58,517.8 " fill="transparent" id="LibraryManager-backto-User" style="stroke:#181818;stroke-width:1;"/><polygon fill="transparent" points="1214.88,392.3,1216.5321,399.3193,1223.6469,400.494,1221.9948,393.4747,1214.88,392.3" style="stroke:#181818;stroke-width:1;"/></g><!--reverse link LibraryManager to Loan--><g id="link_LibraryManager_Loan"><path codeLine="4" d="M1088,404.45 C1088,463.1 1088,522.68 1088,574.98 " fill="transparent" id="LibraryManager-backto-Loan" style="stroke:#181818;stroke-width:1;"/><polygon fill="transparent" points="1088,392.45,1084,398.45,1088,404.45,1092,398.45,1088,392.45" style="stroke:#181818;stroke-width:1;"/></g><!--link Storage to Loan--><g id="link_Storage_Loan"><path codeLine="5" d="M884.75,648 C896.13,648 895.51,648 906.89,648 " fill="transparent" id="Storage-to-Loan" style="stroke:#181818;stroke-width:1;"/><polygon fill="#181818" points="918.89,648,912.89,644,906.89,648,912.89,652,918.89,648" style="stroke:#181818;stroke-width:1;"/></g><!--reverse link Loan to User--><g id="link_Loan_User"><path codeLine="6" d="M1269.27,648 C1280.76,648 1280.26,648 1291.75,648 " fill="transparent" id="Loan-backto-User" style="stroke:#181818;stroke-width:1;"/><polygon fill="#181818" points="1257.27,648,1263.27,652,1269.27,648,1263.27,644,1257.27,648" style="stroke:#181818;stroke-width:1;"/></g><!--reverse link Storage to Book--><g id="link_Storage_Book"><path codeLine="7" d="M713,855.47 C713,876.86 713,885.52 713,903.91 " fill="transparent" id="Storage-backto-Book" style="stroke:#181818;stroke-width:1;"/><polygon fill="#181818" points="713,843.47,709,849.47,713,855.47,717,849.47,713,843.47" style="stroke:#181818;stroke-width:1;"/></g><!--reverse link Storage to Magazine--><g id="link_Storage_Magazine"><path codeLine="8" d="M533.2735,844.2495 C510.9635,868.4895 497.41,883.22 478.37,903.9 " fill="transparent" id="Storage-backto-Magazine" style="stroke:#181818;stroke-width:1;"/><polygon fill="#181818" points="541.4,835.42,534.3936,837.1259,533.2735,844.2495,540.2799,842.5436,541.4,835.42" style="stroke:#181818;stroke-width:1;"/></g><!--reverse link Storage to Material--><g id="link_Storage_Material"><path codeLine="9" d="M893.1153,835.9723 C929.1053,873.3323 955.77,901.01 982.15,928.4 " fill="transparent" id="Storage-backto-Material" style="stroke:#181818;stroke-width:1;"/><polygon fill="#181818" points="884.79,827.33,886.0719,834.4262,893.1153,835.9723,891.8334,828.876,884.79,827.33" style="stroke:#181818;stroke-width:1;"/></g><!--reverse link Storage to Classroom--><g id="link_Storage_Classroom"><path codeLine="10" d="M894.6693,839.6855 C900.0793,843.1455 895.45,839.95 901,843 C1017.53,907.14 1068.94,858.69 1194,904 C1212.23,910.61 1231.04,919.3 1248.62,928.35 " fill="transparent" id="Storage-backto-Classroom" style="stroke:#181818;stroke-width:1;"/><polygon fill="#181818" points="884.56,833.22,887.4595,839.8225,894.6693,839.6855,891.7698,833.083,884.56,833.22" style="stroke:#181818;stroke-width:1;"/></g><!--reverse link Storage to Audiovisual--><g id="link_Storage_Audiovisual"><path codeLine="11" d="M530.8626,750.2923 C435.0926,803.5523 328.75,862.69 243.24,910.24 " fill="transparent" id="Storage-backto-Audiovisual" style="stroke:#181818;stroke-width:1;"/><polygon fill="#181818" points="541.35,744.46,534.1622,743.8804,530.8626,750.2923,538.0504,750.8719,541.35,744.46" style="stroke:#181818;stroke-width:1;"/></g><!--link Classroom to Service--><g id="link_Classroom_Service"><path codeLine="12" d="M1299.9,1025.63 C1279.54,1058.95 1261.2221,1088.9185 1237.4821,1127.7885 " fill="transparent" id="Classroom-to-Service" style="stroke:#181818;stroke-width:1;"/><polygon fill="transparent" points="1228.1,1143.15,1242.6026,1130.9159,1232.3616,1124.6611,1228.1,1143.15" style="stroke:#181818;stroke-width:1;"/></g><!--link Material to Service--><g id="link_Material_Service"><path codeLine="13" d="M1057.29,1025.63 C1077.79,1058.95 1096.2391,1088.9484 1120.1491,1127.8184 " fill="transparent" id="Material-to-Service" style="stroke:#181818;stroke-width:1;"/><polygon fill="transparent" points="1129.58,1143.15,1125.2596,1124.6748,1115.0386,1130.962,1129.58,1143.15" style="stroke:#181818;stroke-width:1;"/></g><!--link Book to Document--><g id="link_Book_Document"><path codeLine="14" d="M624.32,1050.33 C588.94,1079.18 562.0003,1101.1651 525.6003,1130.8451 " fill="transparent" id="Book-to-Document" style="stroke:#181818;stroke-width:1;"/><polygon fill="transparent" points="511.65,1142.22,529.392,1135.4952,521.8087,1126.195,511.65,1142.22" style="stroke:#181818;stroke-width:1;"/></g><!--link Magazine to Document--><g id="link_Magazine_Document"><path codeLine="15" d="M412,1050.33 C412,1069.28 412,1072.18 412,1092.7 " fill="transparent" id="Magazine-to-Document" style="stroke:#181818;stroke-width:1;"/><polygon fill="transparent" points="412,1110.7,418,1092.7,406,1092.7,412,1110.7" style="stroke:#181818;stroke-width:1;"/></g><!--link Audiovisual to Document--><g id="link_Audiovisual_Document"><path codeLine="16" d="M209.56,1050.33 C241.8,1077.91 265.1727,1097.8982 298.6827,1126.5682 " fill="transparent" id="Audiovisual-to-Document" style="stroke:#181818;stroke-width:1;"/><polygon fill="transparent" points="312.36,1138.27,302.5833,1122.0091,294.7821,1131.1273,312.36,1138.27" style="stroke:#181818;stroke-width:1;"/></g><!--SRC=[hLRRRjGm47tFLrXzohRD3rJLIcstI9Mw2Adb0I4U9edP6d9PsSwAfV3lZE-NP049-h2DpzpEpDXZRu4DfAhMv97L7FXn2mFiA2TNv8mDGiBGC217Gh_GPf9mLcHgOrMH9pboN2o9tWlAb_374OR2sf6AizsBhCuDgdx8kSMC0wTuZfQtu_Wr0RQmW-zie1aeAMVG9U1T1qBmSUmJz6PgsNXWObBQb1zOGydrZshQ9mQfmBlVZCtKqq4wWMQNWvvXBeX35uqAvZsJruBWN_KaEHjsfAMYuMmlsJXe_CBYEoetGLIkZF0mifQ8L3Htj2f-kgYk7ZOeOSYHjNRHM_hY2lU8aDSkdJMn2ZKcxOIg05u08JydZr9UU_ycvU3Vh9sySLrm2hujHkE2w7oXRLNmKlreIgjCwdYNxiDdbcj69CleEyudD_6SIlyLYC-Pc0nBtsrNWqIJSX1KvsJwCHVwb4ufn9cSqWdKJuUnV5C5NMdSWUh_xV6XpSI-pAZYlXVKuWAZPhHSK0x5HLM_M0nkAwk3c-z43VS-r49oQAHf5F6dqvw2-13OqoEPx6Y2m2HVHXuCzbFTiGRK-Vf0mGfmDtOKfneSW7LGMnVH6KPUsT55n8fzJa7zMT78BGnuskX6CysjB9gPXScWvkzl2Z90dzQ3zfXYMhFZdWRx7huzIDgBuXzBy1O3vmOQYuZDZEuLkTpAW37zURqnXLcv5HQb64rJVIxI-Sr4FOGY35F_3iUjcDK0jMPLK5ZanOgL6rK6wsbM2eV7uIAAuHn5lMrW3msJnoJ2dGNp21wFBPUEbRiw_sOJ_U-3ygTTOWU1kthjlCfR9zBMrPIVw9vOw9w8kYVctNFE5XheHI5kn3OUcodXpoF7woHGRYSEIm-7Drel3spHn5VAUcFzpLuR3e-3HeopP-3hoK5YtYB2lYerEE4OSjU_6adsRT3XMz71wjsuZXZXFQiquu5mIU9ZxbVc-2QMobcfPv-AVAbVfaH5csqnfUIx5s1b85AVznrLrylpQ3CCHYPXj0gIQ5VY-zpMAgjWbooDCtonIzQOknkJT9lluoS2V2UIZadWyedrK-Uw6JgbibKntSZUm54bK_cA58kDybjXQqnqXcxR99XMR3Z5cpalTUOMQVq2]--></g></svg>