<svg xmlns="http://www.w3.org/2000/svg" xmlns:xlink="http://www.w3.org/1999/xlink" contentStyleType="text/css" data-diagram-type="CLASS" height="1203px" preserveAspectRatio="none" style="width:1411px;height:1203px;background:#FFFFFF;" version="1.1" viewBox="0 0 1411 1203" width="1411px" zoomAndPan="magnify"><defs/><g><!--class LibraryManager--><g id="elem_LibraryManager"><rect codeLine="127" fill="#F1F1F1" height="227.2656" id="LibraryManager" rx="2.5" ry="2.5" style="stroke:#181818;stroke-width:0.5;" width="300.5039" x="694.5" y="7"/><ellipse cx="785.3428" cy="23" fill="#ADD1B2" rx="11" ry="11" style="stroke:#181818;stroke-width:1;"/><path d="M788.3115,28.6406 Q787.7334,28.9375 787.0928,29.0781 Q786.4521,29.2344 785.749,29.2344 Q783.249,29.2344 781.9209,27.5938 Q780.6084,25.9375 780.6084,22.8125 Q780.6084,19.6875 781.9209,18.0313 Q783.249,16.375 785.749,16.375 Q786.4521,16.375 787.0928,16.5313 Q787.749,16.6875 788.3115,16.9844 L788.3115,19.7031 Q787.6865,19.125 787.0928,18.8594 Q786.499,18.5781 785.874,18.5781 Q784.5303,18.5781 783.8428,19.6563 Q783.1553,20.7188 783.1553,22.8125 Q783.1553,24.9063 783.8428,25.9844 Q784.5303,27.0469 785.874,27.0469 Q786.499,27.0469 787.0928,26.7813 Q787.6865,26.5 788.3115,25.9219 L788.3115,28.6406 Z " fill="#000000"/><text fill="#000000" font-family="sans-serif" font-size="14" lengthAdjust="spacing" textLength="110.3184" x="805.8428" y="27.8467">LibraryManager</text><line style="stroke:#181818;stroke-width:0.5;" x1="695.5" x2="994.0039" y1="39" y2="39"/><ellipse cx="705.5" cy="52.6484" fill="transparent" rx="3" ry="3" style="stroke:#038048;stroke-width:1;"/><text fill="#000000" font-family="sans-serif" font-size="14" lengthAdjust="spacing" textLength="85.9346" x="714.5" y="55.9951">String name</text><ellipse cx="705.5" cy="68.9453" fill="transparent" rx="3" ry="3" style="stroke:#038048;stroke-width:1;"/><text fill="#000000" font-family="sans-serif" font-size="14" lengthAdjust="spacing" textLength="107.8916" x="714.5" y="72.292">String direction</text><line style="stroke:#181818;stroke-width:0.5;" x1="695.5" x2="994.0039" y1="79.5938" y2="79.5938"/><ellipse cx="705.5" cy="93.2422" fill="#84BE84" rx="3" ry="3" style="stroke:#038048;stroke-width:1;"/><text fill="#000000" font-family="sans-serif" font-size="14" lengthAdjust="spacing" textLength="256.751" x="714.5" y="96.5889">void addElement(Elements element)</text><ellipse cx="705.5" cy="109.5391" fill="#84BE84" rx="3" ry="3" style="stroke:#038048;stroke-width:1;"/><text fill="#000000" font-family="sans-serif" font-size="14" lengthAdjust="spacing" textLength="274.5039" x="714.5" y="112.8857">void deleteElement(Elements element)</text><ellipse cx="705.5" cy="125.8359" fill="#84BE84" rx="3" ry="3" style="stroke:#038048;stroke-width:1;"/><text fill="#000000" font-family="sans-serif" font-size="14" lengthAdjust="spacing" textLength="227.2813" x="714.5" y="129.1826">void searchElement(String type)</text><ellipse cx="705.5" cy="142.1328" fill="#84BE84" rx="3" ry="3" style="stroke:#038048;stroke-width:1;"/><text fill="#000000" font-family="sans-serif" font-size="14" lengthAdjust="spacing" textLength="198.1055" x="714.5" y="145.4795">void registerUser(User user)</text><ellipse cx="705.5" cy="158.4297" fill="#84BE84" rx="3" ry="3" style="stroke:#038048;stroke-width:1;"/><text fill="#000000" font-family="sans-serif" font-size="14" lengthAdjust="spacing" textLength="187.9131" x="714.5" y="161.7764">void deleteUser(User user)</text><ellipse cx="705.5" cy="174.7266" fill="#84BE84" rx="3" ry="3" style="stroke:#038048;stroke-width:1;"/><text fill="#000000" font-family="sans-serif" font-size="14" lengthAdjust="spacing" textLength="121.4473" x="714.5" y="178.0732">String getName()</text><ellipse cx="705.5" cy="191.0234" fill="#84BE84" rx="3" ry="3" style="stroke:#038048;stroke-width:1;"/><text fill="#000000" font-family="sans-serif" font-size="14" lengthAdjust="spacing" textLength="193.6348" x="714.5" y="194.3701">void setName(String name)</text><ellipse cx="705.5" cy="207.3203" fill="#84BE84" rx="3" ry="3" style="stroke:#038048;stroke-width:1;"/><text fill="#000000" font-family="sans-serif" font-size="14" lengthAdjust="spacing" textLength="143.6982" x="714.5" y="210.667">String getDirection()</text><ellipse cx="705.5" cy="223.6172" fill="#84BE84" rx="3" ry="3" style="stroke:#038048;stroke-width:1;"/><text fill="#000000" font-family="sans-serif" font-size="14" lengthAdjust="spacing" textLength="237.8428" x="714.5" y="226.9639">void setDirection(String direction)</text></g><!--class Elements--><g id="elem_Elements"><rect codeLine="25" fill="#F1F1F1" height="390.2344" id="Elements" rx="2.5" ry="2.5" style="stroke:#181818;stroke-width:0.5;" width="255.7764" x="543" y="295"/><ellipse cx="634.0103" cy="311" fill="#ADD1B2" rx="11" ry="11" style="stroke:#181818;stroke-width:1;"/><path d="M636.979,316.6406 Q636.4009,316.9375 635.7603,317.0781 Q635.1196,317.2344 634.4165,317.2344 Q631.9165,317.2344 630.5884,315.5938 Q629.2759,313.9375 629.2759,310.8125 Q629.2759,307.6875 630.5884,306.0313 Q631.9165,304.375 634.4165,304.375 Q635.1196,304.375 635.7603,304.5313 Q636.4165,304.6875 636.979,304.9844 L636.979,307.7031 Q636.354,307.125 635.7603,306.8594 Q635.1665,306.5781 634.5415,306.5781 Q633.1978,306.5781 632.5103,307.6563 Q631.8228,308.7188 631.8228,310.8125 Q631.8228,312.9063 632.5103,313.9844 Q633.1978,315.0469 634.5415,315.0469 Q635.1665,315.0469 635.7603,314.7813 Q636.354,314.5 636.979,313.9219 L636.979,316.6406 Z " fill="#000000"/><text fill="#000000" font-family="sans-serif" font-size="14" lengthAdjust="spacing" textLength="65.2559" x="654.5103" y="315.8467">Elements</text><line style="stroke:#181818;stroke-width:0.5;" x1="544" x2="797.7764" y1="327" y2="327"/><ellipse cx="554" cy="340.6484" fill="transparent" rx="3" ry="3" style="stroke:#038048;stroke-width:1;"/><text fill="#000000" font-family="sans-serif" font-size="14" lengthAdjust="spacing" textLength="35.4785" x="563" y="343.9951">int id</text><ellipse cx="554" cy="356.9453" fill="transparent" rx="3" ry="3" style="stroke:#038048;stroke-width:1;"/><text fill="#000000" font-family="sans-serif" font-size="14" lengthAdjust="spacing" textLength="199.6504" x="563" y="360.292">magazines: List&lt;Magazine&gt;</text><ellipse cx="554" cy="373.2422" fill="transparent" rx="3" ry="3" style="stroke:#038048;stroke-width:1;"/><text fill="#000000" font-family="sans-serif" font-size="14" lengthAdjust="spacing" textLength="133.3623" x="563" y="376.5889">books: List&lt;Book&gt;</text><ellipse cx="554" cy="389.5391" fill="transparent" rx="3" ry="3" style="stroke:#038048;stroke-width:1;"/><text fill="#000000" font-family="sans-serif" font-size="14" lengthAdjust="spacing" textLength="229.7764" x="563" y="392.8857">alaudiovisual: List&lt;Audiovisual&gt;</text><ellipse cx="554" cy="405.8359" fill="transparent" rx="3" ry="3" style="stroke:#038048;stroke-width:1;"/><text fill="#000000" font-family="sans-serif" font-size="14" lengthAdjust="spacing" textLength="172.4092" x="563" y="409.1826">material: List&lt;Material&gt;</text><ellipse cx="554" cy="422.1328" fill="transparent" rx="3" ry="3" style="stroke:#038048;stroke-width:1;"/><text fill="#000000" font-family="sans-serif" font-size="14" lengthAdjust="spacing" textLength="201.7354" x="563" y="425.4795">classroom: List&lt;Classroom&gt;</text><line style="stroke:#181818;stroke-width:0.5;" x1="544" x2="797.7764" y1="432.7813" y2="432.7813"/><ellipse cx="554" cy="446.4297" fill="#84BE84" rx="3" ry="3" style="stroke:#038048;stroke-width:1;"/><text fill="#000000" font-family="sans-serif" font-size="14" lengthAdjust="spacing" textLength="106.1963" x="563" y="449.7764">void addBook()</text><ellipse cx="554" cy="462.7266" fill="#84BE84" rx="3" ry="3" style="stroke:#038048;stroke-width:1;"/><text fill="#000000" font-family="sans-serif" font-size="14" lengthAdjust="spacing" textLength="138.2021" x="563" y="466.0732">void addMagazine()</text><ellipse cx="554" cy="479.0234" fill="#84BE84" rx="3" ry="3" style="stroke:#038048;stroke-width:1;"/><text fill="#000000" font-family="sans-serif" font-size="14" lengthAdjust="spacing" textLength="151.9561" x="563" y="482.3701">void addAudiovisual()</text><ellipse cx="554" cy="495.3203" fill="#84BE84" rx="3" ry="3" style="stroke:#038048;stroke-width:1;"/><text fill="#000000" font-family="sans-serif" font-size="14" lengthAdjust="spacing" textLength="144.71" x="563" y="498.667">void addClassroom()</text><ellipse cx="554" cy="511.6172" fill="#84BE84" rx="3" ry="3" style="stroke:#038048;stroke-width:1;"/><text fill="#000000" font-family="sans-serif" font-size="14" lengthAdjust="spacing" textLength="128.2285" x="563" y="514.9639">void addMaterial()</text><ellipse cx="554" cy="527.9141" fill="#84BE84" rx="3" ry="3" style="stroke:#038048;stroke-width:1;"/><text fill="#000000" font-family="sans-serif" font-size="14" lengthAdjust="spacing" textLength="154.1777" x="563" y="531.2607">void eraseBook(int id)</text><ellipse cx="554" cy="544.2109" fill="#84BE84" rx="3" ry="3" style="stroke:#038048;stroke-width:1;"/><text fill="#000000" font-family="sans-serif" font-size="14" lengthAdjust="spacing" textLength="186.2178" x="563" y="547.5576">void eraseMegazine(int id)</text><ellipse cx="554" cy="560.5078" fill="#84BE84" rx="3" ry="3" style="stroke:#038048;stroke-width:1;"/><text fill="#000000" font-family="sans-serif" font-size="14" lengthAdjust="spacing" textLength="199.9375" x="563" y="563.8545">void eraseAudiovisual(int id)</text><ellipse cx="554" cy="576.8047" fill="#84BE84" rx="3" ry="3" style="stroke:#038048;stroke-width:1;"/><text fill="#000000" font-family="sans-serif" font-size="14" lengthAdjust="spacing" textLength="192.6914" x="563" y="580.1514">void eraseClassroom(int id)</text><ellipse cx="554" cy="593.1016" fill="#84BE84" rx="3" ry="3" style="stroke:#038048;stroke-width:1;"/><text fill="#000000" font-family="sans-serif" font-size="14" lengthAdjust="spacing" textLength="176.21" x="563" y="596.4482">void eraseMaterial(int id)</text><ellipse cx="554" cy="609.3984" fill="#84BE84" rx="3" ry="3" style="stroke:#038048;stroke-width:1;"/><text fill="#000000" font-family="sans-serif" font-size="14" lengthAdjust="spacing" textLength="162.1348" x="563" y="612.7451">void searchBook(int id)</text><ellipse cx="554" cy="625.6953" fill="#84BE84" rx="3" ry="3" style="stroke:#038048;stroke-width:1;"/><text fill="#000000" font-family="sans-serif" font-size="14" lengthAdjust="spacing" textLength="194.1748" x="563" y="629.042">void searchMegazine(int id)</text><ellipse cx="554" cy="641.9922" fill="#84BE84" rx="3" ry="3" style="stroke:#038048;stroke-width:1;"/><text fill="#000000" font-family="sans-serif" font-size="14" lengthAdjust="spacing" textLength="207.8945" x="563" y="645.3389">void searchAudiovisual(int id)</text><ellipse cx="554" cy="658.2891" fill="#84BE84" rx="3" ry="3" style="stroke:#038048;stroke-width:1;"/><text fill="#000000" font-family="sans-serif" font-size="14" lengthAdjust="spacing" textLength="200.6484" x="563" y="661.6357">void searchClassroom(int id)</text><ellipse cx="554" cy="674.5859" fill="#84BE84" rx="3" ry="3" style="stroke:#038048;stroke-width:1;"/><text fill="#000000" font-family="sans-serif" font-size="14" lengthAdjust="spacing" textLength="184.167" x="563" y="677.9326">void searchMaterial(int id)</text></g><!--class User--><g id="elem_User"><rect codeLine="64" fill="#F1F1F1" height="292.4531" id="User" rx="2.5" ry="2.5" style="stroke:#181818;stroke-width:0.5;" width="309.8281" x="865" y="344"/><ellipse cx="999.709" cy="360" fill="#ADD1B2" rx="11" ry="11" style="stroke:#181818;stroke-width:1;"/><path d="M1002.6777,365.6406 Q1002.0996,365.9375 1001.459,366.0781 Q1000.8184,366.2344 1000.1152,366.2344 Q997.6152,366.2344 996.2871,364.5938 Q994.9746,362.9375 994.9746,359.8125 Q994.9746,356.6875 996.2871,355.0313 Q997.6152,353.375 1000.1152,353.375 Q1000.8184,353.375 1001.459,353.5313 Q1002.1152,353.6875 1002.6777,353.9844 L1002.6777,356.7031 Q1002.0527,356.125 1001.459,355.8594 Q1000.8652,355.5781 1000.2402,355.5781 Q998.8965,355.5781 998.209,356.6563 Q997.5215,357.7188 997.5215,359.8125 Q997.5215,361.9063 998.209,362.9844 Q998.8965,364.0469 1000.2402,364.0469 Q1000.8652,364.0469 1001.459,363.7813 Q1002.0527,363.5 1002.6777,362.9219 L1002.6777,365.6406 Z " fill="#000000"/><text fill="#000000" font-family="sans-serif" font-size="14" lengthAdjust="spacing" textLength="31.9102" x="1020.209" y="364.8467">User</text><line style="stroke:#181818;stroke-width:0.5;" x1="866" x2="1173.8281" y1="376" y2="376"/><ellipse cx="876" cy="389.6484" fill="transparent" rx="3" ry="3" style="stroke:#038048;stroke-width:1;"/><text fill="#000000" font-family="sans-serif" font-size="14" lengthAdjust="spacing" textLength="35.4785" x="885" y="392.9951">int id</text><ellipse cx="876" cy="405.9453" fill="transparent" rx="3" ry="3" style="stroke:#038048;stroke-width:1;"/><text fill="#000000" font-family="sans-serif" font-size="14" lengthAdjust="spacing" textLength="85.9346" x="885" y="409.292">String name</text><ellipse cx="876" cy="422.2422" fill="transparent" rx="3" ry="3" style="stroke:#038048;stroke-width:1;"/><text fill="#000000" font-family="sans-serif" font-size="14" lengthAdjust="spacing" textLength="84.8408" x="885" y="425.5889">String email</text><ellipse cx="876" cy="438.5391" fill="transparent" rx="3" ry="3" style="stroke:#038048;stroke-width:1;"/><text fill="#000000" font-family="sans-serif" font-size="14" lengthAdjust="spacing" textLength="77.5059" x="885" y="441.8857">String type</text><ellipse cx="876" cy="454.8359" fill="transparent" rx="3" ry="3" style="stroke:#038048;stroke-width:1;"/><text fill="#000000" font-family="sans-serif" font-size="14" lengthAdjust="spacing" textLength="92.3672" x="885" y="458.1826">int maxItems</text><ellipse cx="876" cy="471.1328" fill="transparent" rx="3" ry="3" style="stroke:#038048;stroke-width:1;"/><text fill="#000000" font-family="sans-serif" font-size="14" lengthAdjust="spacing" textLength="88.1426" x="885" y="474.4795">int maxDays</text><line style="stroke:#181818;stroke-width:0.5;" x1="866" x2="1173.8281" y1="481.7813" y2="481.7813"/><ellipse cx="876" cy="495.4297" fill="#84BE84" rx="3" ry="3" style="stroke:#038048;stroke-width:1;"/><text fill="#000000" font-family="sans-serif" font-size="14" lengthAdjust="spacing" textLength="283.8281" x="885" y="498.7764">void borrowElement (Elements element)</text><ellipse cx="876" cy="511.7266" fill="#84BE84" rx="3" ry="3" style="stroke:#038048;stroke-width:1;"/><text fill="#000000" font-family="sans-serif" font-size="14" lengthAdjust="spacing" textLength="278.209" x="885" y="515.0732">void returnElement (Elements element)</text><ellipse cx="876" cy="528.0234" fill="#84BE84" rx="3" ry="3" style="stroke:#038048;stroke-width:1;"/><text fill="#000000" font-family="sans-serif" font-size="14" lengthAdjust="spacing" textLength="231.7314" x="885" y="531.3701">void searchElement (String type)</text><ellipse cx="876" cy="544.3203" fill="#84BE84" rx="3" ry="3" style="stroke:#038048;stroke-width:1;"/><text fill="#000000" font-family="sans-serif" font-size="14" lengthAdjust="spacing" textLength="93.1602" x="885" y="547.667">String getId()</text><ellipse cx="876" cy="560.6172" fill="#84BE84" rx="3" ry="3" style="stroke:#038048;stroke-width:1;"/><text fill="#000000" font-family="sans-serif" font-size="14" lengthAdjust="spacing" textLength="138.4209" x="885" y="563.9639">void setId(String id)</text><ellipse cx="876" cy="576.9141" fill="#84BE84" rx="3" ry="3" style="stroke:#038048;stroke-width:1;"/><text fill="#000000" font-family="sans-serif" font-size="14" lengthAdjust="spacing" textLength="121.4473" x="885" y="580.2607">String getName()</text><ellipse cx="876" cy="593.2109" fill="#84BE84" rx="3" ry="3" style="stroke:#038048;stroke-width:1;"/><text fill="#000000" font-family="sans-serif" font-size="14" lengthAdjust="spacing" textLength="193.6348" x="885" y="596.5576">void setName(String name)</text><ellipse cx="876" cy="609.5078" fill="#84BE84" rx="3" ry="3" style="stroke:#038048;stroke-width:1;"/><text fill="#000000" font-family="sans-serif" font-size="14" lengthAdjust="spacing" textLength="118.9863" x="885" y="612.8545">String getEmail()</text><ellipse cx="876" cy="625.8047" fill="#84BE84" rx="3" ry="3" style="stroke:#038048;stroke-width:1;"/><text fill="#000000" font-family="sans-serif" font-size="14" lengthAdjust="spacing" textLength="190.0801" x="885" y="629.1514">void setEmail(String email)</text></g><!--class Book--><g id="elem_Book"><rect codeLine="82" fill="#F1F1F1" height="145.7813" id="Book" rx="2.5" ry="2.5" style="stroke:#181818;stroke-width:0.5;" width="263.0977" x="539.5" y="754"/><ellipse cx="649.3774" cy="770" fill="#ADD1B2" rx="11" ry="11" style="stroke:#181818;stroke-width:1;"/><path d="M652.3462,775.6406 Q651.7681,775.9375 651.1274,776.0781 Q650.4868,776.2344 649.7837,776.2344 Q647.2837,776.2344 645.9556,774.5938 Q644.6431,772.9375 644.6431,769.8125 Q644.6431,766.6875 645.9556,765.0313 Q647.2837,763.375 649.7837,763.375 Q650.4868,763.375 651.1274,763.5313 Q651.7837,763.6875 652.3462,763.9844 L652.3462,766.7031 Q651.7212,766.125 651.1274,765.8594 Q650.5337,765.5781 649.9087,765.5781 Q648.5649,765.5781 647.8774,766.6563 Q647.1899,767.7188 647.1899,769.8125 Q647.1899,771.9063 647.8774,772.9844 Q648.5649,774.0469 649.9087,774.0469 Q650.5337,774.0469 651.1274,773.7813 Q651.7212,773.5 652.3462,772.9219 L652.3462,775.6406 Z " fill="#000000"/><text fill="#000000" font-family="sans-serif" font-size="14" lengthAdjust="spacing" textLength="34.8428" x="669.8774" y="774.8467">Book</text><line style="stroke:#181818;stroke-width:0.5;" x1="540.5" x2="801.5977" y1="786" y2="786"/><ellipse cx="550.5" cy="799.6484" fill="transparent" rx="3" ry="3" style="stroke:#038048;stroke-width:1;"/><text fill="#000000" font-family="sans-serif" font-size="14" lengthAdjust="spacing" textLength="75.1748" x="559.5" y="802.9951">String isbn</text><ellipse cx="550.5" cy="815.9453" fill="transparent" rx="3" ry="3" style="stroke:#038048;stroke-width:1;"/><text fill="#000000" font-family="sans-serif" font-size="14" lengthAdjust="spacing" textLength="95.9014" x="559.5" y="819.292">int numPages</text><line style="stroke:#181818;stroke-width:0.5;" x1="540.5" x2="801.5977" y1="826.5938" y2="826.5938"/><ellipse cx="550.5" cy="840.2422" fill="#84BE84" rx="3" ry="3" style="stroke:#038048;stroke-width:1;"/><text fill="#000000" font-family="sans-serif" font-size="14" lengthAdjust="spacing" textLength="109.3271" x="559.5" y="843.5889">String getIsbn()</text><ellipse cx="550.5" cy="856.5391" fill="#84BE84" rx="3" ry="3" style="stroke:#038048;stroke-width:1;"/><text fill="#000000" font-family="sans-serif" font-size="14" lengthAdjust="spacing" textLength="170.7549" x="559.5" y="859.8857">void setIsbn(String isbn)</text><ellipse cx="550.5" cy="872.8359" fill="#84BE84" rx="3" ry="3" style="stroke:#038048;stroke-width:1;"/><text fill="#000000" font-family="sans-serif" font-size="14" lengthAdjust="spacing" textLength="131.4141" x="559.5" y="876.1826">int getNumPages()</text><ellipse cx="550.5" cy="889.1328" fill="#84BE84" rx="3" ry="3" style="stroke:#038048;stroke-width:1;"/><text fill="#000000" font-family="sans-serif" font-size="14" lengthAdjust="spacing" textLength="237.0977" x="559.5" y="892.4795">void setNumPages(int numPages)</text></g><!--class Magazine--><g id="elem_Magazine"><rect codeLine="109" fill="#F1F1F1" height="145.7813" id="Magazine" rx="2.5" ry="2.5" style="stroke:#181818;stroke-width:0.5;" width="225.9785" x="278" y="754"/><ellipse cx="353.3149" cy="770" fill="#ADD1B2" rx="11" ry="11" style="stroke:#181818;stroke-width:1;"/><path d="M356.2837,775.6406 Q355.7056,775.9375 355.0649,776.0781 Q354.4243,776.2344 353.7212,776.2344 Q351.2212,776.2344 349.8931,774.5938 Q348.5806,772.9375 348.5806,769.8125 Q348.5806,766.6875 349.8931,765.0313 Q351.2212,763.375 353.7212,763.375 Q354.4243,763.375 355.0649,763.5313 Q355.7212,763.6875 356.2837,763.9844 L356.2837,766.7031 Q355.6587,766.125 355.0649,765.8594 Q354.4712,765.5781 353.8462,765.5781 Q352.5024,765.5781 351.8149,766.6563 Q351.1274,767.7188 351.1274,769.8125 Q351.1274,771.9063 351.8149,772.9844 Q352.5024,774.0469 353.8462,774.0469 Q354.4712,774.0469 355.0649,773.7813 Q355.6587,773.5 356.2837,772.9219 L356.2837,775.6406 Z " fill="#000000"/><text fill="#000000" font-family="sans-serif" font-size="14" lengthAdjust="spacing" textLength="66.8486" x="373.8149" y="774.8467">Magazine</text><line style="stroke:#181818;stroke-width:0.5;" x1="279" x2="502.9785" y1="786" y2="786"/><ellipse cx="289" cy="799.6484" fill="transparent" rx="3" ry="3" style="stroke:#038048;stroke-width:1;"/><text fill="#000000" font-family="sans-serif" font-size="14" lengthAdjust="spacing" textLength="73.582" x="298" y="802.9951">String issn</text><ellipse cx="289" cy="815.9453" fill="transparent" rx="3" ry="3" style="stroke:#038048;stroke-width:1;"/><text fill="#000000" font-family="sans-serif" font-size="14" lengthAdjust="spacing" textLength="77.3418" x="298" y="819.292">int number</text><line style="stroke:#181818;stroke-width:0.5;" x1="279" x2="502.9785" y1="826.5938" y2="826.5938"/><ellipse cx="289" cy="840.2422" fill="#84BE84" rx="3" ry="3" style="stroke:#038048;stroke-width:1;"/><text fill="#000000" font-family="sans-serif" font-size="14" lengthAdjust="spacing" textLength="107.7344" x="298" y="843.5889">String getIssn()</text><ellipse cx="289" cy="856.5391" fill="#84BE84" rx="3" ry="3" style="stroke:#038048;stroke-width:1;"/><text fill="#000000" font-family="sans-serif" font-size="14" lengthAdjust="spacing" textLength="167.5693" x="298" y="859.8857">void setIssn(String issn)</text><ellipse cx="289" cy="872.8359" fill="#84BE84" rx="3" ry="3" style="stroke:#038048;stroke-width:1;"/><text fill="#000000" font-family="sans-serif" font-size="14" lengthAdjust="spacing" textLength="112.8545" x="298" y="876.1826">int getNumber()</text><ellipse cx="289" cy="889.1328" fill="#84BE84" rx="3" ry="3" style="stroke:#038048;stroke-width:1;"/><text fill="#000000" font-family="sans-serif" font-size="14" lengthAdjust="spacing" textLength="199.9785" x="298" y="892.4795">void setNumber(int number)</text></g><!--class Material--><g id="elem_Material"><rect codeLine="15" fill="#F1F1F1" height="162.0781" id="Material" rx="2.5" ry="2.5" style="stroke:#181818;stroke-width:0.5;" width="296.2041" x="838" y="746"/><ellipse cx="953.4146" cy="762" fill="#ADD1B2" rx="11" ry="11" style="stroke:#181818;stroke-width:1;"/><path d="M956.3833,767.6406 Q955.8052,767.9375 955.1646,768.0781 Q954.5239,768.2344 953.8208,768.2344 Q951.3208,768.2344 949.9927,766.5938 Q948.6802,764.9375 948.6802,761.8125 Q948.6802,758.6875 949.9927,757.0313 Q951.3208,755.375 953.8208,755.375 Q954.5239,755.375 955.1646,755.5313 Q955.8208,755.6875 956.3833,755.9844 L956.3833,758.7031 Q955.7583,758.125 955.1646,757.8594 Q954.5708,757.5781 953.9458,757.5781 Q952.6021,757.5781 951.9146,758.6563 Q951.2271,759.7188 951.2271,761.8125 Q951.2271,763.9063 951.9146,764.9844 Q952.6021,766.0469 953.9458,766.0469 Q954.5708,766.0469 955.1646,765.7813 Q955.7583,765.5 956.3833,764.9219 L956.3833,767.6406 Z " fill="#000000"/><text fill="#000000" font-family="sans-serif" font-size="14" lengthAdjust="spacing" textLength="56.875" x="973.9146" y="766.8467">Material</text><line style="stroke:#181818;stroke-width:0.5;" x1="839" x2="1133.2041" y1="778" y2="778"/><ellipse cx="849" cy="791.6484" fill="transparent" rx="3" ry="3" style="stroke:#038048;stroke-width:1;"/><text fill="#000000" font-family="sans-serif" font-size="14" lengthAdjust="spacing" textLength="124.0723" x="858" y="794.9951">String description</text><line style="stroke:#181818;stroke-width:0.5;" x1="839" x2="1133.2041" y1="802.2969" y2="802.2969"/><ellipse cx="849" cy="815.9453" fill="#84BE84" rx="3" ry="3" style="stroke:#038048;stroke-width:1;"/><text fill="#000000" font-family="sans-serif" font-size="14" lengthAdjust="spacing" textLength="93.1602" x="858" y="819.292">String getId()</text><ellipse cx="849" cy="832.2422" fill="#84BE84" rx="3" ry="3" style="stroke:#038048;stroke-width:1;"/><text fill="#000000" font-family="sans-serif" font-size="14" lengthAdjust="spacing" textLength="138.4209" x="858" y="835.5889">void setId(String id)</text><ellipse cx="849" cy="848.5391" fill="#84BE84" rx="3" ry="3" style="stroke:#038048;stroke-width:1;"/><text fill="#000000" font-family="sans-serif" font-size="14" lengthAdjust="spacing" textLength="121.4473" x="858" y="851.8857">String getName()</text><ellipse cx="849" cy="864.8359" fill="#84BE84" rx="3" ry="3" style="stroke:#038048;stroke-width:1;"/><text fill="#000000" font-family="sans-serif" font-size="14" lengthAdjust="spacing" textLength="193.6348" x="858" y="868.1826">void setName(String name)</text><ellipse cx="849" cy="881.1328" fill="#84BE84" rx="3" ry="3" style="stroke:#038048;stroke-width:1;"/><text fill="#000000" font-family="sans-serif" font-size="14" lengthAdjust="spacing" textLength="159.8789" x="858" y="884.4795">String getDescription()</text><ellipse cx="849" cy="897.4297" fill="#84BE84" rx="3" ry="3" style="stroke:#038048;stroke-width:1;"/><text fill="#000000" font-family="sans-serif" font-size="14" lengthAdjust="spacing" textLength="270.2041" x="858" y="900.7764">void setDescription(String description)</text></g><!--class Classroom--><g id="elem_Classroom"><rect codeLine="91" fill="#F1F1F1" height="129.4844" id="Classroom" rx="2.5" ry="2.5" style="stroke:#181818;stroke-width:0.5;" width="235.3848" x="1169.5" y="762.5"/><ellipse cx="1246.2642" cy="778.5" fill="#ADD1B2" rx="11" ry="11" style="stroke:#181818;stroke-width:1;"/><path d="M1249.2329,784.1406 Q1248.6548,784.4375 1248.0142,784.5781 Q1247.3735,784.7344 1246.6704,784.7344 Q1244.1704,784.7344 1242.8423,783.0938 Q1241.5298,781.4375 1241.5298,778.3125 Q1241.5298,775.1875 1242.8423,773.5313 Q1244.1704,771.875 1246.6704,771.875 Q1247.3735,771.875 1248.0142,772.0313 Q1248.6704,772.1875 1249.2329,772.4844 L1249.2329,775.2031 Q1248.6079,774.625 1248.0142,774.3594 Q1247.4204,774.0781 1246.7954,774.0781 Q1245.4517,774.0781 1244.7642,775.1563 Q1244.0767,776.2188 1244.0767,778.3125 Q1244.0767,780.4063 1244.7642,781.4844 Q1245.4517,782.5469 1246.7954,782.5469 Q1247.4204,782.5469 1248.0142,782.2813 Q1248.6079,782 1249.2329,781.4219 L1249.2329,784.1406 Z " fill="#000000"/><text fill="#000000" font-family="sans-serif" font-size="14" lengthAdjust="spacing" textLength="73.3564" x="1266.7642" y="783.3467">Classroom</text><line style="stroke:#181818;stroke-width:0.5;" x1="1170.5" x2="1403.8848" y1="794.5" y2="794.5"/><ellipse cx="1180.5" cy="808.1484" fill="transparent" rx="3" ry="3" style="stroke:#038048;stroke-width:1;"/><text fill="#000000" font-family="sans-serif" font-size="14" lengthAdjust="spacing" textLength="81.8057" x="1189.5" y="811.4951">int capacity</text><line style="stroke:#181818;stroke-width:0.5;" x1="1170.5" x2="1403.8848" y1="818.7969" y2="818.7969"/><ellipse cx="1180.5" cy="832.4453" fill="#84BE84" rx="3" ry="3" style="stroke:#038048;stroke-width:1;"/><text fill="#000000" font-family="sans-serif" font-size="14" lengthAdjust="spacing" textLength="93.1602" x="1189.5" y="835.792">String getId()</text><ellipse cx="1180.5" cy="848.7422" fill="#84BE84" rx="3" ry="3" style="stroke:#038048;stroke-width:1;"/><text fill="#000000" font-family="sans-serif" font-size="14" lengthAdjust="spacing" textLength="138.4209" x="1189.5" y="852.0889">void setId(String id)</text><ellipse cx="1180.5" cy="865.0391" fill="#84BE84" rx="3" ry="3" style="stroke:#038048;stroke-width:1;"/><text fill="#000000" font-family="sans-serif" font-size="14" lengthAdjust="spacing" textLength="117.7969" x="1189.5" y="868.3857">int getCapacity()</text><ellipse cx="1180.5" cy="881.3359" fill="#84BE84" rx="3" ry="3" style="stroke:#038048;stroke-width:1;"/><text fill="#000000" font-family="sans-serif" font-size="14" lengthAdjust="spacing" textLength="209.3848" x="1189.5" y="884.6826">void setCapacity(int capacity)</text></g><!--class Audiovisual--><g id="elem_Audiovisual"><rect codeLine="118" fill="#F1F1F1" height="145.7813" id="Audiovisual" rx="2.5" ry="2.5" style="stroke:#181818;stroke-width:0.5;" width="235.665" x="7" y="754"/><ellipse cx="80.2813" cy="770" fill="#ADD1B2" rx="11" ry="11" style="stroke:#181818;stroke-width:1;"/><path d="M83.25,775.6406 Q82.6719,775.9375 82.0313,776.0781 Q81.3906,776.2344 80.6875,776.2344 Q78.1875,776.2344 76.8594,774.5938 Q75.5469,772.9375 75.5469,769.8125 Q75.5469,766.6875 76.8594,765.0313 Q78.1875,763.375 80.6875,763.375 Q81.3906,763.375 82.0313,763.5313 Q82.6875,763.6875 83.25,763.9844 L83.25,766.7031 Q82.625,766.125 82.0313,765.8594 Q81.4375,765.5781 80.8125,765.5781 Q79.4688,765.5781 78.7813,766.6563 Q78.0938,767.7188 78.0938,769.8125 Q78.0938,771.9063 78.7813,772.9844 Q79.4688,774.0469 80.8125,774.0469 Q81.4375,774.0469 82.0313,773.7813 Q82.625,773.5 83.25,772.9219 L83.25,775.6406 Z " fill="#000000"/><text fill="#000000" font-family="sans-serif" font-size="14" lengthAdjust="spacing" textLength="80.6025" x="100.7813" y="774.8467">Audiovisual</text><line style="stroke:#181818;stroke-width:0.5;" x1="8" x2="241.665" y1="786" y2="786"/><ellipse cx="18" cy="799.6484" fill="transparent" rx="3" ry="3" style="stroke:#038048;stroke-width:1;"/><text fill="#000000" font-family="sans-serif" font-size="14" lengthAdjust="spacing" textLength="93.1875" x="27" y="802.9951">String format</text><ellipse cx="18" cy="815.9453" fill="transparent" rx="3" ry="3" style="stroke:#038048;stroke-width:1;"/><text fill="#000000" font-family="sans-serif" font-size="14" lengthAdjust="spacing" textLength="81.6143" x="27" y="819.292">int duration</text><line style="stroke:#181818;stroke-width:0.5;" x1="8" x2="241.665" y1="826.5938" y2="826.5938"/><ellipse cx="18" cy="840.2422" fill="#84BE84" rx="3" ry="3" style="stroke:#038048;stroke-width:1;"/><text fill="#000000" font-family="sans-serif" font-size="14" lengthAdjust="spacing" textLength="130.2246" x="27" y="843.5889">String getFormat()</text><ellipse cx="18" cy="856.5391" fill="#84BE84" rx="3" ry="3" style="stroke:#038048;stroke-width:1;"/><text fill="#000000" font-family="sans-serif" font-size="14" lengthAdjust="spacing" textLength="209.665" x="27" y="859.8857">void setFormat(String format)</text><ellipse cx="18" cy="872.8359" fill="#84BE84" rx="3" ry="3" style="stroke:#038048;stroke-width:1;"/><text fill="#000000" font-family="sans-serif" font-size="14" lengthAdjust="spacing" textLength="117.4209" x="27" y="876.1826">int getDuration()</text><ellipse cx="18" cy="889.1328" fill="#84BE84" rx="3" ry="3" style="stroke:#038048;stroke-width:1;"/><text fill="#000000" font-family="sans-serif" font-size="14" lengthAdjust="spacing" textLength="208.8174" x="27" y="892.4795">void setDuration(int duration)</text></g><!--class Service--><g id="elem_Service"><rect codeLine="99" fill="#F1F1F1" height="162.0781" id="Service" rx="2.5" ry="2.5" style="stroke:#181818;stroke-width:0.5;" width="192.708" x="1040.5" y="1001.5"/><ellipse cx="1106.7334" cy="1017.5" fill="#A9DCDF" rx="11" ry="11" style="stroke:#181818;stroke-width:1;"/><path d="M1106.8428,1012.8438 L1105.6865,1017.9219 L1108.0146,1017.9219 L1106.8428,1012.8438 Z M1105.3584,1010.6094 L1108.3428,1010.6094 L1111.7021,1023 L1109.249,1023 L1108.4834,1019.9375 L1105.2021,1019.9375 L1104.4521,1023 L1102.0146,1023 L1105.3584,1010.6094 Z " fill="#000000"/><text fill="#000000" font-family="sans-serif" font-size="14" font-style="italic" lengthAdjust="spacing" textLength="51.7412" x="1127.2334" y="1022.3467">Service</text><line style="stroke:#181818;stroke-width:0.5;" x1="1041.5" x2="1232.208" y1="1033.5" y2="1033.5"/><ellipse cx="1051.5" cy="1047.1484" fill="transparent" rx="3" ry="3" style="stroke:#038048;stroke-width:1;"/><text fill="#000000" font-family="sans-serif" font-size="14" lengthAdjust="spacing" textLength="35.4785" x="1060.5" y="1050.4951">int id</text><ellipse cx="1051.5" cy="1063.4453" fill="transparent" rx="3" ry="3" style="stroke:#038048;stroke-width:1;"/><text fill="#000000" font-family="sans-serif" font-size="14" lengthAdjust="spacing" textLength="85.9346" x="1060.5" y="1066.792">String name</text><ellipse cx="1051.5" cy="1079.7422" fill="transparent" rx="3" ry="3" style="stroke:#038048;stroke-width:1;"/><text fill="#000000" font-family="sans-serif" font-size="14" lengthAdjust="spacing" textLength="123.6143" x="1060.5" y="1083.0889">boolean available</text><line style="stroke:#181818;stroke-width:0.5;" x1="1041.5" x2="1232.208" y1="1090.3906" y2="1090.3906"/><ellipse cx="1051.5" cy="1104.0391" fill="#84BE84" rx="3" ry="3" style="stroke:#038048;stroke-width:1;"/><text fill="#000000" font-family="sans-serif" font-size="14" lengthAdjust="spacing" textLength="93.1602" x="1060.5" y="1107.3857">String getId()</text><ellipse cx="1051.5" cy="1120.3359" fill="#84BE84" rx="3" ry="3" style="stroke:#038048;stroke-width:1;"/><text fill="#000000" font-family="sans-serif" font-size="14" lengthAdjust="spacing" textLength="138.4209" x="1060.5" y="1123.6826">void setId(String id)</text><ellipse cx="1051.5" cy="1136.6328" fill="#84BE84" rx="3" ry="3" style="stroke:#038048;stroke-width:1;"/><text fill="#000000" font-family="sans-serif" font-size="14" lengthAdjust="spacing" textLength="121.4473" x="1060.5" y="1139.9795">String getName()</text><ellipse cx="1051.5" cy="1152.9297" fill="#84BE84" rx="3" ry="3" style="stroke:#038048;stroke-width:1;"/><text fill="#000000" font-family="sans-serif" font-size="14" lengthAdjust="spacing" textLength="166.708" x="1060.5" y="1156.2764">void setName(String id)</text></g><!--class Document--><g id="elem_Document"><rect codeLine="49" fill="#F1F1F1" height="227.2656" id="Document" rx="2.5" ry="2.5" style="stroke:#181818;stroke-width:0.5;" width="198.5391" x="291.5" y="969"/><ellipse cx="350.2549" cy="985" fill="#A9DCDF" rx="11" ry="11" style="stroke:#181818;stroke-width:1;"/><path d="M350.3643,980.3438 L349.208,985.4219 L351.5361,985.4219 L350.3643,980.3438 Z M348.8799,978.1094 L351.8643,978.1094 L355.2236,990.5 L352.7705,990.5 L352.0049,987.4375 L348.7236,987.4375 L347.9736,990.5 L345.5361,990.5 L348.8799,978.1094 Z " fill="#000000"/><text fill="#000000" font-family="sans-serif" font-size="14" font-style="italic" lengthAdjust="spacing" textLength="72.5293" x="370.7549" y="989.8467">Document</text><line style="stroke:#181818;stroke-width:0.5;" x1="292.5" x2="489.0391" y1="1001" y2="1001"/><ellipse cx="302.5" cy="1014.6484" fill="transparent" rx="3" ry="3" style="stroke:#038048;stroke-width:1;"/><text fill="#000000" font-family="sans-serif" font-size="14" lengthAdjust="spacing" textLength="35.4785" x="311.5" y="1017.9951">int id</text><ellipse cx="302.5" cy="1030.9453" fill="transparent" rx="3" ry="3" style="stroke:#038048;stroke-width:1;"/><text fill="#000000" font-family="sans-serif" font-size="14" lengthAdjust="spacing" textLength="73.6025" x="311.5" y="1034.292">String title</text><ellipse cx="302.5" cy="1047.2422" fill="transparent" rx="3" ry="3" style="stroke:#038048;stroke-width:1;"/><text fill="#000000" font-family="sans-serif" font-size="14" lengthAdjust="spacing" textLength="92.3672" x="311.5" y="1050.5889">String author</text><ellipse cx="302.5" cy="1063.5391" fill="transparent" rx="3" ry="3" style="stroke:#038048;stroke-width:1;"/><text fill="#000000" font-family="sans-serif" font-size="14" lengthAdjust="spacing" textLength="131.7217" x="311.5" y="1066.8857">int publicationYear</text><ellipse cx="302.5" cy="1079.8359" fill="transparent" rx="3" ry="3" style="stroke:#038048;stroke-width:1;"/><text fill="#000000" font-family="sans-serif" font-size="14" lengthAdjust="spacing" textLength="123.6143" x="311.5" y="1083.1826">boolean available</text><line style="stroke:#181818;stroke-width:0.5;" x1="292.5" x2="489.0391" y1="1090.4844" y2="1090.4844"/><ellipse cx="302.5" cy="1104.1328" fill="#84BE84" rx="3" ry="3" style="stroke:#038048;stroke-width:1;"/><text fill="#000000" font-family="sans-serif" font-size="14" lengthAdjust="spacing" textLength="93.1602" x="311.5" y="1107.4795">String getId()</text><ellipse cx="302.5" cy="1120.4297" fill="#84BE84" rx="3" ry="3" style="stroke:#038048;stroke-width:1;"/><text fill="#000000" font-family="sans-serif" font-size="14" lengthAdjust="spacing" textLength="138.4209" x="311.5" y="1123.7764">void setId(String id)</text><ellipse cx="302.5" cy="1136.7266" fill="#84BE84" rx="3" ry="3" style="stroke:#038048;stroke-width:1;"/><text fill="#000000" font-family="sans-serif" font-size="14" lengthAdjust="spacing" textLength="110.5781" x="311.5" y="1140.0732">String getTitle()</text><ellipse cx="302.5" cy="1153.0234" fill="#84BE84" rx="3" ry="3" style="stroke:#038048;stroke-width:1;"/><text fill="#000000" font-family="sans-serif" font-size="14" lengthAdjust="spacing" textLength="155.8389" x="311.5" y="1156.3701">void setTitle(String id)</text><ellipse cx="302.5" cy="1169.3203" fill="#84BE84" rx="3" ry="3" style="stroke:#038048;stroke-width:1;"/><text fill="#000000" font-family="sans-serif" font-size="14" lengthAdjust="spacing" textLength="127.2783" x="311.5" y="1172.667">String getAuthor()</text><ellipse cx="302.5" cy="1185.6172" fill="#84BE84" rx="3" ry="3" style="stroke:#038048;stroke-width:1;"/><text fill="#000000" font-family="sans-serif" font-size="14" lengthAdjust="spacing" textLength="172.5391" x="311.5" y="1188.9639">void setAuthor(String id)</text></g><!--reverse link LibraryManager to Elements--><g id="link_LibraryManager_Elements"><path codeLine="1" d="M786.5949,244.8558 C777.4049,264.2658 772.75,274.1 762.88,294.94 " fill="transparent" id="LibraryManager-backto-Elements" style="stroke:#181818;stroke-width:1;"/><polygon fill="transparent" points="791.73,234.01,785.5472,237.7212,786.5949,244.8558,792.7777,241.1446,791.73,234.01" style="stroke:#181818;stroke-width:1;"/></g><!--link LibraryManager to User--><g id="link_LibraryManager_User"><path codeLine="2" d="M898.58,234.01 C915.06,268.62 928.2811,296.3855 945.6511,332.8655 " fill="transparent" id="LibraryManager-to-User" style="stroke:#181818;stroke-width:1;"/><polygon fill="transparent" points="950.81,343.7,951.8421,336.5631,945.6511,332.8655,944.6191,340.0024,950.81,343.7" style="stroke:#181818;stroke-width:1;"/></g><!--reverse link Elements to User--><g id="link_Elements_User"><path codeLine="3" d="M805.47,490 C826.75,490 843.02,490 864.87,490 " fill="transparent" id="Elements-backto-User" style="stroke:#181818;stroke-width:1;stroke-dasharray:7.0,7.0;"/><polygon fill="#181818" points="799.47,490,808.47,494,804.47,490,808.47,486,799.47,490" style="stroke:#181818;stroke-width:1;"/><text fill="#000000" font-family="sans-serif" font-size="13" lengthAdjust="spacing" textLength="29.7832" x="817.5" y="483.0669">uses</text></g><!--reverse link Elements to Book--><g id="link_Elements_Book"><path codeLine="4" d="M671,697.39 C671,721.63 671,733.11 671,753.7 " fill="transparent" id="Elements-backto-Book" style="stroke:#181818;stroke-width:1;"/><polygon fill="#181818" points="671,685.39,667,691.39,671,697.39,675,691.39,671,685.39" style="stroke:#181818;stroke-width:1;"/></g><!--reverse link Elements to Magazine--><g id="link_Elements_Magazine"><path codeLine="5" d="M535.1843,653.4874 C503.2143,691.7374 478.11,721.77 451.21,753.96 " fill="transparent" id="Elements-backto-Magazine" style="stroke:#181818;stroke-width:1;"/><polygon fill="#181818" points="542.88,644.28,535.963,646.3185,535.1843,653.4874,542.1013,651.4489,542.88,644.28" style="stroke:#181818;stroke-width:1;"/></g><!--reverse link Elements to Material--><g id="link_Elements_Material"><path codeLine="6" d="M807.2527,642.433 C823.2627,659.843 831.38,668.48 847,685 C865.78,704.85 886.3,725.98 905.67,745.66 " fill="transparent" id="Elements-backto-Material" style="stroke:#181818;stroke-width:1;"/><polygon fill="#181818" points="799.13,633.6,800.247,640.7241,807.2527,642.433,806.1357,635.3089,799.13,633.6" style="stroke:#181818;stroke-width:1;"/></g><!--reverse link Elements to Classroom--><g id="link_Elements_Classroom"><path codeLine="7" d="M808.375,658.8515 C823.425,671.6715 830.29,675.52 847,685 C967.26,753.17 1022.92,696.5 1152,746 C1164.08,750.63 1176.33,756.3 1188.26,762.46 " fill="transparent" id="Elements-backto-Classroom" style="stroke:#181818;stroke-width:1;"/><polygon fill="#181818" points="799.24,651.07,801.2137,658.0057,808.375,658.8515,806.4013,651.9157,799.24,651.07" style="stroke:#181818;stroke-width:1;"/></g><!--reverse link Elements to Audiovisual--><g id="link_Elements_Audiovisual"><path codeLine="8" d="M532.7619,575.8159 C441.8219,631.6159 330.88,699.68 242.43,753.95 " fill="transparent" id="Elements-backto-Audiovisual" style="stroke:#181818;stroke-width:1;"/><polygon fill="#181818" points="542.99,569.54,535.784,569.2686,532.7619,575.8159,539.9679,576.0873,542.99,569.54" style="stroke:#181818;stroke-width:1;"/></g><!--link Classroom to Service--><g id="link_Classroom_Service"><path codeLine="9" d="M1249.34,891.64 C1229.64,924.93 1214.4982,950.5399 1193.5282,985.9699 " fill="transparent" id="Classroom-to-Service" style="stroke:#181818;stroke-width:1;"/><polygon fill="transparent" points="1184.36,1001.46,1198.6916,989.0259,1188.3648,982.9138,1184.36,1001.46" style="stroke:#181818;stroke-width:1;"/></g><!--link Material to Service--><g id="link_Material_Service"><path codeLine="10" d="M1033.78,908.21 C1051.49,937.95 1062.3619,956.1835 1080.0619,985.9135 " fill="transparent" id="Material-to-Service" style="stroke:#181818;stroke-width:1;"/><polygon fill="transparent" points="1089.27,1001.38,1085.2174,982.8442,1074.9064,988.9829,1089.27,1001.38" style="stroke:#181818;stroke-width:1;"/></g><!--link Book to Document--><g id="link_Book_Document"><path codeLine="11" d="M591.14,900.3 C559.86,928.62 536.9818,949.3271 504.0218,979.1771 " fill="transparent" id="Book-to-Document" style="stroke:#181818;stroke-width:1;"/><polygon fill="transparent" points="490.68,991.26,508.0494,983.6244,499.9942,974.7298,490.68,991.26" style="stroke:#181818;stroke-width:1;"/></g><!--link Magazine to Document--><g id="link_Magazine_Document"><path codeLine="12" d="M391,900.3 C391,921.67 391,927.58 391,950.86 " fill="transparent" id="Magazine-to-Document" style="stroke:#181818;stroke-width:1;"/><polygon fill="transparent" points="391,968.86,397,950.86,385,950.86,391,968.86" style="stroke:#181818;stroke-width:1;"/></g><!--link Audiovisual to Document--><g id="link_Audiovisual_Document"><path codeLine="13" d="M200.87,900.3 C228.97,927.08 248.2386,945.4529 278.1486,973.9529 " fill="transparent" id="Audiovisual-to-Document" style="stroke:#181818;stroke-width:1;"/><polygon fill="transparent" points="291.18,986.37,282.2876,969.6092,274.0096,978.2967,291.18,986.37" style="stroke:#181818;stroke-width:1;"/></g><!--SRC=[nLRBZjCm5DttAxniGPqF65MLXkaWZTGYf845ovlaJcgHn9Nj5Ch0lsF7Z_YHblAGw2ezztNkiNtjBIquyDCEEgYH4xPSaeS6M-oac6rZstB9o4U1VEOSoEg6qtelRmQOt99Ue1YjhrIkDunzZf4TrF2DTfYY4Zc59aRl6n22CzR6y5rVKNQaebV-JyYFj4Io-hxi3s54Ol05DgpiTIfd61Yce2UP6iBIir8Nyvd9ouoet-idoMbNamf5oUb1KjP5U8toiPel37Paj29YGAoPLelK_Hsqc0OCc7Nfr7SMj1dBfx6XAIUxcFrmdNdHRMTKwK0hyzrQXSGjsL8XLqwnDJ7sGidgR5fYXqC3euJM7eYwTjcDfZwv-MkjfLjaQ_QBlWuQXQhITQFc5UPufdZ08JNvz7akGol2aOF0eRAHAxFjq38uOm-Pd74P6PshuPZbTe70o_qPWiPuWQ5nk4pH-5pYQCka9DN6Wq983gKaPWVwupUn0-tMbLGs627GoptZOy2XBnfQWjxSdrHXlpyRX8x04MW3HPBYzm_f1qqZZJ3W-Q2xWMaQPT4aR3oMmx0zBuWU1n60hMenrknqm36-XQ-F4biH8HiuYO1MmJXdN-n087C_6T1yX1rmb3tlhd8r-y2x1kmM_sDcFcYXqYW3Xb864r8VesJkKr5qev9TtxvNbwV8sb5UMKCQ2x8inZIw8vifwyhXORc0eZ-7uPOfuG0bbQS_KjaIkhSvqWYFXuMc3hUxeQ_Pol_wkFvgVzXnv6vuCm-pbHRnIXV8ytKM4-iiWdKM-JghF1EhhD6nK40lcCO9msV6rKqwfgzw3bCFahU3NrhJeb6kcEl6vijU60uFYmQCauVbo-NvLL6EvKZRtRvsR5mSC9N295xZ6OsYYKbaHrkjtXl8zGIU3sDOlNXvNd3I_hSFEgT29hOtf7efnNy2]--></g></svg>