<svg xmlns="http://www.w3.org/2000/svg" xmlns:xlink="http://www.w3.org/1999/xlink" contentStyleType="text/css" data-diagram-type="CLASS" height="425px" preserveAspectRatio="none" style="width:915px;height:425px;background:#FFFFFF;" version="1.1" viewBox="0 0 915 425" width="915px" zoomAndPan="magnify"><title>Gesti&#243;n de Biblioteca</title><defs/><g><text fill="#000000" font-family="sans-serif" font-size="14" font-weight="bold" lengthAdjust="spacing" textLength="168.3008" x="366.4653" y="22.9951">Gesti&#243;n de Biblioteca</text><g id="elem_mujercitas"><rect fill="#F1F1F1" height="36.2969" rx="2.5" ry="2.5" style="stroke:#181818;stroke-width:0.5;" width="136.1787" x="7" y="383.2969"/><text fill="#000000" font-family="sans-serif" font-size="14" lengthAdjust="spacing" textLength="122.1787" x="14" y="398.292">mujercitas : Book</text><line style="stroke:#181818;stroke-width:0.5;" x1="8" x2="142.1787" y1="403.5938" y2="403.5938"/></g><g id="elem_revista1"><rect fill="#F1F1F1" height="36.2969" rx="2.5" ry="2.5" style="stroke:#181818;stroke-width:0.5;" width="151.2793" x="178.5" y="383.2969"/><text fill="#000000" font-family="sans-serif" font-size="14" lengthAdjust="spacing" textLength="137.2793" x="185.5" y="398.292">revista1 : Magazine</text><line style="stroke:#181818;stroke-width:0.5;" x1="179.5" x2="328.7793" y1="403.5938" y2="403.5938"/></g><g id="elem_camara"><rect fill="#F1F1F1" height="36.2969" rx="2.5" ry="2.5" style="stroke:#181818;stroke-width:0.5;" width="137.3203" x="364.5" y="383.2969"/><text fill="#000000" font-family="sans-serif" font-size="14" lengthAdjust="spacing" textLength="123.3203" x="371.5" y="398.292">camara : Material</text><line style="stroke:#181818;stroke-width:0.5;" x1="365.5" x2="500.8203" y1="403.5938" y2="403.5938"/></g><g id="elem_aula1"><rect fill="#F1F1F1" height="36.2969" rx="2.5" ry="2.5" style="stroke:#181818;stroke-width:0.5;" width="139.8018" x="537" y="383.2969"/><text fill="#000000" font-family="sans-serif" font-size="14" lengthAdjust="spacing" textLength="125.8018" x="544" y="398.292">aula1 : Classroom</text><line style="stroke:#181818;stroke-width:0.5;" x1="538" x2="675.8018" y1="403.5938" y2="403.5938"/></g><g id="elem_audiovisual1"><rect fill="#F1F1F1" height="36.2969" rx="2.5" ry="2.5" style="stroke:#181818;stroke-width:0.5;" width="196.7314" x="712.5" y="383.2969"/><text fill="#000000" font-family="sans-serif" font-size="14" lengthAdjust="spacing" textLength="182.7314" x="719.5" y="398.292">audiovisual1 : Audiovisual</text><line style="stroke:#181818;stroke-width:0.5;" x1="713.5" x2="908.2314" y1="403.5938" y2="403.5938"/></g><g id="elem_profesor"><rect fill="#F1F1F1" height="36.2969" rx="2.5" ry="2.5" style="stroke:#181818;stroke-width:0.5;" width="120.2646" x="308" y="157.2969"/><text fill="#000000" font-family="sans-serif" font-size="14" lengthAdjust="spacing" textLength="106.2646" x="315" y="172.292">usuario1 : User</text><line style="stroke:#181818;stroke-width:0.5;" x1="309" x2="427.2646" y1="177.5938" y2="177.5938"/></g><g id="elem_bibliotecario1"><rect fill="#F1F1F1" height="36.2969" rx="2.5" ry="2.5" style="stroke:#181818;stroke-width:0.5;" width="233.4404" x="316.5" y="44.2969"/><text fill="#000000" font-family="sans-serif" font-size="14" lengthAdjust="spacing" textLength="219.4404" x="323.5" y="59.292">bibliotecario1 : LibraryManager</text><line style="stroke:#181818;stroke-width:0.5;" x1="317.5" x2="548.9404" y1="64.5938" y2="64.5938"/></g><g id="elem_elementos1"><rect fill="#F1F1F1" height="36.2969" rx="2.5" ry="2.5" style="stroke:#181818;stroke-width:0.5;" width="175.3691" x="345.5" y="270.2969"/><text fill="#000000" font-family="sans-serif" font-size="14" lengthAdjust="spacing" textLength="161.3691" x="352.5" y="285.292">elementos1 : Elements</text><line style="stroke:#181818;stroke-width:0.5;" x1="346.5" x2="519.8691" y1="290.5938" y2="290.5938"/></g><!--link bibliotecario1 to elementos1--><g id="link_bibliotecario1_elementos1"><path codeLine="12" d="M448.56,80.7069 C454.98,89.0469 461.69,99.5469 465,110.2969 C482.61,167.4469 460.9369,227.2131 446.3869,259.2131 " fill="transparent" id="bibliotecario1-to-elementos1" style="stroke:#181818;stroke-width:1;"/><polygon fill="#181818" points="441.42,270.1369,447.5447,266.3306,446.3869,259.2131,440.2622,263.0193,441.42,270.1369" style="stroke:#181818;stroke-width:1;"/><text fill="#000000" font-family="sans-serif" font-size="13" lengthAdjust="spacing" textLength="55.8911" x="472" y="179.8638">gestiona</text></g><!--link bibliotecario1 to profesor--><g id="link_bibliotecario1_profesor"><path codeLine="13" d="M422.84,80.6369 C410.63,101.4969 396.3238,125.9217 384.1438,146.7217 " fill="transparent" id="bibliotecario1-to-profesor" style="stroke:#181818;stroke-width:1;"/><polygon fill="transparent" points="378.08,157.0769,384.5636,153.9205,384.1438,146.7217,377.6601,149.878,378.08,157.0769" style="stroke:#181818;stroke-width:1;"/><text fill="#000000" font-family="sans-serif" font-size="13" lengthAdjust="spacing" textLength="50.3877" x="406" y="123.3638">registra</text></g><!--reverse link elementos1 to mujercitas--><g id="link_elementos1_mujercitas"><path codeLine="15" d="M358.5664,309.5736 C327.4464,318.2036 300.92,325.8469 267,336.2969 C218.14,351.3469 162.8,369.9669 124.13,383.2269 " fill="transparent" id="elementos1-backto-mujercitas" style="stroke:#181818;stroke-width:1;"/><polygon fill="transparent" points="370.13,306.3669,363.2793,304.1157,358.5664,309.5736,365.4171,311.8248,370.13,306.3669" style="stroke:#181818;stroke-width:1;"/><text fill="#000000" font-family="sans-serif" font-size="13" lengthAdjust="spacing" textLength="56.2847" x="268" y="349.3638">contiene</text></g><!--reverse link elementos1 to revista1--><g id="link_elementos1_revista1"><path codeLine="16" d="M395.2224,312.7222 C361.5924,333.5822 315.26,362.3069 281.61,383.1769 " fill="transparent" id="elementos1-backto-revista1" style="stroke:#181818;stroke-width:1;"/><polygon fill="transparent" points="405.42,306.3969,398.2128,306.1604,395.2224,312.7222,402.4297,312.9587,405.42,306.3969" style="stroke:#181818;stroke-width:1;"/><text fill="#000000" font-family="sans-serif" font-size="13" lengthAdjust="spacing" textLength="56.2847" x="356" y="349.3638">contiene</text></g><!--reverse link elementos1 to camara--><g id="link_elementos1_camara"><path codeLine="17" d="M433,318.6369 C433,339.4969 433,362.2769 433,383.0769 " fill="transparent" id="elementos1-backto-camara" style="stroke:#181818;stroke-width:1;"/><polygon fill="transparent" points="433,306.6369,429,312.6369,433,318.6369,437,312.6369,433,306.6369" style="stroke:#181818;stroke-width:1;"/><text fill="#000000" font-family="sans-serif" font-size="13" lengthAdjust="spacing" textLength="56.2847" x="434" y="349.3638">contiene</text></g><!--reverse link elementos1 to aula1--><g id="link_elementos1_aula1"><path codeLine="18" d="M469.9259,312.852 C502.6159,333.712 547.45,362.3069 580.16,383.1769 " fill="transparent" id="elementos1-backto-aula1" style="stroke:#181818;stroke-width:1;"/><polygon fill="transparent" points="459.81,306.3969,462.7162,312.9964,469.9259,312.852,467.0197,306.2525,459.81,306.3969" style="stroke:#181818;stroke-width:1;"/><text fill="#000000" font-family="sans-serif" font-size="13" lengthAdjust="spacing" textLength="56.2847" x="531" y="349.3638">contiene</text></g><!--reverse link elementos1 to audiovisual1--><g id="link_elementos1_audiovisual1"><path codeLine="19" d="M504.1843,309.6773 C535.0543,318.5373 561.8,326.2769 596,336.2969 C649.63,352.0069 710.69,370.2169 754,383.1869 " fill="transparent" id="elementos1-backto-audiovisual1" style="stroke:#181818;stroke-width:1;"/><polygon fill="transparent" points="492.65,306.3669,497.3137,311.8669,504.1843,309.6773,499.5207,304.1773,492.65,306.3669" style="stroke:#181818;stroke-width:1;"/><text fill="#000000" font-family="sans-serif" font-size="13" lengthAdjust="spacing" textLength="56.2847" x="650" y="349.3638">contiene</text></g><!--link profesor to elementos1--><g id="link_profesor_elementos1"><path codeLine="23" d="M378.16,193.6369 C390.37,214.4969 407.7081,244.0993 419.8881,264.8993 " fill="transparent" id="profesor-to-elementos1" style="stroke:#181818;stroke-width:1;"/><polygon fill="#181818" points="422.92,270.0769,421.8239,260.2892,420.3934,265.7622,414.9204,264.3317,422.92,270.0769" style="stroke:#181818;stroke-width:1;"/><text fill="#000000" font-family="sans-serif" font-size="13" lengthAdjust="spacing" textLength="22.9785" x="406" y="236.3638">usa</text></g><!--SRC=[VT7DJiGW40VmUv-2S3JXuDM3YMkC5_Uu3p1bnsPMofW1JFIrV0HVJ62xzCEiFPNXDqFBFr9qg9unHFhvzkg8QaUz8uveeUkuFw6DIe_fX68fGb1tQiVyfbL-dQiD2dvGY72RsHu6-2AFbLxg3LeOGQ2oY4BWAZjN6uBawgX71o48yrXHhIxCaJWFJ-0AVPYN4vwtMq_AIo4k_X1GAdmNViN0qb3Vxc6YBzGBoESUF0nJqzgqLdGueeySIjlJUH5gmxpJTPi3ZBbHgqOzb5JOW_vBkNrlWO93lbt9i5jCO6FKAZXjsKV27CcMBMAxZbfaryabiF_4Agu5p4_x9sFkDtUH0kXV]--></g></svg>