<svg xmlns="http://www.w3.org/2000/svg" xmlns:xlink="http://www.w3.org/1999/xlink" contentStyleType="text/css" data-diagram-type="CLASS" height="1312px" preserveAspectRatio="none" style="width:1567px;height:1312px;background:#FFFFFF;" version="1.1" viewBox="0 0 1567 1312" width="1567px" zoomAndPan="magnify"><defs/><g><!--class Main--><g id="elem_Main"><rect codeLine="134" fill="#F1F1F1" height="96.8906" id="Main" rx="2.5" ry="2.5" style="stroke:#181818;stroke-width:0.5;" width="247.1768" x="953.5" y="7"/><ellipse cx="1056.1279" cy="23" fill="#ADD1B2" rx="11" ry="11" style="stroke:#181818;stroke-width:1;"/><path d="M1059.0967,28.6406 Q1058.5186,28.9375 1057.8779,29.0781 Q1057.2373,29.2344 1056.5342,29.2344 Q1054.0342,29.2344 1052.7061,27.5938 Q1051.3936,25.9375 1051.3936,22.8125 Q1051.3936,19.6875 1052.7061,18.0313 Q1054.0342,16.375 1056.5342,16.375 Q1057.2373,16.375 1057.8779,16.5313 Q1058.5342,16.6875 1059.0967,16.9844 L1059.0967,19.7031 Q1058.4717,19.125 1057.8779,18.8594 Q1057.2842,18.5781 1056.6592,18.5781 Q1055.3154,18.5781 1054.6279,19.6563 Q1053.9404,20.7188 1053.9404,22.8125 Q1053.9404,24.9063 1054.6279,25.9844 Q1055.3154,27.0469 1056.6592,27.0469 Q1057.2842,27.0469 1057.8779,26.7813 Q1058.4717,26.5 1059.0967,25.9219 L1059.0967,28.6406 Z " fill="#000000"/><text fill="#000000" font-family="sans-serif" font-size="14" lengthAdjust="spacing" textLength="33.4209" x="1076.6279" y="27.8467">Main</text><line style="stroke:#181818;stroke-width:0.5;" x1="954.5" x2="1199.6768" y1="39" y2="39"/><ellipse cx="964.5" cy="52.6484" fill="transparent" rx="3" ry="3" style="stroke:#038048;stroke-width:1;"/><text fill="#000000" font-family="sans-serif" font-size="14" lengthAdjust="spacing" textLength="221.1768" x="973.5" y="55.9951">LibraryManager libraryManager</text><line style="stroke:#181818;stroke-width:0.5;" x1="954.5" x2="1199.6768" y1="63.2969" y2="63.2969"/><ellipse cx="964.5" cy="76.9453" fill="#84BE84" rx="3" ry="3" style="stroke:#038048;stroke-width:1;"/><text fill="#000000" font-family="sans-serif" font-size="14" lengthAdjust="spacing" textLength="210.54" x="973.5" y="80.292">static void main(String[] args)</text><ellipse cx="964.5" cy="93.2422" fill="#84BE84" rx="3" ry="3" style="stroke:#038048;stroke-width:1;"/><text fill="#000000" font-family="sans-serif" font-size="14" lengthAdjust="spacing" textLength="152.1816" x="973.5" y="96.5889">void startSimulation()</text></g><!--class LibraryManager--><g id="elem_LibraryManager"><rect codeLine="123" fill="#F1F1F1" height="178.375" id="LibraryManager" rx="2.5" ry="2.5" style="stroke:#181818;stroke-width:0.5;" width="395.3457" x="879.5" y="181"/><ellipse cx="1017.7637" cy="197" fill="#ADD1B2" rx="11" ry="11" style="stroke:#181818;stroke-width:1;"/><path d="M1020.7324,202.6406 Q1020.1543,202.9375 1019.5137,203.0781 Q1018.873,203.2344 1018.1699,203.2344 Q1015.6699,203.2344 1014.3418,201.5938 Q1013.0293,199.9375 1013.0293,196.8125 Q1013.0293,193.6875 1014.3418,192.0313 Q1015.6699,190.375 1018.1699,190.375 Q1018.873,190.375 1019.5137,190.5313 Q1020.1699,190.6875 1020.7324,190.9844 L1020.7324,193.7031 Q1020.1074,193.125 1019.5137,192.8594 Q1018.9199,192.5781 1018.2949,192.5781 Q1016.9512,192.5781 1016.2637,193.6563 Q1015.5762,194.7188 1015.5762,196.8125 Q1015.5762,198.9063 1016.2637,199.9844 Q1016.9512,201.0469 1018.2949,201.0469 Q1018.9199,201.0469 1019.5137,200.7813 Q1020.1074,200.5 1020.7324,199.9219 L1020.7324,202.6406 Z " fill="#000000"/><text fill="#000000" font-family="sans-serif" font-size="14" lengthAdjust="spacing" textLength="110.3184" x="1038.2637" y="201.8467">LibraryManager</text><line style="stroke:#181818;stroke-width:0.5;" x1="880.5" x2="1273.8457" y1="213" y2="213"/><ellipse cx="890.5" cy="226.6484" fill="transparent" rx="3" ry="3" style="stroke:#038048;stroke-width:1;"/><text fill="#000000" font-family="sans-serif" font-size="14" lengthAdjust="spacing" textLength="85.9346" x="899.5" y="229.9951">String name</text><ellipse cx="890.5" cy="242.9453" fill="transparent" rx="3" ry="3" style="stroke:#038048;stroke-width:1;"/><text fill="#000000" font-family="sans-serif" font-size="14" lengthAdjust="spacing" textLength="112.4102" x="899.5" y="246.292">Storage storage</text><ellipse cx="890.5" cy="259.2422" fill="transparent" rx="3" ry="3" style="stroke:#038048;stroke-width:1;"/><text fill="#000000" font-family="sans-serif" font-size="14" lengthAdjust="spacing" textLength="126.8408" x="899.5" y="262.5889">users: List&lt;User&gt;</text><ellipse cx="890.5" cy="275.5391" fill="transparent" rx="3" ry="3" style="stroke:#038048;stroke-width:1;"/><text fill="#000000" font-family="sans-serif" font-size="14" lengthAdjust="spacing" textLength="128.1191" x="899.5" y="278.8857">loans: List&lt;Loan&gt;</text><ellipse cx="890.5" cy="291.8359" fill="transparent" rx="3" ry="3" style="stroke:#038048;stroke-width:1;"/><text fill="#000000" font-family="sans-serif" font-size="14" lengthAdjust="spacing" textLength="110.332" x="899.5" y="295.1826">String getLoans</text><line style="stroke:#181818;stroke-width:0.5;" x1="880.5" x2="1273.8457" y1="302.4844" y2="302.4844"/><ellipse cx="890.5" cy="316.1328" fill="#84BE84" rx="3" ry="3" style="stroke:#038048;stroke-width:1;"/><text fill="#000000" font-family="sans-serif" font-size="14" lengthAdjust="spacing" textLength="369.3457" x="899.5" y="319.4795">void addUser(String name, String email, String type)</text><ellipse cx="890.5" cy="332.4297" fill="#84BE84" rx="3" ry="3" style="stroke:#038048;stroke-width:1;"/><text fill="#000000" font-family="sans-serif" font-size="14" lengthAdjust="spacing" textLength="249.1426" x="899.5" y="335.7764">void addLoan(User user, Loan loan)</text><ellipse cx="890.5" cy="348.7266" fill="#84BE84" rx="3" ry="3" style="stroke:#038048;stroke-width:1;"/><text fill="#000000" font-family="sans-serif" font-size="14" lengthAdjust="spacing" textLength="119.3486" x="899.5" y="352.0732">String getUsers()</text></g><!--class Storage--><g id="elem_Storage"><rect codeLine="24" fill="#F1F1F1" height="390.2344" id="Storage" rx="2.5" ry="2.5" style="stroke:#181818;stroke-width:0.5;" width="342.6133" x="541.5" y="420"/><ellipse cx="681.1685" cy="436" fill="#ADD1B2" rx="11" ry="11" style="stroke:#181818;stroke-width:1;"/><path d="M684.1372,441.6406 Q683.5591,441.9375 682.9185,442.0781 Q682.2778,442.2344 681.5747,442.2344 Q679.0747,442.2344 677.7466,440.5938 Q676.4341,438.9375 676.4341,435.8125 Q676.4341,432.6875 677.7466,431.0313 Q679.0747,429.375 681.5747,429.375 Q682.2778,429.375 682.9185,429.5313 Q683.5747,429.6875 684.1372,429.9844 L684.1372,432.7031 Q683.5122,432.125 682.9185,431.8594 Q682.3247,431.5781 681.6997,431.5781 Q680.356,431.5781 679.6685,432.6563 Q678.981,433.7188 678.981,435.8125 Q678.981,437.9063 679.6685,438.9844 Q680.356,440.0469 681.6997,440.0469 Q682.3247,440.0469 682.9185,439.7813 Q683.5122,439.5 684.1372,438.9219 L684.1372,441.6406 Z " fill="#000000"/><text fill="#000000" font-family="sans-serif" font-size="14" lengthAdjust="spacing" textLength="54.7764" x="701.6685" y="440.8467">Storage</text><line style="stroke:#181818;stroke-width:0.5;" x1="542.5" x2="883.1133" y1="452" y2="452"/><ellipse cx="552.5" cy="465.6484" fill="transparent" rx="3" ry="3" style="stroke:#038048;stroke-width:1;"/><text fill="#000000" font-family="sans-serif" font-size="14" lengthAdjust="spacing" textLength="35.4785" x="561.5" y="468.9951">int id</text><ellipse cx="552.5" cy="481.9453" fill="transparent" rx="3" ry="3" style="stroke:#038048;stroke-width:1;"/><text fill="#000000" font-family="sans-serif" font-size="14" lengthAdjust="spacing" textLength="199.6504" x="561.5" y="485.292">magazines: List&lt;Magazine&gt;</text><ellipse cx="552.5" cy="498.2422" fill="transparent" rx="3" ry="3" style="stroke:#038048;stroke-width:1;"/><text fill="#000000" font-family="sans-serif" font-size="14" lengthAdjust="spacing" textLength="133.3623" x="561.5" y="501.5889">books: List&lt;Book&gt;</text><ellipse cx="552.5" cy="514.5391" fill="transparent" rx="3" ry="3" style="stroke:#038048;stroke-width:1;"/><text fill="#000000" font-family="sans-serif" font-size="14" lengthAdjust="spacing" textLength="224.6016" x="561.5" y="517.8857">audiovisuals: List&lt;Audiovisual&gt;</text><ellipse cx="552.5" cy="530.8359" fill="transparent" rx="3" ry="3" style="stroke:#038048;stroke-width:1;"/><text fill="#000000" font-family="sans-serif" font-size="14" lengthAdjust="spacing" textLength="179.7031" x="561.5" y="534.1826">materials: List&lt;Material&gt;</text><ellipse cx="552.5" cy="547.1328" fill="transparent" rx="3" ry="3" style="stroke:#038048;stroke-width:1;"/><text fill="#000000" font-family="sans-serif" font-size="14" lengthAdjust="spacing" textLength="209.0293" x="561.5" y="550.4795">classrooms: List&lt;Classroom&gt;</text><line style="stroke:#181818;stroke-width:0.5;" x1="542.5" x2="883.1133" y1="557.7813" y2="557.7813"/><ellipse cx="552.5" cy="571.4297" fill="#84BE84" rx="3" ry="3" style="stroke:#038048;stroke-width:1;"/><text fill="#000000" font-family="sans-serif" font-size="14" lengthAdjust="spacing" textLength="179.6143" x="561.5" y="574.7764">void addBook(Book book)</text><ellipse cx="552.5" cy="587.7266" fill="#84BE84" rx="3" ry="3" style="stroke:#038048;stroke-width:1;"/><text fill="#000000" font-family="sans-serif" font-size="14" lengthAdjust="spacing" textLength="277.9082" x="561.5" y="591.0732">void addMagazine(Magazine magazine)</text><ellipse cx="552.5" cy="604.0234" fill="#84BE84" rx="3" ry="3" style="stroke:#038048;stroke-width:1;"/><text fill="#000000" font-family="sans-serif" font-size="14" lengthAdjust="spacing" textLength="316.6133" x="561.5" y="607.3701">void addAudiovisual(Audiovisual audiovisual)</text><ellipse cx="552.5" cy="620.3203" fill="#84BE84" rx="3" ry="3" style="stroke:#038048;stroke-width:1;"/><text fill="#000000" font-family="sans-serif" font-size="14" lengthAdjust="spacing" textLength="293.7949" x="561.5" y="623.667">void addClassroom(Classroom classroom)</text><ellipse cx="552.5" cy="636.6172" fill="#84BE84" rx="3" ry="3" style="stroke:#038048;stroke-width:1;"/><text fill="#000000" font-family="sans-serif" font-size="14" lengthAdjust="spacing" textLength="247.9873" x="561.5" y="639.9639">void addMaterial(Material material)</text><ellipse cx="552.5" cy="652.9141" fill="#84BE84" rx="3" ry="3" style="stroke:#038048;stroke-width:1;"/><text fill="#000000" font-family="sans-serif" font-size="14" lengthAdjust="spacing" textLength="154.1777" x="561.5" y="656.2607">void eraseBook(int id)</text><ellipse cx="552.5" cy="669.2109" fill="#84BE84" rx="3" ry="3" style="stroke:#038048;stroke-width:1;"/><text fill="#000000" font-family="sans-serif" font-size="14" lengthAdjust="spacing" textLength="186.1836" x="561.5" y="672.5576">void eraseMagazine(int id)</text><ellipse cx="552.5" cy="685.5078" fill="#84BE84" rx="3" ry="3" style="stroke:#038048;stroke-width:1;"/><text fill="#000000" font-family="sans-serif" font-size="14" lengthAdjust="spacing" textLength="199.9375" x="561.5" y="688.8545">void eraseAudiovisual(int id)</text><ellipse cx="552.5" cy="701.8047" fill="#84BE84" rx="3" ry="3" style="stroke:#038048;stroke-width:1;"/><text fill="#000000" font-family="sans-serif" font-size="14" lengthAdjust="spacing" textLength="192.6914" x="561.5" y="705.1514">void eraseClassroom(int id)</text><ellipse cx="552.5" cy="718.1016" fill="#84BE84" rx="3" ry="3" style="stroke:#038048;stroke-width:1;"/><text fill="#000000" font-family="sans-serif" font-size="14" lengthAdjust="spacing" textLength="176.21" x="561.5" y="721.4482">void eraseMaterial(int id)</text><ellipse cx="552.5" cy="734.3984" fill="#84BE84" rx="3" ry="3" style="stroke:#038048;stroke-width:1;"/><text fill="#000000" font-family="sans-serif" font-size="14" lengthAdjust="spacing" textLength="174.4326" x="561.5" y="737.7451">Book getBookById(int id)</text><ellipse cx="552.5" cy="750.6953" fill="#84BE84" rx="3" ry="3" style="stroke:#038048;stroke-width:1;"/><text fill="#000000" font-family="sans-serif" font-size="14" lengthAdjust="spacing" textLength="238.4443" x="561.5" y="754.042">Magazine getMagazineById(int id)</text><ellipse cx="552.5" cy="766.9922" fill="#84BE84" rx="3" ry="3" style="stroke:#038048;stroke-width:1;"/><text fill="#000000" font-family="sans-serif" font-size="14" lengthAdjust="spacing" textLength="265.9521" x="561.5" y="770.3389">Audiovisual getAudiovisualById(int id)</text><ellipse cx="552.5" cy="783.2891" fill="#84BE84" rx="3" ry="3" style="stroke:#038048;stroke-width:1;"/><text fill="#000000" font-family="sans-serif" font-size="14" lengthAdjust="spacing" textLength="251.46" x="561.5" y="786.6357">Classroom getClassroomById(int id)</text><ellipse cx="552.5" cy="799.5859" fill="#84BE84" rx="3" ry="3" style="stroke:#038048;stroke-width:1;"/><text fill="#000000" font-family="sans-serif" font-size="14" lengthAdjust="spacing" textLength="218.4971" x="561.5" y="802.9326">Material getMaterialById(int id)</text></g><!--class User--><g id="elem_User"><rect codeLine="63" fill="#F1F1F1" height="276.1563" id="User" rx="2.5" ry="2.5" style="stroke:#181818;stroke-width:0.5;" width="291.4873" x="1269.5" y="477"/><ellipse cx="1395.0386" cy="493" fill="#ADD1B2" rx="11" ry="11" style="stroke:#181818;stroke-width:1;"/><path d="M1398.0073,498.6406 Q1397.4292,498.9375 1396.7886,499.0781 Q1396.1479,499.2344 1395.4448,499.2344 Q1392.9448,499.2344 1391.6167,497.5938 Q1390.3042,495.9375 1390.3042,492.8125 Q1390.3042,489.6875 1391.6167,488.0313 Q1392.9448,486.375 1395.4448,486.375 Q1396.1479,486.375 1396.7886,486.5313 Q1397.4448,486.6875 1398.0073,486.9844 L1398.0073,489.7031 Q1397.3823,489.125 1396.7886,488.8594 Q1396.1948,488.5781 1395.5698,488.5781 Q1394.2261,488.5781 1393.5386,489.6563 Q1392.8511,490.7188 1392.8511,492.8125 Q1392.8511,494.9063 1393.5386,495.9844 Q1394.2261,497.0469 1395.5698,497.0469 Q1396.1948,497.0469 1396.7886,496.7813 Q1397.3823,496.5 1398.0073,495.9219 L1398.0073,498.6406 Z " fill="#000000"/><text fill="#000000" font-family="sans-serif" font-size="14" lengthAdjust="spacing" textLength="31.9102" x="1415.5386" y="497.8467">User</text><line style="stroke:#181818;stroke-width:0.5;" x1="1270.5" x2="1559.9873" y1="509" y2="509"/><ellipse cx="1280.5" cy="522.6484" fill="transparent" rx="3" ry="3" style="stroke:#038048;stroke-width:1;"/><text fill="#000000" font-family="sans-serif" font-size="14" lengthAdjust="spacing" textLength="35.4785" x="1289.5" y="525.9951">int id</text><ellipse cx="1280.5" cy="538.9453" fill="transparent" rx="3" ry="3" style="stroke:#038048;stroke-width:1;"/><text fill="#000000" font-family="sans-serif" font-size="14" lengthAdjust="spacing" textLength="85.9346" x="1289.5" y="542.292">String name</text><ellipse cx="1280.5" cy="555.2422" fill="transparent" rx="3" ry="3" style="stroke:#038048;stroke-width:1;"/><text fill="#000000" font-family="sans-serif" font-size="14" lengthAdjust="spacing" textLength="84.8408" x="1289.5" y="558.5889">String email</text><ellipse cx="1280.5" cy="571.5391" fill="transparent" rx="3" ry="3" style="stroke:#038048;stroke-width:1;"/><text fill="#000000" font-family="sans-serif" font-size="14" lengthAdjust="spacing" textLength="77.5059" x="1289.5" y="574.8857">String type</text><ellipse cx="1280.5" cy="587.8359" fill="transparent" rx="3" ry="3" style="stroke:#038048;stroke-width:1;"/><text fill="#000000" font-family="sans-serif" font-size="14" lengthAdjust="spacing" textLength="92.3672" x="1289.5" y="591.1826">int maxItems</text><line style="stroke:#181818;stroke-width:0.5;" x1="1270.5" x2="1559.9873" y1="598.4844" y2="598.4844"/><ellipse cx="1280.5" cy="612.1328" fill="#84BE84" rx="3" ry="3" style="stroke:#038048;stroke-width:1;"/><text fill="#000000" font-family="sans-serif" font-size="14" lengthAdjust="spacing" textLength="265.4873" x="1289.5" y="615.4795">void returnStorage (Storage storagte)</text><ellipse cx="1280.5" cy="628.4297" fill="#84BE84" rx="3" ry="3" style="stroke:#038048;stroke-width:1;"/><text fill="#000000" font-family="sans-serif" font-size="14" lengthAdjust="spacing" textLength="93.1602" x="1289.5" y="631.7764">String getId()</text><ellipse cx="1280.5" cy="644.7266" fill="#84BE84" rx="3" ry="3" style="stroke:#038048;stroke-width:1;"/><text fill="#000000" font-family="sans-serif" font-size="14" lengthAdjust="spacing" textLength="138.4209" x="1289.5" y="648.0732">void setId(String id)</text><ellipse cx="1280.5" cy="661.0234" fill="#84BE84" rx="3" ry="3" style="stroke:#038048;stroke-width:1;"/><text fill="#000000" font-family="sans-serif" font-size="14" lengthAdjust="spacing" textLength="121.4473" x="1289.5" y="664.3701">String getName()</text><ellipse cx="1280.5" cy="677.3203" fill="#84BE84" rx="3" ry="3" style="stroke:#038048;stroke-width:1;"/><text fill="#000000" font-family="sans-serif" font-size="14" lengthAdjust="spacing" textLength="193.6348" x="1289.5" y="680.667">void setName(String name)</text><ellipse cx="1280.5" cy="693.6172" fill="#84BE84" rx="3" ry="3" style="stroke:#038048;stroke-width:1;"/><text fill="#000000" font-family="sans-serif" font-size="14" lengthAdjust="spacing" textLength="118.9863" x="1289.5" y="696.9639">String getEmail()</text><ellipse cx="1280.5" cy="709.9141" fill="#84BE84" rx="3" ry="3" style="stroke:#038048;stroke-width:1;"/><text fill="#000000" font-family="sans-serif" font-size="14" lengthAdjust="spacing" textLength="190.0801" x="1289.5" y="713.2607">void setEmail(String email)</text><ellipse cx="1280.5" cy="726.2109" fill="#84BE84" rx="3" ry="3" style="stroke:#038048;stroke-width:1;"/><text fill="#000000" font-family="sans-serif" font-size="14" lengthAdjust="spacing" textLength="114.4814" x="1289.5" y="729.5576">String getType()</text><ellipse cx="1280.5" cy="742.5078" fill="#84BE84" rx="3" ry="3" style="stroke:#038048;stroke-width:1;"/><text fill="#000000" font-family="sans-serif" font-size="14" lengthAdjust="spacing" textLength="178.2402" x="1289.5" y="745.8545">void setType(String type)</text></g><!--class Loan--><g id="elem_Loan"><rect codeLine="140" fill="#F1F1F1" height="145.7813" id="Loan" rx="2.5" ry="2.5" style="stroke:#181818;stroke-width:0.5;" width="313.5059" x="920" y="542"/><ellipse cx="1055.5942" cy="558" fill="#ADD1B2" rx="11" ry="11" style="stroke:#181818;stroke-width:1;"/><path d="M1058.563,563.6406 Q1057.9849,563.9375 1057.3442,564.0781 Q1056.7036,564.2344 1056.0005,564.2344 Q1053.5005,564.2344 1052.1724,562.5938 Q1050.8599,560.9375 1050.8599,557.8125 Q1050.8599,554.6875 1052.1724,553.0313 Q1053.5005,551.375 1056.0005,551.375 Q1056.7036,551.375 1057.3442,551.5313 Q1058.0005,551.6875 1058.563,551.9844 L1058.563,554.7031 Q1057.938,554.125 1057.3442,553.8594 Q1056.7505,553.5781 1056.1255,553.5781 Q1054.7817,553.5781 1054.0942,554.6563 Q1053.4067,555.7188 1053.4067,557.8125 Q1053.4067,559.9063 1054.0942,560.9844 Q1054.7817,562.0469 1056.1255,562.0469 Q1056.7505,562.0469 1057.3442,561.7813 Q1057.938,561.5 1058.563,560.9219 L1058.563,563.6406 Z " fill="#000000"/><text fill="#000000" font-family="sans-serif" font-size="14" lengthAdjust="spacing" textLength="33.8174" x="1076.0942" y="562.8467">Loan</text><line style="stroke:#181818;stroke-width:0.5;" x1="921" x2="1232.5059" y1="574" y2="574"/><ellipse cx="931" cy="587.6484" fill="transparent" rx="3" ry="3" style="stroke:#038048;stroke-width:1;"/><text fill="#000000" font-family="sans-serif" font-size="14" lengthAdjust="spacing" textLength="88.1426" x="940" y="590.9951">int maxDays</text><ellipse cx="931" cy="603.9453" fill="transparent" rx="3" ry="3" style="stroke:#038048;stroke-width:1;"/><text fill="#000000" font-family="sans-serif" font-size="14" lengthAdjust="spacing" textLength="68.2705" x="940" y="607.292">User User</text><ellipse cx="931" cy="620.2422" fill="transparent" rx="3" ry="3" style="stroke:#038048;stroke-width:1;"/><text fill="#000000" font-family="sans-serif" font-size="14" lengthAdjust="spacing" textLength="112.4102" x="940" y="623.5889">Storage storage</text><line style="stroke:#181818;stroke-width:0.5;" x1="921" x2="1232.5059" y1="630.8906" y2="630.8906"/><ellipse cx="931" cy="644.5391" fill="#84BE84" rx="3" ry="3" style="stroke:#038048;stroke-width:1;"/><text fill="#000000" font-family="sans-serif" font-size="14" lengthAdjust="spacing" textLength="130.2793" x="940" y="647.8857">void setMaxDays()</text><ellipse cx="931" cy="660.8359" fill="#84BE84" rx="3" ry="3" style="stroke:#038048;stroke-width:1;"/><text fill="#000000" font-family="sans-serif" font-size="14" lengthAdjust="spacing" textLength="120.4971" x="940" y="664.1826">int getMaxDays()</text><ellipse cx="931" cy="677.1328" fill="#84BE84" rx="3" ry="3" style="stroke:#038048;stroke-width:1;"/><text fill="#000000" font-family="sans-serif" font-size="14" lengthAdjust="spacing" textLength="287.5059" x="940" y="680.4795">void createLoan(int maxDays, User user)</text></g><!--class Book--><g id="elem_Book"><rect codeLine="80" fill="#F1F1F1" height="145.7813" id="Book" rx="2.5" ry="2.5" style="stroke:#181818;stroke-width:0.5;" width="263.0977" x="581.5" y="871"/><ellipse cx="691.3774" cy="887" fill="#ADD1B2" rx="11" ry="11" style="stroke:#181818;stroke-width:1;"/><path d="M694.3462,892.6406 Q693.7681,892.9375 693.1274,893.0781 Q692.4868,893.2344 691.7837,893.2344 Q689.2837,893.2344 687.9556,891.5938 Q686.6431,889.9375 686.6431,886.8125 Q686.6431,883.6875 687.9556,882.0313 Q689.2837,880.375 691.7837,880.375 Q692.4868,880.375 693.1274,880.5313 Q693.7837,880.6875 694.3462,880.9844 L694.3462,883.7031 Q693.7212,883.125 693.1274,882.8594 Q692.5337,882.5781 691.9087,882.5781 Q690.5649,882.5781 689.8774,883.6563 Q689.1899,884.7188 689.1899,886.8125 Q689.1899,888.9063 689.8774,889.9844 Q690.5649,891.0469 691.9087,891.0469 Q692.5337,891.0469 693.1274,890.7813 Q693.7212,890.5 694.3462,889.9219 L694.3462,892.6406 Z " fill="#000000"/><text fill="#000000" font-family="sans-serif" font-size="14" lengthAdjust="spacing" textLength="34.8428" x="711.8774" y="891.8467">Book</text><line style="stroke:#181818;stroke-width:0.5;" x1="582.5" x2="843.5977" y1="903" y2="903"/><ellipse cx="592.5" cy="916.6484" fill="transparent" rx="3" ry="3" style="stroke:#038048;stroke-width:1;"/><text fill="#000000" font-family="sans-serif" font-size="14" lengthAdjust="spacing" textLength="75.1748" x="601.5" y="919.9951">String isbn</text><ellipse cx="592.5" cy="932.9453" fill="transparent" rx="3" ry="3" style="stroke:#038048;stroke-width:1;"/><text fill="#000000" font-family="sans-serif" font-size="14" lengthAdjust="spacing" textLength="95.9014" x="601.5" y="936.292">int numPages</text><line style="stroke:#181818;stroke-width:0.5;" x1="582.5" x2="843.5977" y1="943.5938" y2="943.5938"/><ellipse cx="592.5" cy="957.2422" fill="#84BE84" rx="3" ry="3" style="stroke:#038048;stroke-width:1;"/><text fill="#000000" font-family="sans-serif" font-size="14" lengthAdjust="spacing" textLength="109.3271" x="601.5" y="960.5889">String getIsbn()</text><ellipse cx="592.5" cy="973.5391" fill="#84BE84" rx="3" ry="3" style="stroke:#038048;stroke-width:1;"/><text fill="#000000" font-family="sans-serif" font-size="14" lengthAdjust="spacing" textLength="170.7549" x="601.5" y="976.8857">void setIsbn(String isbn)</text><ellipse cx="592.5" cy="989.8359" fill="#84BE84" rx="3" ry="3" style="stroke:#038048;stroke-width:1;"/><text fill="#000000" font-family="sans-serif" font-size="14" lengthAdjust="spacing" textLength="131.4141" x="601.5" y="993.1826">int getNumPages()</text><ellipse cx="592.5" cy="1006.1328" fill="#84BE84" rx="3" ry="3" style="stroke:#038048;stroke-width:1;"/><text fill="#000000" font-family="sans-serif" font-size="14" lengthAdjust="spacing" textLength="237.0977" x="601.5" y="1009.4795">void setNumPages(int numPages)</text></g><!--class Magazine--><g id="elem_Magazine"><rect codeLine="105" fill="#F1F1F1" height="145.7813" id="Magazine" rx="2.5" ry="2.5" style="stroke:#181818;stroke-width:0.5;" width="267.7939" x="278" y="871"/><ellipse cx="374.2227" cy="887" fill="#ADD1B2" rx="11" ry="11" style="stroke:#181818;stroke-width:1;"/><path d="M377.1914,892.6406 Q376.6133,892.9375 375.9727,893.0781 Q375.332,893.2344 374.6289,893.2344 Q372.1289,893.2344 370.8008,891.5938 Q369.4883,889.9375 369.4883,886.8125 Q369.4883,883.6875 370.8008,882.0313 Q372.1289,880.375 374.6289,880.375 Q375.332,880.375 375.9727,880.5313 Q376.6289,880.6875 377.1914,880.9844 L377.1914,883.7031 Q376.5664,883.125 375.9727,882.8594 Q375.3789,882.5781 374.7539,882.5781 Q373.4102,882.5781 372.7227,883.6563 Q372.0352,884.7188 372.0352,886.8125 Q372.0352,888.9063 372.7227,889.9844 Q373.4102,891.0469 374.7539,891.0469 Q375.3789,891.0469 375.9727,890.7813 Q376.5664,890.5 377.1914,889.9219 L377.1914,892.6406 Z " fill="#000000"/><text fill="#000000" font-family="sans-serif" font-size="14" lengthAdjust="spacing" textLength="66.8486" x="394.7227" y="891.8467">Magazine</text><line style="stroke:#181818;stroke-width:0.5;" x1="279" x2="544.7939" y1="903" y2="903"/><ellipse cx="289" cy="916.6484" fill="transparent" rx="3" ry="3" style="stroke:#038048;stroke-width:1;"/><text fill="#000000" font-family="sans-serif" font-size="14" lengthAdjust="spacing" textLength="73.582" x="298" y="919.9951">String issn</text><ellipse cx="289" cy="932.9453" fill="transparent" rx="3" ry="3" style="stroke:#038048;stroke-width:1;"/><text fill="#000000" font-family="sans-serif" font-size="14" lengthAdjust="spacing" textLength="119.1572" x="298" y="936.292">int numberPages</text><line style="stroke:#181818;stroke-width:0.5;" x1="279" x2="544.7939" y1="943.5938" y2="943.5938"/><ellipse cx="289" cy="957.2422" fill="#84BE84" rx="3" ry="3" style="stroke:#038048;stroke-width:1;"/><text fill="#000000" font-family="sans-serif" font-size="14" lengthAdjust="spacing" textLength="107.7344" x="298" y="960.5889">String getIssn()</text><ellipse cx="289" cy="973.5391" fill="#84BE84" rx="3" ry="3" style="stroke:#038048;stroke-width:1;"/><text fill="#000000" font-family="sans-serif" font-size="14" lengthAdjust="spacing" textLength="167.5693" x="298" y="976.8857">void setIssn(String issn)</text><ellipse cx="289" cy="989.8359" fill="#84BE84" rx="3" ry="3" style="stroke:#038048;stroke-width:1;"/><text fill="#000000" font-family="sans-serif" font-size="14" lengthAdjust="spacing" textLength="154.6699" x="298" y="993.1826">int getNumberPages()</text><ellipse cx="289" cy="1006.1328" fill="#84BE84" rx="3" ry="3" style="stroke:#038048;stroke-width:1;"/><text fill="#000000" font-family="sans-serif" font-size="14" lengthAdjust="spacing" textLength="241.7939" x="298" y="1009.4795">void setNumberPages(int number)</text></g><!--class Material--><g id="elem_Material"><rect codeLine="18" fill="#F1F1F1" height="96.8906" id="Material" rx="2.5" ry="2.5" style="stroke:#181818;stroke-width:0.5;" width="296.2041" x="880" y="895.5"/><ellipse cx="995.4146" cy="911.5" fill="#ADD1B2" rx="11" ry="11" style="stroke:#181818;stroke-width:1;"/><path d="M998.3833,917.1406 Q997.8052,917.4375 997.1646,917.5781 Q996.5239,917.7344 995.8208,917.7344 Q993.3208,917.7344 991.9927,916.0938 Q990.6802,914.4375 990.6802,911.3125 Q990.6802,908.1875 991.9927,906.5313 Q993.3208,904.875 995.8208,904.875 Q996.5239,904.875 997.1646,905.0313 Q997.8208,905.1875 998.3833,905.4844 L998.3833,908.2031 Q997.7583,907.625 997.1646,907.3594 Q996.5708,907.0781 995.9458,907.0781 Q994.6021,907.0781 993.9146,908.1563 Q993.2271,909.2188 993.2271,911.3125 Q993.2271,913.4063 993.9146,914.4844 Q994.6021,915.5469 995.9458,915.5469 Q996.5708,915.5469 997.1646,915.2813 Q997.7583,915 998.3833,914.4219 L998.3833,917.1406 Z " fill="#000000"/><text fill="#000000" font-family="sans-serif" font-size="14" lengthAdjust="spacing" textLength="56.875" x="1015.9146" y="916.3467">Material</text><line style="stroke:#181818;stroke-width:0.5;" x1="881" x2="1175.2041" y1="927.5" y2="927.5"/><ellipse cx="891" cy="941.1484" fill="transparent" rx="3" ry="3" style="stroke:#038048;stroke-width:1;"/><text fill="#000000" font-family="sans-serif" font-size="14" lengthAdjust="spacing" textLength="124.0723" x="900" y="944.4951">String description</text><line style="stroke:#181818;stroke-width:0.5;" x1="881" x2="1175.2041" y1="951.7969" y2="951.7969"/><ellipse cx="891" cy="965.4453" fill="#84BE84" rx="3" ry="3" style="stroke:#038048;stroke-width:1;"/><text fill="#000000" font-family="sans-serif" font-size="14" lengthAdjust="spacing" textLength="159.8789" x="900" y="968.792">String getDescription()</text><ellipse cx="891" cy="981.7422" fill="#84BE84" rx="3" ry="3" style="stroke:#038048;stroke-width:1;"/><text fill="#000000" font-family="sans-serif" font-size="14" lengthAdjust="spacing" textLength="270.2041" x="900" y="985.0889">void setDescription(String description)</text></g><!--class Classroom--><g id="elem_Classroom"><rect codeLine="89" fill="#F1F1F1" height="96.8906" id="Classroom" rx="2.5" ry="2.5" style="stroke:#181818;stroke-width:0.5;" width="235.3848" x="1211.5" y="895.5"/><ellipse cx="1288.2642" cy="911.5" fill="#ADD1B2" rx="11" ry="11" style="stroke:#181818;stroke-width:1;"/><path d="M1291.2329,917.1406 Q1290.6548,917.4375 1290.0142,917.5781 Q1289.3735,917.7344 1288.6704,917.7344 Q1286.1704,917.7344 1284.8423,916.0938 Q1283.5298,914.4375 1283.5298,911.3125 Q1283.5298,908.1875 1284.8423,906.5313 Q1286.1704,904.875 1288.6704,904.875 Q1289.3735,904.875 1290.0142,905.0313 Q1290.6704,905.1875 1291.2329,905.4844 L1291.2329,908.2031 Q1290.6079,907.625 1290.0142,907.3594 Q1289.4204,907.0781 1288.7954,907.0781 Q1287.4517,907.0781 1286.7642,908.1563 Q1286.0767,909.2188 1286.0767,911.3125 Q1286.0767,913.4063 1286.7642,914.4844 Q1287.4517,915.5469 1288.7954,915.5469 Q1289.4204,915.5469 1290.0142,915.2813 Q1290.6079,915 1291.2329,914.4219 L1291.2329,917.1406 Z " fill="#000000"/><text fill="#000000" font-family="sans-serif" font-size="14" lengthAdjust="spacing" textLength="73.3564" x="1308.7642" y="916.3467">Classroom</text><line style="stroke:#181818;stroke-width:0.5;" x1="1212.5" x2="1445.8848" y1="927.5" y2="927.5"/><ellipse cx="1222.5" cy="941.1484" fill="transparent" rx="3" ry="3" style="stroke:#038048;stroke-width:1;"/><text fill="#000000" font-family="sans-serif" font-size="14" lengthAdjust="spacing" textLength="81.8057" x="1231.5" y="944.4951">int capacity</text><line style="stroke:#181818;stroke-width:0.5;" x1="1212.5" x2="1445.8848" y1="951.7969" y2="951.7969"/><ellipse cx="1222.5" cy="965.4453" fill="#84BE84" rx="3" ry="3" style="stroke:#038048;stroke-width:1;"/><text fill="#000000" font-family="sans-serif" font-size="14" lengthAdjust="spacing" textLength="117.7969" x="1231.5" y="968.792">int getCapacity()</text><ellipse cx="1222.5" cy="981.7422" fill="#84BE84" rx="3" ry="3" style="stroke:#038048;stroke-width:1;"/><text fill="#000000" font-family="sans-serif" font-size="14" lengthAdjust="spacing" textLength="209.3848" x="1231.5" y="985.0889">void setCapacity(int capacity)</text></g><!--class Audiovisual--><g id="elem_Audiovisual"><rect codeLine="114" fill="#F1F1F1" height="145.7813" id="Audiovisual" rx="2.5" ry="2.5" style="stroke:#181818;stroke-width:0.5;" width="235.665" x="7" y="871"/><ellipse cx="80.2813" cy="887" fill="#ADD1B2" rx="11" ry="11" style="stroke:#181818;stroke-width:1;"/><path d="M83.25,892.6406 Q82.6719,892.9375 82.0313,893.0781 Q81.3906,893.2344 80.6875,893.2344 Q78.1875,893.2344 76.8594,891.5938 Q75.5469,889.9375 75.5469,886.8125 Q75.5469,883.6875 76.8594,882.0313 Q78.1875,880.375 80.6875,880.375 Q81.3906,880.375 82.0313,880.5313 Q82.6875,880.6875 83.25,880.9844 L83.25,883.7031 Q82.625,883.125 82.0313,882.8594 Q81.4375,882.5781 80.8125,882.5781 Q79.4688,882.5781 78.7813,883.6563 Q78.0938,884.7188 78.0938,886.8125 Q78.0938,888.9063 78.7813,889.9844 Q79.4688,891.0469 80.8125,891.0469 Q81.4375,891.0469 82.0313,890.7813 Q82.625,890.5 83.25,889.9219 L83.25,892.6406 Z " fill="#000000"/><text fill="#000000" font-family="sans-serif" font-size="14" lengthAdjust="spacing" textLength="80.6025" x="100.7813" y="891.8467">Audiovisual</text><line style="stroke:#181818;stroke-width:0.5;" x1="8" x2="241.665" y1="903" y2="903"/><ellipse cx="18" cy="916.6484" fill="transparent" rx="3" ry="3" style="stroke:#038048;stroke-width:1;"/><text fill="#000000" font-family="sans-serif" font-size="14" lengthAdjust="spacing" textLength="93.1875" x="27" y="919.9951">String format</text><ellipse cx="18" cy="932.9453" fill="transparent" rx="3" ry="3" style="stroke:#038048;stroke-width:1;"/><text fill="#000000" font-family="sans-serif" font-size="14" lengthAdjust="spacing" textLength="81.6143" x="27" y="936.292">int duration</text><line style="stroke:#181818;stroke-width:0.5;" x1="8" x2="241.665" y1="943.5938" y2="943.5938"/><ellipse cx="18" cy="957.2422" fill="#84BE84" rx="3" ry="3" style="stroke:#038048;stroke-width:1;"/><text fill="#000000" font-family="sans-serif" font-size="14" lengthAdjust="spacing" textLength="130.2246" x="27" y="960.5889">String getFormat()</text><ellipse cx="18" cy="973.5391" fill="#84BE84" rx="3" ry="3" style="stroke:#038048;stroke-width:1;"/><text fill="#000000" font-family="sans-serif" font-size="14" lengthAdjust="spacing" textLength="209.665" x="27" y="976.8857">void setFormat(String format)</text><ellipse cx="18" cy="989.8359" fill="#84BE84" rx="3" ry="3" style="stroke:#038048;stroke-width:1;"/><text fill="#000000" font-family="sans-serif" font-size="14" lengthAdjust="spacing" textLength="117.4209" x="27" y="993.1826">int getDuration()</text><ellipse cx="18" cy="1006.1328" fill="#84BE84" rx="3" ry="3" style="stroke:#038048;stroke-width:1;"/><text fill="#000000" font-family="sans-serif" font-size="14" lengthAdjust="spacing" textLength="208.8174" x="27" y="1009.4795">void setDuration(int duration)</text></g><!--class Service--><g id="elem_Service"><rect codeLine="95" fill="#F1F1F1" height="162.0781" id="Service" rx="2.5" ry="2.5" style="stroke:#181818;stroke-width:0.5;" width="192.708" x="1082.5" y="1110.5"/><ellipse cx="1148.7334" cy="1126.5" fill="#A9DCDF" rx="11" ry="11" style="stroke:#181818;stroke-width:1;"/><path d="M1148.8428,1121.8438 L1147.6865,1126.9219 L1150.0146,1126.9219 L1148.8428,1121.8438 Z M1147.3584,1119.6094 L1150.3428,1119.6094 L1153.7021,1132 L1151.249,1132 L1150.4834,1128.9375 L1147.2021,1128.9375 L1146.4521,1132 L1144.0146,1132 L1147.3584,1119.6094 Z " fill="#000000"/><text fill="#000000" font-family="sans-serif" font-size="14" font-style="italic" lengthAdjust="spacing" textLength="51.7412" x="1169.2334" y="1131.3467">Service</text><line style="stroke:#181818;stroke-width:0.5;" x1="1083.5" x2="1274.208" y1="1142.5" y2="1142.5"/><ellipse cx="1093.5" cy="1156.1484" fill="transparent" rx="3" ry="3" style="stroke:#038048;stroke-width:1;"/><text fill="#000000" font-family="sans-serif" font-size="14" lengthAdjust="spacing" textLength="35.4785" x="1102.5" y="1159.4951">int id</text><ellipse cx="1093.5" cy="1172.4453" fill="transparent" rx="3" ry="3" style="stroke:#038048;stroke-width:1;"/><text fill="#000000" font-family="sans-serif" font-size="14" lengthAdjust="spacing" textLength="85.9346" x="1102.5" y="1175.792">String name</text><ellipse cx="1093.5" cy="1188.7422" fill="transparent" rx="3" ry="3" style="stroke:#038048;stroke-width:1;"/><text fill="#000000" font-family="sans-serif" font-size="14" lengthAdjust="spacing" textLength="123.6143" x="1102.5" y="1192.0889">boolean available</text><line style="stroke:#181818;stroke-width:0.5;" x1="1083.5" x2="1274.208" y1="1199.3906" y2="1199.3906"/><ellipse cx="1093.5" cy="1213.0391" fill="#84BE84" rx="3" ry="3" style="stroke:#038048;stroke-width:1;"/><text fill="#000000" font-family="sans-serif" font-size="14" lengthAdjust="spacing" textLength="93.1602" x="1102.5" y="1216.3857">String getId()</text><ellipse cx="1093.5" cy="1229.3359" fill="#84BE84" rx="3" ry="3" style="stroke:#038048;stroke-width:1;"/><text fill="#000000" font-family="sans-serif" font-size="14" lengthAdjust="spacing" textLength="138.4209" x="1102.5" y="1232.6826">void setId(String id)</text><ellipse cx="1093.5" cy="1245.6328" fill="#84BE84" rx="3" ry="3" style="stroke:#038048;stroke-width:1;"/><text fill="#000000" font-family="sans-serif" font-size="14" lengthAdjust="spacing" textLength="121.4473" x="1102.5" y="1248.9795">String getName()</text><ellipse cx="1093.5" cy="1261.9297" fill="#84BE84" rx="3" ry="3" style="stroke:#038048;stroke-width:1;"/><text fill="#000000" font-family="sans-serif" font-size="14" lengthAdjust="spacing" textLength="166.708" x="1102.5" y="1265.2764">void setName(String id)</text></g><!--class Document--><g id="elem_Document"><rect codeLine="48" fill="#F1F1F1" height="227.2656" id="Document" rx="2.5" ry="2.5" style="stroke:#181818;stroke-width:0.5;" width="198.5391" x="312.5" y="1078"/><ellipse cx="371.2549" cy="1094" fill="#A9DCDF" rx="11" ry="11" style="stroke:#181818;stroke-width:1;"/><path d="M371.3643,1089.3438 L370.208,1094.4219 L372.5361,1094.4219 L371.3643,1089.3438 Z M369.8799,1087.1094 L372.8643,1087.1094 L376.2236,1099.5 L373.7705,1099.5 L373.0049,1096.4375 L369.7236,1096.4375 L368.9736,1099.5 L366.5361,1099.5 L369.8799,1087.1094 Z " fill="#000000"/><text fill="#000000" font-family="sans-serif" font-size="14" font-style="italic" lengthAdjust="spacing" textLength="72.5293" x="391.7549" y="1098.8467">Document</text><line style="stroke:#181818;stroke-width:0.5;" x1="313.5" x2="510.0391" y1="1110" y2="1110"/><ellipse cx="323.5" cy="1123.6484" fill="transparent" rx="3" ry="3" style="stroke:#038048;stroke-width:1;"/><text fill="#000000" font-family="sans-serif" font-size="14" lengthAdjust="spacing" textLength="35.4785" x="332.5" y="1126.9951">int id</text><ellipse cx="323.5" cy="1139.9453" fill="transparent" rx="3" ry="3" style="stroke:#038048;stroke-width:1;"/><text fill="#000000" font-family="sans-serif" font-size="14" lengthAdjust="spacing" textLength="73.6025" x="332.5" y="1143.292">String title</text><ellipse cx="323.5" cy="1156.2422" fill="transparent" rx="3" ry="3" style="stroke:#038048;stroke-width:1;"/><text fill="#000000" font-family="sans-serif" font-size="14" lengthAdjust="spacing" textLength="92.3672" x="332.5" y="1159.5889">String author</text><ellipse cx="323.5" cy="1172.5391" fill="transparent" rx="3" ry="3" style="stroke:#038048;stroke-width:1;"/><text fill="#000000" font-family="sans-serif" font-size="14" lengthAdjust="spacing" textLength="131.7217" x="332.5" y="1175.8857">int publicationYear</text><ellipse cx="323.5" cy="1188.8359" fill="transparent" rx="3" ry="3" style="stroke:#038048;stroke-width:1;"/><text fill="#000000" font-family="sans-serif" font-size="14" lengthAdjust="spacing" textLength="123.6143" x="332.5" y="1192.1826">boolean available</text><line style="stroke:#181818;stroke-width:0.5;" x1="313.5" x2="510.0391" y1="1199.4844" y2="1199.4844"/><ellipse cx="323.5" cy="1213.1328" fill="#84BE84" rx="3" ry="3" style="stroke:#038048;stroke-width:1;"/><text fill="#000000" font-family="sans-serif" font-size="14" lengthAdjust="spacing" textLength="93.1602" x="332.5" y="1216.4795">String getId()</text><ellipse cx="323.5" cy="1229.4297" fill="#84BE84" rx="3" ry="3" style="stroke:#038048;stroke-width:1;"/><text fill="#000000" font-family="sans-serif" font-size="14" lengthAdjust="spacing" textLength="138.4209" x="332.5" y="1232.7764">void setId(String id)</text><ellipse cx="323.5" cy="1245.7266" fill="#84BE84" rx="3" ry="3" style="stroke:#038048;stroke-width:1;"/><text fill="#000000" font-family="sans-serif" font-size="14" lengthAdjust="spacing" textLength="110.5781" x="332.5" y="1249.0732">String getTitle()</text><ellipse cx="323.5" cy="1262.0234" fill="#84BE84" rx="3" ry="3" style="stroke:#038048;stroke-width:1;"/><text fill="#000000" font-family="sans-serif" font-size="14" lengthAdjust="spacing" textLength="155.8389" x="332.5" y="1265.3701">void setTitle(String id)</text><ellipse cx="323.5" cy="1278.3203" fill="#84BE84" rx="3" ry="3" style="stroke:#038048;stroke-width:1;"/><text fill="#000000" font-family="sans-serif" font-size="14" lengthAdjust="spacing" textLength="127.2783" x="332.5" y="1281.667">String getAuthor()</text><ellipse cx="323.5" cy="1294.6172" fill="#84BE84" rx="3" ry="3" style="stroke:#038048;stroke-width:1;"/><text fill="#000000" font-family="sans-serif" font-size="14" lengthAdjust="spacing" textLength="172.5391" x="332.5" y="1297.9639">void setAuthor(String id)</text></g><!--link Main to LibraryManager--><g id="link_Main_LibraryManager"><path codeLine="1" d="M1077,104.19 C1077,126.83 1077,148.62 1077,174.89 " fill="transparent" id="Main-to-LibraryManager" style="stroke:#181818;stroke-width:1;"/><polygon fill="#181818" points="1077,180.89,1081,171.89,1077,175.89,1073,171.89,1077,180.89" style="stroke:#181818;stroke-width:1;"/><text fill="#000000" font-family="sans-serif" font-size="13" lengthAdjust="spacing" textLength="122.6685" x="1078" y="147.0669">instancia y ejecuta</text></g><!--reverse link LibraryManager to Storage--><g id="link_LibraryManager_Storage"><path codeLine="2" d="M961.0151,367.0867 C938.1851,386.6867 923.57,399.83 902,420 C896.25,425.38 890.44,430.89 884.6,436.48 " fill="transparent" id="LibraryManager-backto-Storage" style="stroke:#181818;stroke-width:1;"/><polygon fill="transparent" points="970.12,359.27,962.962,360.1434,961.0151,367.0867,968.1731,366.2133,970.12,359.27" style="stroke:#181818;stroke-width:1;"/></g><!--link LibraryManager to User--><g id="link_LibraryManager_User"><path codeLine="3" d="M1186.42,359.28 C1208.73,378.63 1231.61,399.48 1252,420 C1269.67,437.79 1279.6543,448.2422 1296.7743,467.7922 " fill="transparent" id="LibraryManager-to-User" style="stroke:#181818;stroke-width:1;"/><polygon fill="transparent" points="1304.68,476.82,1303.7364,469.6709,1296.7743,467.7922,1297.7179,474.9413,1304.68,476.82" style="stroke:#181818;stroke-width:1;"/></g><!--link LibraryManager to Loan--><g id="link_LibraryManager_Loan"><path codeLine="4" d="M1077,359.33 C1077,416 1077,488.66 1077,541.85 " fill="transparent" id="LibraryManager-Loan" style="stroke:#181818;stroke-width:1;"/></g><!--link Storage to Loan--><g id="link_Storage_Loan"><path codeLine="5" d="M884.69,615 C896.46,615 908.23,615 920,615 " fill="transparent" id="Storage-Loan" style="stroke:#181818;stroke-width:1;"/></g><!--link Loan to User--><g id="link_Loan_User"><path codeLine="6" d="M1234.12,615 C1245.89,615 1257.67,615 1269.45,615 " fill="transparent" id="Loan-User" style="stroke:#181818;stroke-width:1;"/></g><!--reverse link Storage to Book--><g id="link_Storage_Book"><path codeLine="7" d="M713,822.47 C713,843.86 713,852.52 713,870.91 " fill="transparent" id="Storage-backto-Book" style="stroke:#181818;stroke-width:1;"/><polygon fill="#181818" points="713,810.47,709,816.47,713,822.47,717,816.47,713,810.47" style="stroke:#181818;stroke-width:1;"/></g><!--reverse link Storage to Magazine--><g id="link_Storage_Magazine"><path codeLine="8" d="M533.2735,811.2495 C510.9635,835.4895 497.41,850.22 478.37,870.9 " fill="transparent" id="Storage-backto-Magazine" style="stroke:#181818;stroke-width:1;"/><polygon fill="#181818" points="541.4,802.42,534.3936,804.1259,533.2735,811.2495,540.2799,809.5436,541.4,802.42" style="stroke:#181818;stroke-width:1;"/></g><!--reverse link Storage to Material--><g id="link_Storage_Material"><path codeLine="9" d="M893.1153,802.9723 C929.1053,840.3323 955.77,868.01 982.15,895.4 " fill="transparent" id="Storage-backto-Material" style="stroke:#181818;stroke-width:1;"/><polygon fill="#181818" points="884.79,794.33,886.0719,801.4262,893.1153,802.9723,891.8334,795.876,884.79,794.33" style="stroke:#181818;stroke-width:1;"/></g><!--reverse link Storage to Classroom--><g id="link_Storage_Classroom"><path codeLine="10" d="M894.6918,806.1227 C900.4118,809.8027 896.13,806.77 902,810 C1018.21,873.82 1069.37,825.79 1194,871 C1212.23,877.61 1231.04,886.31 1248.62,895.36 " fill="transparent" id="Storage-backto-Classroom" style="stroke:#181818;stroke-width:1;"/><polygon fill="#181818" points="884.6,799.63,887.4817,806.2403,894.6918,806.1227,891.8101,799.5124,884.6,799.63" style="stroke:#181818;stroke-width:1;"/></g><!--reverse link Storage to Audiovisual--><g id="link_Storage_Audiovisual"><path codeLine="11" d="M530.8626,717.2923 C435.0926,770.5523 328.75,829.69 243.24,877.24 " fill="transparent" id="Storage-backto-Audiovisual" style="stroke:#181818;stroke-width:1;"/><polygon fill="#181818" points="541.35,711.46,534.1622,710.8804,530.8626,717.2923,538.0504,717.8719,541.35,711.46" style="stroke:#181818;stroke-width:1;"/></g><!--link Classroom to Service--><g id="link_Classroom_Service"><path codeLine="12" d="M1299.9,992.63 C1279.54,1025.95 1261.2221,1055.9185 1237.4821,1094.7885 " fill="transparent" id="Classroom-to-Service" style="stroke:#181818;stroke-width:1;"/><polygon fill="transparent" points="1228.1,1110.15,1242.6026,1097.9159,1232.3616,1091.6611,1228.1,1110.15" style="stroke:#181818;stroke-width:1;"/></g><!--link Material to Service--><g id="link_Material_Service"><path codeLine="13" d="M1057.29,992.63 C1077.79,1025.95 1096.2391,1055.9484 1120.1491,1094.8184 " fill="transparent" id="Material-to-Service" style="stroke:#181818;stroke-width:1;"/><polygon fill="transparent" points="1129.58,1110.15,1125.2596,1091.6748,1115.0386,1097.962,1129.58,1110.15" style="stroke:#181818;stroke-width:1;"/></g><!--link Book to Document--><g id="link_Book_Document"><path codeLine="14" d="M624.32,1017.33 C588.94,1046.18 562.0003,1068.1651 525.6003,1097.8451 " fill="transparent" id="Book-to-Document" style="stroke:#181818;stroke-width:1;"/><polygon fill="transparent" points="511.65,1109.22,529.392,1102.4952,521.8087,1093.195,511.65,1109.22" style="stroke:#181818;stroke-width:1;"/></g><!--link Magazine to Document--><g id="link_Magazine_Document"><path codeLine="15" d="M412,1017.33 C412,1036.28 412,1039.18 412,1059.7 " fill="transparent" id="Magazine-to-Document" style="stroke:#181818;stroke-width:1;"/><polygon fill="transparent" points="412,1077.7,418,1059.7,406,1059.7,412,1077.7" style="stroke:#181818;stroke-width:1;"/></g><!--link Audiovisual to Document--><g id="link_Audiovisual_Document"><path codeLine="16" d="M209.56,1017.33 C241.8,1044.91 265.1727,1064.8982 298.6827,1093.5682 " fill="transparent" id="Audiovisual-to-Document" style="stroke:#181818;stroke-width:1;"/><polygon fill="transparent" points="312.36,1105.27,302.5833,1089.0091,294.7821,1098.1273,312.36,1105.27" style="stroke:#181818;stroke-width:1;"/></g><!--SRC=[hLRRRjGm47tVhx3wbAND3rJLIYqBKgKkGYey8CJ3935RGouhsrcn5FwTiUFBsCa24lHX6v-vdPcnnzw1w5bPRjY3g2J8qmvws7F9hjc5w9M6lXR0Jen_uVMeuMALgGrboHxr876HYyfoOEyLbtESFGpGhvmPAwNOFsa7cf-0M6klzWBjxeRXQmBiO0_VHSypK7Cfe4t0boqe9OUXIz3RiH73KQZHQ7Dv53LdDp_AyP0Of8BWVZlKOyTxxGMMNGu6Xhc0XbxL9bZmp9vN3Fyk7xKK_PurNDLI7BGO-WJVSxsDec8z2O-3Q9XAHND7wzLF7zNNmmLb0ZcAnYqwHrzTumPH-iQdis5EeSAalT0K80WWvkVb9ELDy3-b7FrFQo-lVHUyGcYBrx3vGjEOu8NviPJMcTJpBln7o2pN92GByatpoKq2fo9yHU9p9bE6HUYshq6YoIKeRdEQ-Z4NXfJEAT1Cpkb4wkV3EBwfWgqqxa3p_-vqtsJYK6PKyTyBQhJ0g4cM2ygnkAWQ5el1NMLjyEaxKSEz3vNI4cezDOg5q-bE0Jq4xlHeeLkU833gfq56WyDOjQ86Sxu-S702t8qjnw46Hn0jL9aBP8YyigEBY1E7dABwEqCZjvZ0yqQtbcbkvT3CB4u6Ctz_Kv0UkZGPtc6AQSrE1nxjE_Xshtcd20l9zIXxFu8A_w7iVytN_rYiDqWnDx0OIM5czCgaaLjD84rqtXbCTjOOWv5YaBbhJr0wwOMg-bYkVkpUOZ7Kh0QeDQk2mOYNTNHZok0ypKhXSHgEK8mdZko26WvG2trA8hnqO1uXuDHowG3wI_Pljjl_Fb9_sYLkPFXBsassl7KgRLt5vPdkgONkAT8zDU-UTxRGm22ASGbREc1Jmfy7YHTF3DIC4fQU6A-jNXxOeOclbFNM-PkzIpnEWnB6sMln-Up8ePF2WICEBFzGCCFBlH5QV5Hws3mmDuGHtiX6amw4AqQFULXDnpUnDCuAEoLDv2lxX6KcscoB6QNGlGWR0qNt5Zx6NSPP7TfaEQdWyroBUhghaQhVGXy_CP1xbTHTWzIFeXjRtvDORyFPnFGZUWidisalRLxs2RvOxj3GtMHYa_FDJp2hM4kEDx4j68bpnKBraD8l]--></g></svg>