<svg xmlns="http://www.w3.org/2000/svg" xmlns:xlink="http://www.w3.org/1999/xlink" contentStyleType="text/css" data-diagram-type="CLASS" height="1187px" preserveAspectRatio="none" style="width:1453px;height:1187px;background:#FFFFFF;" version="1.1" viewBox="0 0 1453 1187" width="1453px" zoomAndPan="magnify"><defs/><g><!--class LibraryManager--><g id="elem_LibraryManager"><rect codeLine="121" fill="#F1F1F1" height="227.2656" id="LibraryManager" rx="2.5" ry="2.5" style="stroke:#181818;stroke-width:0.5;" width="300.5039" x="736.5" y="7"/><ellipse cx="827.3428" cy="23" fill="#ADD1B2" rx="11" ry="11" style="stroke:#181818;stroke-width:1;"/><path d="M830.3115,28.6406 Q829.7334,28.9375 829.0928,29.0781 Q828.4521,29.2344 827.749,29.2344 Q825.249,29.2344 823.9209,27.5938 Q822.6084,25.9375 822.6084,22.8125 Q822.6084,19.6875 823.9209,18.0313 Q825.249,16.375 827.749,16.375 Q828.4521,16.375 829.0928,16.5313 Q829.749,16.6875 830.3115,16.9844 L830.3115,19.7031 Q829.6865,19.125 829.0928,18.8594 Q828.499,18.5781 827.874,18.5781 Q826.5303,18.5781 825.8428,19.6563 Q825.1553,20.7188 825.1553,22.8125 Q825.1553,24.9063 825.8428,25.9844 Q826.5303,27.0469 827.874,27.0469 Q828.499,27.0469 829.0928,26.7813 Q829.6865,26.5 830.3115,25.9219 L830.3115,28.6406 Z " fill="#000000"/><text fill="#000000" font-family="sans-serif" font-size="14" lengthAdjust="spacing" textLength="110.3184" x="847.8428" y="27.8467">LibraryManager</text><line style="stroke:#181818;stroke-width:0.5;" x1="737.5" x2="1036.0039" y1="39" y2="39"/><ellipse cx="747.5" cy="52.6484" fill="transparent" rx="3" ry="3" style="stroke:#038048;stroke-width:1;"/><text fill="#000000" font-family="sans-serif" font-size="14" lengthAdjust="spacing" textLength="85.9346" x="756.5" y="55.9951">String name</text><ellipse cx="747.5" cy="68.9453" fill="transparent" rx="3" ry="3" style="stroke:#038048;stroke-width:1;"/><text fill="#000000" font-family="sans-serif" font-size="14" lengthAdjust="spacing" textLength="107.8916" x="756.5" y="72.292">String direction</text><line style="stroke:#181818;stroke-width:0.5;" x1="737.5" x2="1036.0039" y1="79.5938" y2="79.5938"/><ellipse cx="747.5" cy="93.2422" fill="#84BE84" rx="3" ry="3" style="stroke:#038048;stroke-width:1;"/><text fill="#000000" font-family="sans-serif" font-size="14" lengthAdjust="spacing" textLength="256.751" x="756.5" y="96.5889">void addElement(Elements element)</text><ellipse cx="747.5" cy="109.5391" fill="#84BE84" rx="3" ry="3" style="stroke:#038048;stroke-width:1;"/><text fill="#000000" font-family="sans-serif" font-size="14" lengthAdjust="spacing" textLength="274.5039" x="756.5" y="112.8857">void deleteElement(Elements element)</text><ellipse cx="747.5" cy="125.8359" fill="#84BE84" rx="3" ry="3" style="stroke:#038048;stroke-width:1;"/><text fill="#000000" font-family="sans-serif" font-size="14" lengthAdjust="spacing" textLength="227.2813" x="756.5" y="129.1826">void searchElement(String type)</text><ellipse cx="747.5" cy="142.1328" fill="#84BE84" rx="3" ry="3" style="stroke:#038048;stroke-width:1;"/><text fill="#000000" font-family="sans-serif" font-size="14" lengthAdjust="spacing" textLength="198.1055" x="756.5" y="145.4795">void registerUser(User user)</text><ellipse cx="747.5" cy="158.4297" fill="#84BE84" rx="3" ry="3" style="stroke:#038048;stroke-width:1;"/><text fill="#000000" font-family="sans-serif" font-size="14" lengthAdjust="spacing" textLength="187.9131" x="756.5" y="161.7764">void deleteUser(User user)</text><ellipse cx="747.5" cy="174.7266" fill="#84BE84" rx="3" ry="3" style="stroke:#038048;stroke-width:1;"/><text fill="#000000" font-family="sans-serif" font-size="14" lengthAdjust="spacing" textLength="121.4473" x="756.5" y="178.0732">String getName()</text><ellipse cx="747.5" cy="191.0234" fill="#84BE84" rx="3" ry="3" style="stroke:#038048;stroke-width:1;"/><text fill="#000000" font-family="sans-serif" font-size="14" lengthAdjust="spacing" textLength="193.6348" x="756.5" y="194.3701">void setName(String name)</text><ellipse cx="747.5" cy="207.3203" fill="#84BE84" rx="3" ry="3" style="stroke:#038048;stroke-width:1;"/><text fill="#000000" font-family="sans-serif" font-size="14" lengthAdjust="spacing" textLength="143.6982" x="756.5" y="210.667">String getDirection()</text><ellipse cx="747.5" cy="223.6172" fill="#84BE84" rx="3" ry="3" style="stroke:#038048;stroke-width:1;"/><text fill="#000000" font-family="sans-serif" font-size="14" lengthAdjust="spacing" textLength="237.8428" x="756.5" y="226.9639">void setDirection(String direction)</text></g><!--class Elements--><g id="elem_Elements"><rect codeLine="21" fill="#F1F1F1" height="390.2344" id="Elements" rx="2.5" ry="2.5" style="stroke:#181818;stroke-width:0.5;" width="255.7764" x="585" y="295"/><ellipse cx="676.0103" cy="311" fill="#ADD1B2" rx="11" ry="11" style="stroke:#181818;stroke-width:1;"/><path d="M678.979,316.6406 Q678.4009,316.9375 677.7603,317.0781 Q677.1196,317.2344 676.4165,317.2344 Q673.9165,317.2344 672.5884,315.5938 Q671.2759,313.9375 671.2759,310.8125 Q671.2759,307.6875 672.5884,306.0313 Q673.9165,304.375 676.4165,304.375 Q677.1196,304.375 677.7603,304.5313 Q678.4165,304.6875 678.979,304.9844 L678.979,307.7031 Q678.354,307.125 677.7603,306.8594 Q677.1665,306.5781 676.5415,306.5781 Q675.1978,306.5781 674.5103,307.6563 Q673.8228,308.7188 673.8228,310.8125 Q673.8228,312.9063 674.5103,313.9844 Q675.1978,315.0469 676.5415,315.0469 Q677.1665,315.0469 677.7603,314.7813 Q678.354,314.5 678.979,313.9219 L678.979,316.6406 Z " fill="#000000"/><text fill="#000000" font-family="sans-serif" font-size="14" lengthAdjust="spacing" textLength="65.2559" x="696.5103" y="315.8467">Elements</text><line style="stroke:#181818;stroke-width:0.5;" x1="586" x2="839.7764" y1="327" y2="327"/><ellipse cx="596" cy="340.6484" fill="transparent" rx="3" ry="3" style="stroke:#038048;stroke-width:1;"/><text fill="#000000" font-family="sans-serif" font-size="14" lengthAdjust="spacing" textLength="35.4785" x="605" y="343.9951">int id</text><ellipse cx="596" cy="356.9453" fill="transparent" rx="3" ry="3" style="stroke:#038048;stroke-width:1;"/><text fill="#000000" font-family="sans-serif" font-size="14" lengthAdjust="spacing" textLength="199.6504" x="605" y="360.292">magazines: List&lt;Magazine&gt;</text><ellipse cx="596" cy="373.2422" fill="transparent" rx="3" ry="3" style="stroke:#038048;stroke-width:1;"/><text fill="#000000" font-family="sans-serif" font-size="14" lengthAdjust="spacing" textLength="133.3623" x="605" y="376.5889">books: List&lt;Book&gt;</text><ellipse cx="596" cy="389.5391" fill="transparent" rx="3" ry="3" style="stroke:#038048;stroke-width:1;"/><text fill="#000000" font-family="sans-serif" font-size="14" lengthAdjust="spacing" textLength="229.7764" x="605" y="392.8857">alaudiovisual: List&lt;Audiovisual&gt;</text><ellipse cx="596" cy="405.8359" fill="transparent" rx="3" ry="3" style="stroke:#038048;stroke-width:1;"/><text fill="#000000" font-family="sans-serif" font-size="14" lengthAdjust="spacing" textLength="172.4092" x="605" y="409.1826">material: List&lt;Material&gt;</text><ellipse cx="596" cy="422.1328" fill="transparent" rx="3" ry="3" style="stroke:#038048;stroke-width:1;"/><text fill="#000000" font-family="sans-serif" font-size="14" lengthAdjust="spacing" textLength="201.7354" x="605" y="425.4795">classroom: List&lt;Classroom&gt;</text><line style="stroke:#181818;stroke-width:0.5;" x1="586" x2="839.7764" y1="432.7813" y2="432.7813"/><ellipse cx="596" cy="446.4297" fill="#84BE84" rx="3" ry="3" style="stroke:#038048;stroke-width:1;"/><text fill="#000000" font-family="sans-serif" font-size="14" lengthAdjust="spacing" textLength="106.1963" x="605" y="449.7764">void addBook()</text><ellipse cx="596" cy="462.7266" fill="#84BE84" rx="3" ry="3" style="stroke:#038048;stroke-width:1;"/><text fill="#000000" font-family="sans-serif" font-size="14" lengthAdjust="spacing" textLength="138.2021" x="605" y="466.0732">void addMagazine()</text><ellipse cx="596" cy="479.0234" fill="#84BE84" rx="3" ry="3" style="stroke:#038048;stroke-width:1;"/><text fill="#000000" font-family="sans-serif" font-size="14" lengthAdjust="spacing" textLength="151.9561" x="605" y="482.3701">void addAudiovisual()</text><ellipse cx="596" cy="495.3203" fill="#84BE84" rx="3" ry="3" style="stroke:#038048;stroke-width:1;"/><text fill="#000000" font-family="sans-serif" font-size="14" lengthAdjust="spacing" textLength="144.71" x="605" y="498.667">void addClassroom()</text><ellipse cx="596" cy="511.6172" fill="#84BE84" rx="3" ry="3" style="stroke:#038048;stroke-width:1;"/><text fill="#000000" font-family="sans-serif" font-size="14" lengthAdjust="spacing" textLength="128.2285" x="605" y="514.9639">void addMaterial()</text><ellipse cx="596" cy="527.9141" fill="#84BE84" rx="3" ry="3" style="stroke:#038048;stroke-width:1;"/><text fill="#000000" font-family="sans-serif" font-size="14" lengthAdjust="spacing" textLength="154.1777" x="605" y="531.2607">void eraseBook(int id)</text><ellipse cx="596" cy="544.2109" fill="#84BE84" rx="3" ry="3" style="stroke:#038048;stroke-width:1;"/><text fill="#000000" font-family="sans-serif" font-size="14" lengthAdjust="spacing" textLength="186.2178" x="605" y="547.5576">void eraseMegazine(int id)</text><ellipse cx="596" cy="560.5078" fill="#84BE84" rx="3" ry="3" style="stroke:#038048;stroke-width:1;"/><text fill="#000000" font-family="sans-serif" font-size="14" lengthAdjust="spacing" textLength="199.9375" x="605" y="563.8545">void eraseAudiovisual(int id)</text><ellipse cx="596" cy="576.8047" fill="#84BE84" rx="3" ry="3" style="stroke:#038048;stroke-width:1;"/><text fill="#000000" font-family="sans-serif" font-size="14" lengthAdjust="spacing" textLength="192.6914" x="605" y="580.1514">void eraseClassroom(int id)</text><ellipse cx="596" cy="593.1016" fill="#84BE84" rx="3" ry="3" style="stroke:#038048;stroke-width:1;"/><text fill="#000000" font-family="sans-serif" font-size="14" lengthAdjust="spacing" textLength="176.21" x="605" y="596.4482">void eraseMaterial(int id)</text><ellipse cx="596" cy="609.3984" fill="#84BE84" rx="3" ry="3" style="stroke:#038048;stroke-width:1;"/><text fill="#000000" font-family="sans-serif" font-size="14" lengthAdjust="spacing" textLength="162.1348" x="605" y="612.7451">void searchBook(int id)</text><ellipse cx="596" cy="625.6953" fill="#84BE84" rx="3" ry="3" style="stroke:#038048;stroke-width:1;"/><text fill="#000000" font-family="sans-serif" font-size="14" lengthAdjust="spacing" textLength="194.1748" x="605" y="629.042">void searchMegazine(int id)</text><ellipse cx="596" cy="641.9922" fill="#84BE84" rx="3" ry="3" style="stroke:#038048;stroke-width:1;"/><text fill="#000000" font-family="sans-serif" font-size="14" lengthAdjust="spacing" textLength="207.8945" x="605" y="645.3389">void searchAudiovisual(int id)</text><ellipse cx="596" cy="658.2891" fill="#84BE84" rx="3" ry="3" style="stroke:#038048;stroke-width:1;"/><text fill="#000000" font-family="sans-serif" font-size="14" lengthAdjust="spacing" textLength="200.6484" x="605" y="661.6357">void searchClassroom(int id)</text><ellipse cx="596" cy="674.5859" fill="#84BE84" rx="3" ry="3" style="stroke:#038048;stroke-width:1;"/><text fill="#000000" font-family="sans-serif" font-size="14" lengthAdjust="spacing" textLength="184.167" x="605" y="677.9326">void searchMaterial(int id)</text></g><!--class User--><g id="elem_User"><rect codeLine="60" fill="#F1F1F1" height="292.4531" id="User" rx="2.5" ry="2.5" style="stroke:#181818;stroke-width:0.5;" width="309.8281" x="907" y="344"/><ellipse cx="1041.709" cy="360" fill="#ADD1B2" rx="11" ry="11" style="stroke:#181818;stroke-width:1;"/><path d="M1044.6777,365.6406 Q1044.0996,365.9375 1043.459,366.0781 Q1042.8184,366.2344 1042.1152,366.2344 Q1039.6152,366.2344 1038.2871,364.5938 Q1036.9746,362.9375 1036.9746,359.8125 Q1036.9746,356.6875 1038.2871,355.0313 Q1039.6152,353.375 1042.1152,353.375 Q1042.8184,353.375 1043.459,353.5313 Q1044.1152,353.6875 1044.6777,353.9844 L1044.6777,356.7031 Q1044.0527,356.125 1043.459,355.8594 Q1042.8652,355.5781 1042.2402,355.5781 Q1040.8965,355.5781 1040.209,356.6563 Q1039.5215,357.7188 1039.5215,359.8125 Q1039.5215,361.9063 1040.209,362.9844 Q1040.8965,364.0469 1042.2402,364.0469 Q1042.8652,364.0469 1043.459,363.7813 Q1044.0527,363.5 1044.6777,362.9219 L1044.6777,365.6406 Z " fill="#000000"/><text fill="#000000" font-family="sans-serif" font-size="14" lengthAdjust="spacing" textLength="31.9102" x="1062.209" y="364.8467">User</text><line style="stroke:#181818;stroke-width:0.5;" x1="908" x2="1215.8281" y1="376" y2="376"/><ellipse cx="918" cy="389.6484" fill="transparent" rx="3" ry="3" style="stroke:#038048;stroke-width:1;"/><text fill="#000000" font-family="sans-serif" font-size="14" lengthAdjust="spacing" textLength="35.4785" x="927" y="392.9951">int id</text><ellipse cx="918" cy="405.9453" fill="transparent" rx="3" ry="3" style="stroke:#038048;stroke-width:1;"/><text fill="#000000" font-family="sans-serif" font-size="14" lengthAdjust="spacing" textLength="85.9346" x="927" y="409.292">String name</text><ellipse cx="918" cy="422.2422" fill="transparent" rx="3" ry="3" style="stroke:#038048;stroke-width:1;"/><text fill="#000000" font-family="sans-serif" font-size="14" lengthAdjust="spacing" textLength="84.8408" x="927" y="425.5889">String email</text><ellipse cx="918" cy="438.5391" fill="transparent" rx="3" ry="3" style="stroke:#038048;stroke-width:1;"/><text fill="#000000" font-family="sans-serif" font-size="14" lengthAdjust="spacing" textLength="77.5059" x="927" y="441.8857">String type</text><ellipse cx="918" cy="454.8359" fill="transparent" rx="3" ry="3" style="stroke:#038048;stroke-width:1;"/><text fill="#000000" font-family="sans-serif" font-size="14" lengthAdjust="spacing" textLength="92.3672" x="927" y="458.1826">int maxItems</text><ellipse cx="918" cy="471.1328" fill="transparent" rx="3" ry="3" style="stroke:#038048;stroke-width:1;"/><text fill="#000000" font-family="sans-serif" font-size="14" lengthAdjust="spacing" textLength="88.1426" x="927" y="474.4795">int maxDays</text><line style="stroke:#181818;stroke-width:0.5;" x1="908" x2="1215.8281" y1="481.7813" y2="481.7813"/><ellipse cx="918" cy="495.4297" fill="#84BE84" rx="3" ry="3" style="stroke:#038048;stroke-width:1;"/><text fill="#000000" font-family="sans-serif" font-size="14" lengthAdjust="spacing" textLength="283.8281" x="927" y="498.7764">void borrowElement (Elements element)</text><ellipse cx="918" cy="511.7266" fill="#84BE84" rx="3" ry="3" style="stroke:#038048;stroke-width:1;"/><text fill="#000000" font-family="sans-serif" font-size="14" lengthAdjust="spacing" textLength="278.209" x="927" y="515.0732">void returnElement (Elements element)</text><ellipse cx="918" cy="528.0234" fill="#84BE84" rx="3" ry="3" style="stroke:#038048;stroke-width:1;"/><text fill="#000000" font-family="sans-serif" font-size="14" lengthAdjust="spacing" textLength="231.7314" x="927" y="531.3701">void searchElement (String type)</text><ellipse cx="918" cy="544.3203" fill="#84BE84" rx="3" ry="3" style="stroke:#038048;stroke-width:1;"/><text fill="#000000" font-family="sans-serif" font-size="14" lengthAdjust="spacing" textLength="93.1602" x="927" y="547.667">String getId()</text><ellipse cx="918" cy="560.6172" fill="#84BE84" rx="3" ry="3" style="stroke:#038048;stroke-width:1;"/><text fill="#000000" font-family="sans-serif" font-size="14" lengthAdjust="spacing" textLength="138.4209" x="927" y="563.9639">void setId(String id)</text><ellipse cx="918" cy="576.9141" fill="#84BE84" rx="3" ry="3" style="stroke:#038048;stroke-width:1;"/><text fill="#000000" font-family="sans-serif" font-size="14" lengthAdjust="spacing" textLength="121.4473" x="927" y="580.2607">String getName()</text><ellipse cx="918" cy="593.2109" fill="#84BE84" rx="3" ry="3" style="stroke:#038048;stroke-width:1;"/><text fill="#000000" font-family="sans-serif" font-size="14" lengthAdjust="spacing" textLength="193.6348" x="927" y="596.5576">void setName(String name)</text><ellipse cx="918" cy="609.5078" fill="#84BE84" rx="3" ry="3" style="stroke:#038048;stroke-width:1;"/><text fill="#000000" font-family="sans-serif" font-size="14" lengthAdjust="spacing" textLength="118.9863" x="927" y="612.8545">String getEmail()</text><ellipse cx="918" cy="625.8047" fill="#84BE84" rx="3" ry="3" style="stroke:#038048;stroke-width:1;"/><text fill="#000000" font-family="sans-serif" font-size="14" lengthAdjust="spacing" textLength="190.0801" x="927" y="629.1514">void setEmail(String email)</text></g><!--class Book--><g id="elem_Book"><rect codeLine="78" fill="#F1F1F1" height="145.7813" id="Book" rx="2.5" ry="2.5" style="stroke:#181818;stroke-width:0.5;" width="263.0977" x="581.5" y="746"/><ellipse cx="691.3774" cy="762" fill="#ADD1B2" rx="11" ry="11" style="stroke:#181818;stroke-width:1;"/><path d="M694.3462,767.6406 Q693.7681,767.9375 693.1274,768.0781 Q692.4868,768.2344 691.7837,768.2344 Q689.2837,768.2344 687.9556,766.5938 Q686.6431,764.9375 686.6431,761.8125 Q686.6431,758.6875 687.9556,757.0313 Q689.2837,755.375 691.7837,755.375 Q692.4868,755.375 693.1274,755.5313 Q693.7837,755.6875 694.3462,755.9844 L694.3462,758.7031 Q693.7212,758.125 693.1274,757.8594 Q692.5337,757.5781 691.9087,757.5781 Q690.5649,757.5781 689.8774,758.6563 Q689.1899,759.7188 689.1899,761.8125 Q689.1899,763.9063 689.8774,764.9844 Q690.5649,766.0469 691.9087,766.0469 Q692.5337,766.0469 693.1274,765.7813 Q693.7212,765.5 694.3462,764.9219 L694.3462,767.6406 Z " fill="#000000"/><text fill="#000000" font-family="sans-serif" font-size="14" lengthAdjust="spacing" textLength="34.8428" x="711.8774" y="766.8467">Book</text><line style="stroke:#181818;stroke-width:0.5;" x1="582.5" x2="843.5977" y1="778" y2="778"/><ellipse cx="592.5" cy="791.6484" fill="transparent" rx="3" ry="3" style="stroke:#038048;stroke-width:1;"/><text fill="#000000" font-family="sans-serif" font-size="14" lengthAdjust="spacing" textLength="75.1748" x="601.5" y="794.9951">String isbn</text><ellipse cx="592.5" cy="807.9453" fill="transparent" rx="3" ry="3" style="stroke:#038048;stroke-width:1;"/><text fill="#000000" font-family="sans-serif" font-size="14" lengthAdjust="spacing" textLength="95.9014" x="601.5" y="811.292">int numPages</text><line style="stroke:#181818;stroke-width:0.5;" x1="582.5" x2="843.5977" y1="818.5938" y2="818.5938"/><ellipse cx="592.5" cy="832.2422" fill="#84BE84" rx="3" ry="3" style="stroke:#038048;stroke-width:1;"/><text fill="#000000" font-family="sans-serif" font-size="14" lengthAdjust="spacing" textLength="109.3271" x="601.5" y="835.5889">String getIsbn()</text><ellipse cx="592.5" cy="848.5391" fill="#84BE84" rx="3" ry="3" style="stroke:#038048;stroke-width:1;"/><text fill="#000000" font-family="sans-serif" font-size="14" lengthAdjust="spacing" textLength="170.7549" x="601.5" y="851.8857">void setIsbn(String isbn)</text><ellipse cx="592.5" cy="864.8359" fill="#84BE84" rx="3" ry="3" style="stroke:#038048;stroke-width:1;"/><text fill="#000000" font-family="sans-serif" font-size="14" lengthAdjust="spacing" textLength="131.4141" x="601.5" y="868.1826">int getNumPages()</text><ellipse cx="592.5" cy="881.1328" fill="#84BE84" rx="3" ry="3" style="stroke:#038048;stroke-width:1;"/><text fill="#000000" font-family="sans-serif" font-size="14" lengthAdjust="spacing" textLength="237.0977" x="601.5" y="884.4795">void setNumPages(int numPages)</text></g><!--class Magazine--><g id="elem_Magazine"><rect codeLine="103" fill="#F1F1F1" height="145.7813" id="Magazine" rx="2.5" ry="2.5" style="stroke:#181818;stroke-width:0.5;" width="267.7939" x="278" y="746"/><ellipse cx="374.2227" cy="762" fill="#ADD1B2" rx="11" ry="11" style="stroke:#181818;stroke-width:1;"/><path d="M377.1914,767.6406 Q376.6133,767.9375 375.9727,768.0781 Q375.332,768.2344 374.6289,768.2344 Q372.1289,768.2344 370.8008,766.5938 Q369.4883,764.9375 369.4883,761.8125 Q369.4883,758.6875 370.8008,757.0313 Q372.1289,755.375 374.6289,755.375 Q375.332,755.375 375.9727,755.5313 Q376.6289,755.6875 377.1914,755.9844 L377.1914,758.7031 Q376.5664,758.125 375.9727,757.8594 Q375.3789,757.5781 374.7539,757.5781 Q373.4102,757.5781 372.7227,758.6563 Q372.0352,759.7188 372.0352,761.8125 Q372.0352,763.9063 372.7227,764.9844 Q373.4102,766.0469 374.7539,766.0469 Q375.3789,766.0469 375.9727,765.7813 Q376.5664,765.5 377.1914,764.9219 L377.1914,767.6406 Z " fill="#000000"/><text fill="#000000" font-family="sans-serif" font-size="14" lengthAdjust="spacing" textLength="66.8486" x="394.7227" y="766.8467">Magazine</text><line style="stroke:#181818;stroke-width:0.5;" x1="279" x2="544.7939" y1="778" y2="778"/><ellipse cx="289" cy="791.6484" fill="transparent" rx="3" ry="3" style="stroke:#038048;stroke-width:1;"/><text fill="#000000" font-family="sans-serif" font-size="14" lengthAdjust="spacing" textLength="73.582" x="298" y="794.9951">String issn</text><ellipse cx="289" cy="807.9453" fill="transparent" rx="3" ry="3" style="stroke:#038048;stroke-width:1;"/><text fill="#000000" font-family="sans-serif" font-size="14" lengthAdjust="spacing" textLength="119.1572" x="298" y="811.292">int numberPages</text><line style="stroke:#181818;stroke-width:0.5;" x1="279" x2="544.7939" y1="818.5938" y2="818.5938"/><ellipse cx="289" cy="832.2422" fill="#84BE84" rx="3" ry="3" style="stroke:#038048;stroke-width:1;"/><text fill="#000000" font-family="sans-serif" font-size="14" lengthAdjust="spacing" textLength="107.7344" x="298" y="835.5889">String getIssn()</text><ellipse cx="289" cy="848.5391" fill="#84BE84" rx="3" ry="3" style="stroke:#038048;stroke-width:1;"/><text fill="#000000" font-family="sans-serif" font-size="14" lengthAdjust="spacing" textLength="167.5693" x="298" y="851.8857">void setIssn(String issn)</text><ellipse cx="289" cy="864.8359" fill="#84BE84" rx="3" ry="3" style="stroke:#038048;stroke-width:1;"/><text fill="#000000" font-family="sans-serif" font-size="14" lengthAdjust="spacing" textLength="154.6699" x="298" y="868.1826">int getNumberPages()</text><ellipse cx="289" cy="881.1328" fill="#84BE84" rx="3" ry="3" style="stroke:#038048;stroke-width:1;"/><text fill="#000000" font-family="sans-serif" font-size="14" lengthAdjust="spacing" textLength="241.7939" x="298" y="884.4795">void setNumberPages(int number)</text></g><!--class Material--><g id="elem_Material"><rect codeLine="15" fill="#F1F1F1" height="96.8906" id="Material" rx="2.5" ry="2.5" style="stroke:#181818;stroke-width:0.5;" width="296.2041" x="880" y="770.5"/><ellipse cx="995.4146" cy="786.5" fill="#ADD1B2" rx="11" ry="11" style="stroke:#181818;stroke-width:1;"/><path d="M998.3833,792.1406 Q997.8052,792.4375 997.1646,792.5781 Q996.5239,792.7344 995.8208,792.7344 Q993.3208,792.7344 991.9927,791.0938 Q990.6802,789.4375 990.6802,786.3125 Q990.6802,783.1875 991.9927,781.5313 Q993.3208,779.875 995.8208,779.875 Q996.5239,779.875 997.1646,780.0313 Q997.8208,780.1875 998.3833,780.4844 L998.3833,783.2031 Q997.7583,782.625 997.1646,782.3594 Q996.5708,782.0781 995.9458,782.0781 Q994.6021,782.0781 993.9146,783.1563 Q993.2271,784.2188 993.2271,786.3125 Q993.2271,788.4063 993.9146,789.4844 Q994.6021,790.5469 995.9458,790.5469 Q996.5708,790.5469 997.1646,790.2813 Q997.7583,790 998.3833,789.4219 L998.3833,792.1406 Z " fill="#000000"/><text fill="#000000" font-family="sans-serif" font-size="14" lengthAdjust="spacing" textLength="56.875" x="1015.9146" y="791.3467">Material</text><line style="stroke:#181818;stroke-width:0.5;" x1="881" x2="1175.2041" y1="802.5" y2="802.5"/><ellipse cx="891" cy="816.1484" fill="transparent" rx="3" ry="3" style="stroke:#038048;stroke-width:1;"/><text fill="#000000" font-family="sans-serif" font-size="14" lengthAdjust="spacing" textLength="124.0723" x="900" y="819.4951">String description</text><line style="stroke:#181818;stroke-width:0.5;" x1="881" x2="1175.2041" y1="826.7969" y2="826.7969"/><ellipse cx="891" cy="840.4453" fill="#84BE84" rx="3" ry="3" style="stroke:#038048;stroke-width:1;"/><text fill="#000000" font-family="sans-serif" font-size="14" lengthAdjust="spacing" textLength="159.8789" x="900" y="843.792">String getDescription()</text><ellipse cx="891" cy="856.7422" fill="#84BE84" rx="3" ry="3" style="stroke:#038048;stroke-width:1;"/><text fill="#000000" font-family="sans-serif" font-size="14" lengthAdjust="spacing" textLength="270.2041" x="900" y="860.0889">void setDescription(String description)</text></g><!--class Classroom--><g id="elem_Classroom"><rect codeLine="87" fill="#F1F1F1" height="96.8906" id="Classroom" rx="2.5" ry="2.5" style="stroke:#181818;stroke-width:0.5;" width="235.3848" x="1211.5" y="770.5"/><ellipse cx="1288.2642" cy="786.5" fill="#ADD1B2" rx="11" ry="11" style="stroke:#181818;stroke-width:1;"/><path d="M1291.2329,792.1406 Q1290.6548,792.4375 1290.0142,792.5781 Q1289.3735,792.7344 1288.6704,792.7344 Q1286.1704,792.7344 1284.8423,791.0938 Q1283.5298,789.4375 1283.5298,786.3125 Q1283.5298,783.1875 1284.8423,781.5313 Q1286.1704,779.875 1288.6704,779.875 Q1289.3735,779.875 1290.0142,780.0313 Q1290.6704,780.1875 1291.2329,780.4844 L1291.2329,783.2031 Q1290.6079,782.625 1290.0142,782.3594 Q1289.4204,782.0781 1288.7954,782.0781 Q1287.4517,782.0781 1286.7642,783.1563 Q1286.0767,784.2188 1286.0767,786.3125 Q1286.0767,788.4063 1286.7642,789.4844 Q1287.4517,790.5469 1288.7954,790.5469 Q1289.4204,790.5469 1290.0142,790.2813 Q1290.6079,790 1291.2329,789.4219 L1291.2329,792.1406 Z " fill="#000000"/><text fill="#000000" font-family="sans-serif" font-size="14" lengthAdjust="spacing" textLength="73.3564" x="1308.7642" y="791.3467">Classroom</text><line style="stroke:#181818;stroke-width:0.5;" x1="1212.5" x2="1445.8848" y1="802.5" y2="802.5"/><ellipse cx="1222.5" cy="816.1484" fill="transparent" rx="3" ry="3" style="stroke:#038048;stroke-width:1;"/><text fill="#000000" font-family="sans-serif" font-size="14" lengthAdjust="spacing" textLength="81.8057" x="1231.5" y="819.4951">int capacity</text><line style="stroke:#181818;stroke-width:0.5;" x1="1212.5" x2="1445.8848" y1="826.7969" y2="826.7969"/><ellipse cx="1222.5" cy="840.4453" fill="#84BE84" rx="3" ry="3" style="stroke:#038048;stroke-width:1;"/><text fill="#000000" font-family="sans-serif" font-size="14" lengthAdjust="spacing" textLength="117.7969" x="1231.5" y="843.792">int getCapacity()</text><ellipse cx="1222.5" cy="856.7422" fill="#84BE84" rx="3" ry="3" style="stroke:#038048;stroke-width:1;"/><text fill="#000000" font-family="sans-serif" font-size="14" lengthAdjust="spacing" textLength="209.3848" x="1231.5" y="860.0889">void setCapacity(int capacity)</text></g><!--class Audiovisual--><g id="elem_Audiovisual"><rect codeLine="112" fill="#F1F1F1" height="145.7813" id="Audiovisual" rx="2.5" ry="2.5" style="stroke:#181818;stroke-width:0.5;" width="235.665" x="7" y="746"/><ellipse cx="80.2813" cy="762" fill="#ADD1B2" rx="11" ry="11" style="stroke:#181818;stroke-width:1;"/><path d="M83.25,767.6406 Q82.6719,767.9375 82.0313,768.0781 Q81.3906,768.2344 80.6875,768.2344 Q78.1875,768.2344 76.8594,766.5938 Q75.5469,764.9375 75.5469,761.8125 Q75.5469,758.6875 76.8594,757.0313 Q78.1875,755.375 80.6875,755.375 Q81.3906,755.375 82.0313,755.5313 Q82.6875,755.6875 83.25,755.9844 L83.25,758.7031 Q82.625,758.125 82.0313,757.8594 Q81.4375,757.5781 80.8125,757.5781 Q79.4688,757.5781 78.7813,758.6563 Q78.0938,759.7188 78.0938,761.8125 Q78.0938,763.9063 78.7813,764.9844 Q79.4688,766.0469 80.8125,766.0469 Q81.4375,766.0469 82.0313,765.7813 Q82.625,765.5 83.25,764.9219 L83.25,767.6406 Z " fill="#000000"/><text fill="#000000" font-family="sans-serif" font-size="14" lengthAdjust="spacing" textLength="80.6025" x="100.7813" y="766.8467">Audiovisual</text><line style="stroke:#181818;stroke-width:0.5;" x1="8" x2="241.665" y1="778" y2="778"/><ellipse cx="18" cy="791.6484" fill="transparent" rx="3" ry="3" style="stroke:#038048;stroke-width:1;"/><text fill="#000000" font-family="sans-serif" font-size="14" lengthAdjust="spacing" textLength="93.1875" x="27" y="794.9951">String format</text><ellipse cx="18" cy="807.9453" fill="transparent" rx="3" ry="3" style="stroke:#038048;stroke-width:1;"/><text fill="#000000" font-family="sans-serif" font-size="14" lengthAdjust="spacing" textLength="81.6143" x="27" y="811.292">int duration</text><line style="stroke:#181818;stroke-width:0.5;" x1="8" x2="241.665" y1="818.5938" y2="818.5938"/><ellipse cx="18" cy="832.2422" fill="#84BE84" rx="3" ry="3" style="stroke:#038048;stroke-width:1;"/><text fill="#000000" font-family="sans-serif" font-size="14" lengthAdjust="spacing" textLength="130.2246" x="27" y="835.5889">String getFormat()</text><ellipse cx="18" cy="848.5391" fill="#84BE84" rx="3" ry="3" style="stroke:#038048;stroke-width:1;"/><text fill="#000000" font-family="sans-serif" font-size="14" lengthAdjust="spacing" textLength="209.665" x="27" y="851.8857">void setFormat(String format)</text><ellipse cx="18" cy="864.8359" fill="#84BE84" rx="3" ry="3" style="stroke:#038048;stroke-width:1;"/><text fill="#000000" font-family="sans-serif" font-size="14" lengthAdjust="spacing" textLength="117.4209" x="27" y="868.1826">int getDuration()</text><ellipse cx="18" cy="881.1328" fill="#84BE84" rx="3" ry="3" style="stroke:#038048;stroke-width:1;"/><text fill="#000000" font-family="sans-serif" font-size="14" lengthAdjust="spacing" textLength="208.8174" x="27" y="884.4795">void setDuration(int duration)</text></g><!--class Service--><g id="elem_Service"><rect codeLine="93" fill="#F1F1F1" height="162.0781" id="Service" rx="2.5" ry="2.5" style="stroke:#181818;stroke-width:0.5;" width="192.708" x="1082.5" y="985.5"/><ellipse cx="1148.7334" cy="1001.5" fill="#A9DCDF" rx="11" ry="11" style="stroke:#181818;stroke-width:1;"/><path d="M1148.8428,996.8438 L1147.6865,1001.9219 L1150.0146,1001.9219 L1148.8428,996.8438 Z M1147.3584,994.6094 L1150.3428,994.6094 L1153.7021,1007 L1151.249,1007 L1150.4834,1003.9375 L1147.2021,1003.9375 L1146.4521,1007 L1144.0146,1007 L1147.3584,994.6094 Z " fill="#000000"/><text fill="#000000" font-family="sans-serif" font-size="14" font-style="italic" lengthAdjust="spacing" textLength="51.7412" x="1169.2334" y="1006.3467">Service</text><line style="stroke:#181818;stroke-width:0.5;" x1="1083.5" x2="1274.208" y1="1017.5" y2="1017.5"/><ellipse cx="1093.5" cy="1031.1484" fill="transparent" rx="3" ry="3" style="stroke:#038048;stroke-width:1;"/><text fill="#000000" font-family="sans-serif" font-size="14" lengthAdjust="spacing" textLength="35.4785" x="1102.5" y="1034.4951">int id</text><ellipse cx="1093.5" cy="1047.4453" fill="transparent" rx="3" ry="3" style="stroke:#038048;stroke-width:1;"/><text fill="#000000" font-family="sans-serif" font-size="14" lengthAdjust="spacing" textLength="85.9346" x="1102.5" y="1050.792">String name</text><ellipse cx="1093.5" cy="1063.7422" fill="transparent" rx="3" ry="3" style="stroke:#038048;stroke-width:1;"/><text fill="#000000" font-family="sans-serif" font-size="14" lengthAdjust="spacing" textLength="123.6143" x="1102.5" y="1067.0889">boolean available</text><line style="stroke:#181818;stroke-width:0.5;" x1="1083.5" x2="1274.208" y1="1074.3906" y2="1074.3906"/><ellipse cx="1093.5" cy="1088.0391" fill="#84BE84" rx="3" ry="3" style="stroke:#038048;stroke-width:1;"/><text fill="#000000" font-family="sans-serif" font-size="14" lengthAdjust="spacing" textLength="93.1602" x="1102.5" y="1091.3857">String getId()</text><ellipse cx="1093.5" cy="1104.3359" fill="#84BE84" rx="3" ry="3" style="stroke:#038048;stroke-width:1;"/><text fill="#000000" font-family="sans-serif" font-size="14" lengthAdjust="spacing" textLength="138.4209" x="1102.5" y="1107.6826">void setId(String id)</text><ellipse cx="1093.5" cy="1120.6328" fill="#84BE84" rx="3" ry="3" style="stroke:#038048;stroke-width:1;"/><text fill="#000000" font-family="sans-serif" font-size="14" lengthAdjust="spacing" textLength="121.4473" x="1102.5" y="1123.9795">String getName()</text><ellipse cx="1093.5" cy="1136.9297" fill="#84BE84" rx="3" ry="3" style="stroke:#038048;stroke-width:1;"/><text fill="#000000" font-family="sans-serif" font-size="14" lengthAdjust="spacing" textLength="166.708" x="1102.5" y="1140.2764">void setName(String id)</text></g><!--class Document--><g id="elem_Document"><rect codeLine="45" fill="#F1F1F1" height="227.2656" id="Document" rx="2.5" ry="2.5" style="stroke:#181818;stroke-width:0.5;" width="198.5391" x="312.5" y="953"/><ellipse cx="371.2549" cy="969" fill="#A9DCDF" rx="11" ry="11" style="stroke:#181818;stroke-width:1;"/><path d="M371.3643,964.3438 L370.208,969.4219 L372.5361,969.4219 L371.3643,964.3438 Z M369.8799,962.1094 L372.8643,962.1094 L376.2236,974.5 L373.7705,974.5 L373.0049,971.4375 L369.7236,971.4375 L368.9736,974.5 L366.5361,974.5 L369.8799,962.1094 Z " fill="#000000"/><text fill="#000000" font-family="sans-serif" font-size="14" font-style="italic" lengthAdjust="spacing" textLength="72.5293" x="391.7549" y="973.8467">Document</text><line style="stroke:#181818;stroke-width:0.5;" x1="313.5" x2="510.0391" y1="985" y2="985"/><ellipse cx="323.5" cy="998.6484" fill="transparent" rx="3" ry="3" style="stroke:#038048;stroke-width:1;"/><text fill="#000000" font-family="sans-serif" font-size="14" lengthAdjust="spacing" textLength="35.4785" x="332.5" y="1001.9951">int id</text><ellipse cx="323.5" cy="1014.9453" fill="transparent" rx="3" ry="3" style="stroke:#038048;stroke-width:1;"/><text fill="#000000" font-family="sans-serif" font-size="14" lengthAdjust="spacing" textLength="73.6025" x="332.5" y="1018.292">String title</text><ellipse cx="323.5" cy="1031.2422" fill="transparent" rx="3" ry="3" style="stroke:#038048;stroke-width:1;"/><text fill="#000000" font-family="sans-serif" font-size="14" lengthAdjust="spacing" textLength="92.3672" x="332.5" y="1034.5889">String author</text><ellipse cx="323.5" cy="1047.5391" fill="transparent" rx="3" ry="3" style="stroke:#038048;stroke-width:1;"/><text fill="#000000" font-family="sans-serif" font-size="14" lengthAdjust="spacing" textLength="131.7217" x="332.5" y="1050.8857">int publicationYear</text><ellipse cx="323.5" cy="1063.8359" fill="transparent" rx="3" ry="3" style="stroke:#038048;stroke-width:1;"/><text fill="#000000" font-family="sans-serif" font-size="14" lengthAdjust="spacing" textLength="123.6143" x="332.5" y="1067.1826">boolean available</text><line style="stroke:#181818;stroke-width:0.5;" x1="313.5" x2="510.0391" y1="1074.4844" y2="1074.4844"/><ellipse cx="323.5" cy="1088.1328" fill="#84BE84" rx="3" ry="3" style="stroke:#038048;stroke-width:1;"/><text fill="#000000" font-family="sans-serif" font-size="14" lengthAdjust="spacing" textLength="93.1602" x="332.5" y="1091.4795">String getId()</text><ellipse cx="323.5" cy="1104.4297" fill="#84BE84" rx="3" ry="3" style="stroke:#038048;stroke-width:1;"/><text fill="#000000" font-family="sans-serif" font-size="14" lengthAdjust="spacing" textLength="138.4209" x="332.5" y="1107.7764">void setId(String id)</text><ellipse cx="323.5" cy="1120.7266" fill="#84BE84" rx="3" ry="3" style="stroke:#038048;stroke-width:1;"/><text fill="#000000" font-family="sans-serif" font-size="14" lengthAdjust="spacing" textLength="110.5781" x="332.5" y="1124.0732">String getTitle()</text><ellipse cx="323.5" cy="1137.0234" fill="#84BE84" rx="3" ry="3" style="stroke:#038048;stroke-width:1;"/><text fill="#000000" font-family="sans-serif" font-size="14" lengthAdjust="spacing" textLength="155.8389" x="332.5" y="1140.3701">void setTitle(String id)</text><ellipse cx="323.5" cy="1153.3203" fill="#84BE84" rx="3" ry="3" style="stroke:#038048;stroke-width:1;"/><text fill="#000000" font-family="sans-serif" font-size="14" lengthAdjust="spacing" textLength="127.2783" x="332.5" y="1156.667">String getAuthor()</text><ellipse cx="323.5" cy="1169.6172" fill="#84BE84" rx="3" ry="3" style="stroke:#038048;stroke-width:1;"/><text fill="#000000" font-family="sans-serif" font-size="14" lengthAdjust="spacing" textLength="172.5391" x="332.5" y="1172.9639">void setAuthor(String id)</text></g><!--reverse link LibraryManager to Elements--><g id="link_LibraryManager_Elements"><path codeLine="1" d="M828.5949,244.8558 C819.4049,264.2658 814.75,274.1 804.88,294.94 " fill="transparent" id="LibraryManager-backto-Elements" style="stroke:#181818;stroke-width:1;"/><polygon fill="transparent" points="833.73,234.01,827.5472,237.7212,828.5949,244.8558,834.7777,241.1446,833.73,234.01" style="stroke:#181818;stroke-width:1;"/></g><!--link LibraryManager to User--><g id="link_LibraryManager_User"><path codeLine="2" d="M940.58,234.01 C957.06,268.62 970.2811,296.3855 987.6511,332.8655 " fill="transparent" id="LibraryManager-to-User" style="stroke:#181818;stroke-width:1;"/><polygon fill="transparent" points="992.81,343.7,993.8421,336.5631,987.6511,332.8655,986.6191,340.0024,992.81,343.7" style="stroke:#181818;stroke-width:1;"/></g><!--reverse link Elements to User--><g id="link_Elements_User"><path codeLine="3" d="M847.47,490 C868.75,490 885.02,490 906.87,490 " fill="transparent" id="Elements-backto-User" style="stroke:#181818;stroke-width:1;stroke-dasharray:7.0,7.0;"/><polygon fill="#181818" points="841.47,490,850.47,494,846.47,490,850.47,486,841.47,490" style="stroke:#181818;stroke-width:1;"/><text fill="#000000" font-family="sans-serif" font-size="13" lengthAdjust="spacing" textLength="29.7832" x="859.5" y="483.0669">uses</text></g><!--reverse link Elements to Book--><g id="link_Elements_Book"><path codeLine="4" d="M713,697.47 C713,718.86 713,727.52 713,745.91 " fill="transparent" id="Elements-backto-Book" style="stroke:#181818;stroke-width:1;"/><polygon fill="#181818" points="713,685.47,709,691.47,713,697.47,717,691.47,713,685.47" style="stroke:#181818;stroke-width:1;"/></g><!--reverse link Elements to Magazine--><g id="link_Elements_Magazine"><path codeLine="5" d="M576.7835,638.9795 C540.1435,678.7895 509.82,711.74 478.5,745.76 " fill="transparent" id="Elements-backto-Magazine" style="stroke:#181818;stroke-width:1;"/><polygon fill="#181818" points="584.91,630.15,577.9036,631.8559,576.7835,638.9795,583.79,637.2736,584.91,630.15" style="stroke:#181818;stroke-width:1;"/></g><!--reverse link Elements to Material--><g id="link_Elements_Material"><path codeLine="6" d="M849.3117,643.357 C865.2417,660.527 873.3,668.87 889,685 C917.19,713.95 949.79,745.25 976.33,770.21 " fill="transparent" id="Elements-backto-Material" style="stroke:#181818;stroke-width:1;"/><polygon fill="#181818" points="841.15,634.56,842.2985,641.6791,849.3117,643.357,848.1632,636.2379,841.15,634.56" style="stroke:#181818;stroke-width:1;"/></g><!--reverse link Elements to Classroom--><g id="link_Elements_Classroom"><path codeLine="7" d="M850.375,658.8515 C865.425,671.6715 872.29,675.52 889,685 C1009.26,753.17 1063.84,699.42 1194,746 C1212.38,752.58 1231.34,761.31 1249.02,770.43 " fill="transparent" id="Elements-backto-Classroom" style="stroke:#181818;stroke-width:1;"/><polygon fill="#181818" points="841.24,651.07,843.2137,658.0057,850.375,658.8515,848.4013,651.9157,841.24,651.07" style="stroke:#181818;stroke-width:1;"/></g><!--reverse link Elements to Audiovisual--><g id="link_Elements_Audiovisual"><path codeLine="8" d="M574.2023,568.1916 C472.4823,624.7516 341.98,697.33 243.04,752.35 " fill="transparent" id="Elements-backto-Audiovisual" style="stroke:#181818;stroke-width:1;"/><polygon fill="#181818" points="584.69,562.36,577.5023,561.7799,574.2023,568.1916,581.39,568.7717,584.69,562.36" style="stroke:#181818;stroke-width:1;"/></g><!--link Classroom to Service--><g id="link_Classroom_Service"><path codeLine="9" d="M1299.9,867.63 C1279.54,900.95 1261.2221,930.9185 1237.4821,969.7885 " fill="transparent" id="Classroom-to-Service" style="stroke:#181818;stroke-width:1;"/><polygon fill="transparent" points="1228.1,985.15,1242.6026,972.9159,1232.3616,966.6611,1228.1,985.15" style="stroke:#181818;stroke-width:1;"/></g><!--link Material to Service--><g id="link_Material_Service"><path codeLine="10" d="M1057.29,867.63 C1077.79,900.95 1096.2391,930.9484 1120.1491,969.8184 " fill="transparent" id="Material-to-Service" style="stroke:#181818;stroke-width:1;"/><polygon fill="transparent" points="1129.58,985.15,1125.2596,966.6748,1115.0386,972.962,1129.58,985.15" style="stroke:#181818;stroke-width:1;"/></g><!--link Book to Document--><g id="link_Book_Document"><path codeLine="11" d="M624.32,892.33 C588.94,921.18 562.0003,943.1651 525.6003,972.8451 " fill="transparent" id="Book-to-Document" style="stroke:#181818;stroke-width:1;"/><polygon fill="transparent" points="511.65,984.22,529.392,977.4952,521.8087,968.195,511.65,984.22" style="stroke:#181818;stroke-width:1;"/></g><!--link Magazine to Document--><g id="link_Magazine_Document"><path codeLine="12" d="M412,892.33 C412,911.28 412,914.18 412,934.7 " fill="transparent" id="Magazine-to-Document" style="stroke:#181818;stroke-width:1;"/><polygon fill="transparent" points="412,952.7,418,934.7,406,934.7,412,952.7" style="stroke:#181818;stroke-width:1;"/></g><!--link Audiovisual to Document--><g id="link_Audiovisual_Document"><path codeLine="13" d="M209.56,892.33 C241.8,919.91 265.1727,939.8982 298.6827,968.5682 " fill="transparent" id="Audiovisual-to-Document" style="stroke:#181818;stroke-width:1;"/><polygon fill="transparent" points="312.36,980.27,302.5833,964.0091,294.7821,973.1273,312.36,980.27" style="stroke:#181818;stroke-width:1;"/></g><!--SRC=[hLRBRjim4BpxAtYCMpWV41W6qZW50jX5WRI77bVIHYOgYGP9kNNJ_difyKrAhe4q9sTc7xExv58xMd3WvprqK2CdRBKYZmsss4cnsCNSQiN8Lu5yOGt8-fRJ-Y1lHvZSaLwWyEmx5Ui3OzzZP0yr_A8TfgX4Jg69qOS6XE2CjJ5ytrUKdQZebVqpyXCjaQn_h_fZw94GBi6MbVqGoXAZmXHq8bCYJBqeXsGkCdbT4FNt_bbosjMaGb5oUfIKTH5UeznwwcQfoHEZ5H4nbGTQBlxOhAuX9YjL6ccbVxT6lRWZEohasbQp8PelLCcM6ygtE3JWopDyKF36HjVrkk3wNyEMTW26TWFP18L2LGrve-8LPdMcUA0XfLpuF9QM5U78GU2OMRShu_Pe5CpmeP8P4wzeBeTLblC2WPU76O6QlA1G6roMg6qkQJHfKf7gu44X98TI4dq2tTMOE87cw4eg6umGwEM1SUzmx8k6bZ0SxcygiJkV3K97u0IqWI89eIxGKvNU6uKOsbNZpRyCCb8F3SuxtOzAKo-39cx-MewBSBuX7RHnCTYg4kEUdO_e_Llu-IIn5H6oXRC8P1MCS_R3B0HoupO3wXzX1HnbpxkhJFKvSAQ1kkKRn_59DI5r6B6WIPdJuz2er4k3OIk33JbSesGdKr5qlfDTttvM3vl8ob5MMK435aHP-Z13HIPILfN5mtI1H7SFmoDJmX5AAizHXWS3fXaS7dfEtLRx75vpDl_t_VlNmCr-iS-fNd3Pw4GykWBvpFJ4nFH4C3sHJyy6cnYWetpUG6smRHF1Buohbz8dgdeEKny37qUxDB51erYnwgs9btr1M3nC6YXEFkfUB- -dYd8ilMpxkfgrS761L0gJU8rbj6ecDerPNRNwda0-RDYRSSsghqsU9vpatxXyjhOBMRCTaVPBTVml]--></g></svg>