<svg xmlns="http://www.w3.org/2000/svg" xmlns:xlink="http://www.w3.org/1999/xlink" contentStyleType="text/css" data-diagram-type="STATE" height="492px" preserveAspectRatio="none" style="width:867px;height:492px;background:#FFFFFF;" version="1.1" viewBox="0 0 867 492" width="867px" zoomAndPan="magnify"><defs/><g><path d="M19.5,7 L841.4956,7 A12.5,12.5 0 0 1 853.9956,19.5 L853.9956,33.2969 L7,33.2969 L7,19.5 A12.5,12.5 0 0 1 19.5,7" fill="#F1F1F1" style="stroke:#F1F1F1;stroke-width:1;"/><rect fill="none" height="479.2969" rx="12.5" ry="12.5" style="stroke:#181818;stroke-width:0.5;" width="846.9956" x="7" y="7"/><line style="stroke:#181818;stroke-width:0.5;" x1="7" x2="853.9956" y1="33.2969" y2="33.2969"/><text fill="#000000" font-family="sans-serif" font-size="14" lengthAdjust="spacing" textLength="144.4775" x="358.2591" y="24.9951">Estado del Elemento</text><ellipse cx="313.46" cy="54.2969" fill="#222222" rx="10" ry="10" style="stroke:#222222;stroke-width:1;"/><g id="ElementoBiblioteca.Disponible"><rect fill="#F1F1F1" height="50" rx="12.5" ry="12.5" style="stroke:#181818;stroke-width:0.5;" width="93.5684" x="266.68" y="117.2969"/><line style="stroke:#181818;stroke-width:0.5;" x1="266.68" x2="360.2484" y1="143.5938" y2="143.5938"/><text fill="#000000" font-family="sans-serif" font-size="14" lengthAdjust="spacing" textLength="73.5684" x="276.68" y="135.292">Disponible</text></g><g id="ElementoBiblioteca.Prestado"><rect fill="#F1F1F1" height="50" rx="12.5" ry="12.5" style="stroke:#181818;stroke-width:0.5;" width="81.626" x="280.65" y="323.2969"/><line style="stroke:#181818;stroke-width:0.5;" x1="280.65" x2="362.276" y1="349.5938" y2="349.5938"/><text fill="#000000" font-family="sans-serif" font-size="14" lengthAdjust="spacing" textLength="61.626" x="290.65" y="341.292">Prestado</text></g><g id="ElementoBiblioteca.Reservado"><rect fill="#F1F1F1" height="50" rx="12.5" ry="12.5" style="stroke:#181818;stroke-width:0.5;" width="94.3203" x="57.3" y="220.2969"/><line style="stroke:#181818;stroke-width:0.5;" x1="57.3" x2="151.6203" y1="246.5938" y2="246.5938"/><text fill="#000000" font-family="sans-serif" font-size="14" lengthAdjust="spacing" textLength="74.3203" x="67.3" y="238.292">Reservado</text></g><g id="ElementoBiblioteca.Eliminado"><rect fill="#F1F1F1" height="50" rx="12.5" ry="12.5" style="stroke:#181818;stroke-width:0.5;" width="89.0566" x="455.94" y="426.2969"/><line style="stroke:#181818;stroke-width:0.5;" x1="455.94" x2="544.9966" y1="452.5938" y2="452.5938"/><text fill="#000000" font-family="sans-serif" font-size="14" lengthAdjust="spacing" textLength="69.0566" x="465.94" y="444.292">Eliminado</text></g><!--link *start*ElementoBiblioteca to Disponible--><g class="link" data-entity-1="*start*ElementoBiblioteca" data-entity-2="Disponible" data-source-line="2" data-uid="lnk4" id="link_*start*ElementoBiblioteca_Disponible"><path d="M313.46,64.4969 C313.46,76.8969 313.46,93.4069 313.46,110.8569" fill="none" id="*start*ElementoBiblioteca-to-Disponible" style="stroke:#181818;stroke-width:1;"/><polygon fill="#181818" points="313.46,116.8569,317.46,107.8569,313.46,111.8569,309.46,107.8569,313.46,116.8569" style="stroke:#181818;stroke-width:1;"/><text fill="#000000" font-family="sans-serif" font-size="13" lengthAdjust="spacing" textLength="127.8926" x="314.46" y="95.3638">Elemento agregado</text></g><!--link Disponible to Prestado--><g class="link" data-entity-1="Disponible" data-entity-2="Prestado" data-source-line="4" data-uid="lnk6" id="link_Disponible_Prestado"><path d="M314.41,167.4969 C315.95,206.6569 318.7253,277.4715 320.2653,316.8115" fill="none" id="Disponible-to-Prestado" style="stroke:#181818;stroke-width:1;"/><polygon fill="#181818" points="320.5,322.8069,324.1449,313.6573,320.3044,317.8107,316.151,313.9702,320.5,322.8069" style="stroke:#181818;stroke-width:1;"/><text fill="#000000" font-family="sans-serif" font-size="13" lengthAdjust="spacing" textLength="164.6836" x="319.46" y="249.8638">Usuario lo toma prestado</text></g><!--link Prestado to Disponible--><g class="link" data-entity-1="Prestado" data-entity-2="Disponible" data-source-line="5" data-uid="lnk7" id="link_Prestado_Disponible"><path d="M362.69,341.0869 C402.58,332.6469 460.93,313.3169 488.46,270.2969 C500.44,251.5769 500.61,238.9069 488.46,220.2969 C460.35,177.2069 408.0114,159.2539 366.4414,150.8639" fill="none" id="Prestado-to-Disponible" style="stroke:#181818;stroke-width:1;"/><polygon fill="#181818" points="360.56,149.6769,368.5908,155.3784,365.4612,150.6661,370.1735,147.5365,360.56,149.6769" style="stroke:#181818;stroke-width:1;"/><text fill="#000000" font-family="sans-serif" font-size="13" lengthAdjust="spacing" textLength="128.7178" x="498.46" y="249.8638">Usuario lo devuelve</text></g><!--link Disponible to Reservado--><g class="link" data-entity-1="Disponible" data-entity-2="Reservado" data-source-line="7" data-uid="lnk9" id="link_Disponible_Reservado"><path d="M266.44,143.2069 C194.23,144.1769 61.24,150.7569 31.46,185.2969 C18,200.9069 30.3145,212.7915 51.6345,223.5615" fill="none" id="Disponible-to-Reservado" style="stroke:#181818;stroke-width:1;"/><polygon fill="#181818" points="56.99,226.2669,50.7604,218.6385,52.5271,224.0124,47.1532,225.7791,56.99,226.2669" style="stroke:#181818;stroke-width:1;"/><text fill="#000000" font-family="sans-serif" font-size="13" lengthAdjust="spacing" textLength="118.3521" x="32.46" y="198.3638">Usuario lo reserva</text></g><!--link Reservado to Prestado--><g class="link" data-entity-1="Reservado" data-entity-2="Prestado" data-source-line="8" data-uid="lnk10" id="link_Reservado_Prestado"><path d="M98.32,270.5869 C96.85,282.3269 97.57,295.8769 105.46,305.2969 C127.43,331.4969 218.293,341.1922 274.573,344.9022" fill="none" id="Reservado-to-Prestado" style="stroke:#181818;stroke-width:1;"/><polygon fill="#181818" points="280.56,345.2969,271.8426,340.7135,275.5708,344.968,271.3164,348.6962,280.56,345.2969" style="stroke:#181818;stroke-width:1;"/><text fill="#000000" font-family="sans-serif" font-size="13" lengthAdjust="spacing" textLength="192.9624" x="106.46" y="301.3638">Usuario confirma el pr&#233;stamo</text></g><!--link Reservado to Disponible--><g class="link" data-entity-1="Reservado" data-entity-2="Disponible" data-source-line="9" data-uid="lnk11" id="link_Reservado_Disponible"><path d="M130.98,220.0169 C146.64,206.0669 165.17,190.3369 174.46,185.2969 C203.16,169.7369 232.564,160.5603 260.374,153.9203" fill="none" id="Reservado-to-Disponible" style="stroke:#181818;stroke-width:1;"/><polygon fill="#181818" points="266.21,152.5269,256.5271,150.7264,261.3467,153.6881,258.385,158.5076,266.21,152.5269" style="stroke:#181818;stroke-width:1;"/><text fill="#000000" font-family="sans-serif" font-size="13" lengthAdjust="spacing" textLength="123.2334" x="175.46" y="198.3638">Reserva cancelada</text></g><!--link Disponible to Eliminado--><g class="link" data-entity-1="Disponible" data-entity-2="Eliminado" data-source-line="11" data-uid="lnk13" id="link_Disponible_Eliminado"><path d="M360.54,148.3469 C439.85,157.8469 595.06,181.0469 631.46,220.2969 C688.91,282.2369 711.01,341.3669 659.46,408.2969 C645.57,426.3369 593.2017,437.294 551.2217,443.684" fill="none" id="Disponible-to-Eliminado" style="stroke:#181818;stroke-width:1;"/><polygon fill="#181818" points="545.29,444.5869,554.7894,447.187,550.2331,443.8345,553.5856,439.2781,545.29,444.5869" style="stroke:#181818;stroke-width:1;"/><text fill="#000000" font-family="sans-serif" font-size="13" lengthAdjust="spacing" textLength="159.5356" x="684.46" y="301.3638">Administrador lo elimina</text></g><!--link Prestado to Eliminado--><g class="link" data-entity-1="Prestado" data-entity-2="Eliminado" data-source-line="12" data-uid="lnk14" id="link_Prestado_Eliminado"><path d="M326,373.5169 C329.44,385.5369 335.36,399.3569 345.46,408.2969 C375.84,435.1869 415.7921,444.4569 449.7721,447.9869" fill="none" id="Prestado-to-Eliminado" style="stroke:#181818;stroke-width:1;"/><polygon fill="#181818" points="455.74,448.6069,447.2015,443.6983,450.7668,448.0902,446.3749,451.6555,455.74,448.6069" style="stroke:#181818;stroke-width:1;"/><text fill="#000000" font-family="sans-serif" font-size="13" lengthAdjust="spacing" textLength="312.7871" x="346.46" y="404.3638">Administrador lo elimina (no devuelto a tiempo)</text></g><!--SRC=[ZP11JiCm44NtESLNLu3K2tI1129x16A5kXZYeHh9zaHZDnlK0t4EBiP4AQ6G8h7p-B_l_psFbIfZrPPAGH4ueesSE5TTWSeytCfB5AtS4TuQuFbgY_Nw6dTIUiskCJOp2zePx_ovniaJOZJS6qz96poLFPaeeg9g8lH7oKqpjSWuCGKUzXm7FfFom8LjMCJOTEtyD_17gKxpgvYtyeNqzl7kUjA5yKUreuIESiUH0fqfraP9agUec-17ATLyjB4UJ-Bl___7WulyjP1n_wZ2gTVBvl09]--></g></svg>