<svg xmlns="http://www.w3.org/2000/svg" xmlns:xlink="http://www.w3.org/1999/xlink" contentStyleType="text/css" data-diagram-type="CLASS" height="1204px" preserveAspectRatio="none" style="width:1482px;height:1204px;background:#FFFFFF;" version="1.1" viewBox="0 0 1482 1204" width="1482px" zoomAndPan="magnify"><defs/><g><!--class Biblioteca--><g id="elem_Biblioteca"><rect codeLine="123" fill="#F1F1F1" height="227.2656" id="Biblioteca" rx="2.5" ry="2.5" style="stroke:#181818;stroke-width:0.5;" width="331.9287" x="735.5" y="7"/><ellipse cx="862.6621" cy="23" fill="#ADD1B2" rx="11" ry="11" style="stroke:#181818;stroke-width:1;"/><path d="M865.6309,28.6406 Q865.0527,28.9375 864.4121,29.0781 Q863.7715,29.2344 863.0684,29.2344 Q860.5684,29.2344 859.2402,27.5938 Q857.9277,25.9375 857.9277,22.8125 Q857.9277,19.6875 859.2402,18.0313 Q860.5684,16.375 863.0684,16.375 Q863.7715,16.375 864.4121,16.5313 Q865.0684,16.6875 865.6309,16.9844 L865.6309,19.7031 Q865.0059,19.125 864.4121,18.8594 Q863.8184,18.5781 863.1934,18.5781 Q861.8496,18.5781 861.1621,19.6563 Q860.4746,20.7188 860.4746,22.8125 Q860.4746,24.9063 861.1621,25.9844 Q861.8496,27.0469 863.1934,27.0469 Q863.8184,27.0469 864.4121,26.7813 Q865.0059,26.5 865.6309,25.9219 L865.6309,28.6406 Z " fill="#000000"/><text fill="#000000" font-family="sans-serif" font-size="14" lengthAdjust="spacing" textLength="69.1045" x="883.1621" y="27.8467">Biblioteca</text><line style="stroke:#181818;stroke-width:0.5;" x1="736.5" x2="1066.4287" y1="39" y2="39"/><rect fill="transparent" height="6" style="stroke:#C82930;stroke-width:1;" width="6" x="743.5" y="49.6484"/><text fill="#000000" font-family="sans-serif" font-size="14" lengthAdjust="spacing" textLength="100.5635" x="755.5" y="55.9951">String nombre</text><rect fill="transparent" height="6" style="stroke:#C82930;stroke-width:1;" width="6" x="743.5" y="65.9453"/><text fill="#000000" font-family="sans-serif" font-size="14" lengthAdjust="spacing" textLength="110.0996" x="755.5" y="72.292">String direccion</text><line style="stroke:#181818;stroke-width:0.5;" x1="736.5" x2="1066.4287" y1="79.5938" y2="79.5938"/><ellipse cx="746.5" cy="93.2422" fill="#84BE84" rx="3" ry="3" style="stroke:#038048;stroke-width:1;"/><text fill="#000000" font-family="sans-serif" font-size="14" lengthAdjust="spacing" textLength="303.8574" x="755.5" y="96.5889">void agregarElemento(Elemento elemento)</text><ellipse cx="746.5" cy="109.5391" fill="#84BE84" rx="3" ry="3" style="stroke:#038048;stroke-width:1;"/><text fill="#000000" font-family="sans-serif" font-size="14" lengthAdjust="spacing" textLength="305.9287" x="755.5" y="112.8857">void eliminarElemento(Elemento elemento)</text><ellipse cx="746.5" cy="125.8359" fill="#84BE84" rx="3" ry="3" style="stroke:#038048;stroke-width:1;"/><text fill="#000000" font-family="sans-serif" font-size="14" lengthAdjust="spacing" textLength="254.502" x="755.5" y="129.1826">void buscarElemento(String criterio)</text><ellipse cx="746.5" cy="142.1328" fill="#84BE84" rx="3" ry="3" style="stroke:#038048;stroke-width:1;"/><text fill="#000000" font-family="sans-serif" font-size="14" lengthAdjust="spacing" textLength="267.709" x="755.5" y="145.4795">void registrarUsuario(Usuario usuario)</text><ellipse cx="746.5" cy="158.4297" fill="#84BE84" rx="3" ry="3" style="stroke:#038048;stroke-width:1;"/><text fill="#000000" font-family="sans-serif" font-size="14" lengthAdjust="spacing" textLength="264.8174" x="755.5" y="161.7764">void eliminarUsuario(Usuario usuario)</text><ellipse cx="746.5" cy="174.7266" fill="#84BE84" rx="3" ry="3" style="stroke:#038048;stroke-width:1;"/><text fill="#000000" font-family="sans-serif" font-size="14" lengthAdjust="spacing" textLength="136.0762" x="755.5" y="178.0732">String getNombre()</text><ellipse cx="746.5" cy="191.0234" fill="#84BE84" rx="3" ry="3" style="stroke:#038048;stroke-width:1;"/><text fill="#000000" font-family="sans-serif" font-size="14" lengthAdjust="spacing" textLength="222.8926" x="755.5" y="194.3701">void setNombre(String nombre)</text><ellipse cx="746.5" cy="207.3203" fill="#84BE84" rx="3" ry="3" style="stroke:#038048;stroke-width:1;"/><text fill="#000000" font-family="sans-serif" font-size="14" lengthAdjust="spacing" textLength="145.9063" x="755.5" y="210.667">String getDireccion()</text><ellipse cx="746.5" cy="223.6172" fill="#84BE84" rx="3" ry="3" style="stroke:#038048;stroke-width:1;"/><text fill="#000000" font-family="sans-serif" font-size="14" lengthAdjust="spacing" textLength="242.2588" x="755.5" y="226.9639">void setDireccion(String direccion)</text></g><!--class Elemento--><g id="elem_Elemento"><rect codeLine="30" fill="#F1F1F1" height="194.6719" id="Elemento" rx="2.5" ry="2.5" style="stroke:#181818;stroke-width:0.5;" width="248.8926" x="602" y="319.5"/><ellipse cx="688.9326" cy="335.5" fill="#ADD1B2" rx="11" ry="11" style="stroke:#181818;stroke-width:1;"/><path d="M691.9014,341.1406 Q691.3232,341.4375 690.6826,341.5781 Q690.042,341.7344 689.3389,341.7344 Q686.8389,341.7344 685.5107,340.0938 Q684.1982,338.4375 684.1982,335.3125 Q684.1982,332.1875 685.5107,330.5313 Q686.8389,328.875 689.3389,328.875 Q690.042,328.875 690.6826,329.0313 Q691.3389,329.1875 691.9014,329.4844 L691.9014,332.2031 Q691.2764,331.625 690.6826,331.3594 Q690.0889,331.0781 689.4639,331.0781 Q688.1201,331.0781 687.4326,332.1563 Q686.7451,333.2188 686.7451,335.3125 Q686.7451,337.4063 687.4326,338.4844 Q688.1201,339.5469 689.4639,339.5469 Q690.0889,339.5469 690.6826,339.2813 Q691.2764,339 691.9014,338.4219 L691.9014,341.1406 Z " fill="#000000"/><text fill="#000000" font-family="sans-serif" font-size="14" lengthAdjust="spacing" textLength="66.5273" x="709.4326" y="340.3467">Elemento</text><line style="stroke:#181818;stroke-width:0.5;" x1="603" x2="849.8926" y1="351.5" y2="351.5"/><rect fill="transparent" height="6" style="stroke:#C82930;stroke-width:1;" width="6" x="610" y="362.1484"/><text fill="#000000" font-family="sans-serif" font-size="14" lengthAdjust="spacing" textLength="59.0078" x="622" y="368.4951">String id</text><rect fill="transparent" height="6" style="stroke:#C82930;stroke-width:1;" width="6" x="610" y="378.4453"/><text fill="#000000" font-family="sans-serif" font-size="14" lengthAdjust="spacing" textLength="100.5635" x="622" y="384.792">String nombre</text><line style="stroke:#181818;stroke-width:0.5;" x1="603" x2="849.8926" y1="392.0938" y2="392.0938"/><ellipse cx="613" cy="405.7422" fill="#84BE84" rx="3" ry="3" style="stroke:#038048;stroke-width:1;"/><text fill="#000000" font-family="sans-serif" font-size="14" lengthAdjust="spacing" textLength="166.585" x="622" y="409.0889">void agregarElemento()</text><ellipse cx="613" cy="422.0391" fill="#84BE84" rx="3" ry="3" style="stroke:#038048;stroke-width:1;"/><text fill="#000000" font-family="sans-serif" font-size="14" lengthAdjust="spacing" textLength="168.6563" x="622" y="425.3857">void eliminarElemento()</text><ellipse cx="613" cy="438.3359" fill="#84BE84" rx="3" ry="3" style="stroke:#038048;stroke-width:1;"/><text fill="#000000" font-family="sans-serif" font-size="14" lengthAdjust="spacing" textLength="158.6143" x="622" y="441.6826">void buscarElemento()</text><ellipse cx="613" cy="454.6328" fill="#84BE84" rx="3" ry="3" style="stroke:#038048;stroke-width:1;"/><text fill="#000000" font-family="sans-serif" font-size="14" lengthAdjust="spacing" textLength="93.1602" x="622" y="457.9795">String getId()</text><ellipse cx="613" cy="470.9297" fill="#84BE84" rx="3" ry="3" style="stroke:#038048;stroke-width:1;"/><text fill="#000000" font-family="sans-serif" font-size="14" lengthAdjust="spacing" textLength="138.4209" x="622" y="474.2764">void setId(String id)</text><ellipse cx="613" cy="487.2266" fill="#84BE84" rx="3" ry="3" style="stroke:#038048;stroke-width:1;"/><text fill="#000000" font-family="sans-serif" font-size="14" lengthAdjust="spacing" textLength="136.0762" x="622" y="490.5732">String getNombre()</text><ellipse cx="613" cy="503.5234" fill="#84BE84" rx="3" ry="3" style="stroke:#038048;stroke-width:1;"/><text fill="#000000" font-family="sans-serif" font-size="14" lengthAdjust="spacing" textLength="222.8926" x="622" y="506.8701">void setNombre(String nombre)</text></g><!--class Usuario--><g id="elem_Usuario"><rect codeLine="57" fill="#F1F1F1" height="243.5625" id="Usuario" rx="2.5" ry="2.5" style="stroke:#181818;stroke-width:0.5;" width="335.6953" x="909.5" y="295"/><ellipse cx="1046.4956" cy="311" fill="#ADD1B2" rx="11" ry="11" style="stroke:#181818;stroke-width:1;"/><path d="M1049.4644,316.6406 Q1048.8862,316.9375 1048.2456,317.0781 Q1047.605,317.2344 1046.9019,317.2344 Q1044.4019,317.2344 1043.0737,315.5938 Q1041.7612,313.9375 1041.7612,310.8125 Q1041.7612,307.6875 1043.0737,306.0313 Q1044.4019,304.375 1046.9019,304.375 Q1047.605,304.375 1048.2456,304.5313 Q1048.9019,304.6875 1049.4644,304.9844 L1049.4644,307.7031 Q1048.8394,307.125 1048.2456,306.8594 Q1047.6519,306.5781 1047.0269,306.5781 Q1045.6831,306.5781 1044.9956,307.6563 Q1044.3081,308.7188 1044.3081,310.8125 Q1044.3081,312.9063 1044.9956,313.9844 Q1045.6831,315.0469 1047.0269,315.0469 Q1047.6519,315.0469 1048.2456,314.7813 Q1048.8394,314.5 1049.4644,313.9219 L1049.4644,316.6406 Z " fill="#000000"/><text fill="#000000" font-family="sans-serif" font-size="14" lengthAdjust="spacing" textLength="53.2041" x="1066.9956" y="315.8467">Usuario</text><line style="stroke:#181818;stroke-width:0.5;" x1="910.5" x2="1244.1953" y1="327" y2="327"/><rect fill="transparent" height="6" style="stroke:#C82930;stroke-width:1;" width="6" x="917.5" y="337.6484"/><text fill="#000000" font-family="sans-serif" font-size="14" lengthAdjust="spacing" textLength="59.0078" x="929.5" y="343.9951">String id</text><rect fill="transparent" height="6" style="stroke:#C82930;stroke-width:1;" width="6" x="917.5" y="353.9453"/><text fill="#000000" font-family="sans-serif" font-size="14" lengthAdjust="spacing" textLength="100.5635" x="929.5" y="360.292">String nombre</text><rect fill="transparent" height="6" style="stroke:#C82930;stroke-width:1;" width="6" x="917.5" y="370.2422"/><text fill="#000000" font-family="sans-serif" font-size="14" lengthAdjust="spacing" textLength="91.1846" x="929.5" y="376.5889">String correo</text><line style="stroke:#181818;stroke-width:0.5;" x1="910.5" x2="1244.1953" y1="383.8906" y2="383.8906"/><ellipse cx="920.5" cy="397.5391" fill="#84BE84" rx="3" ry="3" style="stroke:#038048;stroke-width:1;"/><text fill="#000000" font-family="sans-serif" font-size="14" lengthAdjust="spacing" textLength="299.1748" x="929.5" y="400.8857">void prestarElemento(Elemento elemento)</text><ellipse cx="920.5" cy="413.8359" fill="#84BE84" rx="3" ry="3" style="stroke:#038048;stroke-width:1;"/><text fill="#000000" font-family="sans-serif" font-size="14" lengthAdjust="spacing" textLength="309.6953" x="929.5" y="417.1826">void devolverElemento(Elemento elemento)</text><ellipse cx="920.5" cy="430.1328" fill="#84BE84" rx="3" ry="3" style="stroke:#038048;stroke-width:1;"/><text fill="#000000" font-family="sans-serif" font-size="14" lengthAdjust="spacing" textLength="254.502" x="929.5" y="433.4795">void buscarElemento(String criterio)</text><ellipse cx="920.5" cy="446.4297" fill="#84BE84" rx="3" ry="3" style="stroke:#038048;stroke-width:1;"/><text fill="#000000" font-family="sans-serif" font-size="14" lengthAdjust="spacing" textLength="93.1602" x="929.5" y="449.7764">String getId()</text><ellipse cx="920.5" cy="462.7266" fill="#84BE84" rx="3" ry="3" style="stroke:#038048;stroke-width:1;"/><text fill="#000000" font-family="sans-serif" font-size="14" lengthAdjust="spacing" textLength="138.4209" x="929.5" y="466.0732">void setId(String id)</text><ellipse cx="920.5" cy="479.0234" fill="#84BE84" rx="3" ry="3" style="stroke:#038048;stroke-width:1;"/><text fill="#000000" font-family="sans-serif" font-size="14" lengthAdjust="spacing" textLength="136.0762" x="929.5" y="482.3701">String getNombre()</text><ellipse cx="920.5" cy="495.3203" fill="#84BE84" rx="3" ry="3" style="stroke:#038048;stroke-width:1;"/><text fill="#000000" font-family="sans-serif" font-size="14" lengthAdjust="spacing" textLength="222.8926" x="929.5" y="498.667">void setNombre(String nombre)</text><ellipse cx="920.5" cy="511.6172" fill="#84BE84" rx="3" ry="3" style="stroke:#038048;stroke-width:1;"/><text fill="#000000" font-family="sans-serif" font-size="14" lengthAdjust="spacing" textLength="127.1758" x="929.5" y="514.9639">String getCorreo()</text><ellipse cx="920.5" cy="527.9141" fill="#84BE84" rx="3" ry="3" style="stroke:#038048;stroke-width:1;"/><text fill="#000000" font-family="sans-serif" font-size="14" lengthAdjust="spacing" textLength="204.6133" x="929.5" y="531.2607">void setCorreo(String correo)</text></g><!--class Documento--><g id="elem_Documento"><rect codeLine="42" fill="#F1F1F1" height="243.5625" id="Documento" rx="2.5" ry="2.5" style="stroke:#181818;stroke-width:0.5;" width="326.6992" x="402" y="600"/><ellipse cx="520.5522" cy="616" fill="#A9DCDF" rx="11" ry="11" style="stroke:#181818;stroke-width:1;"/><path d="M520.6616,611.3438 L519.5054,616.4219 L521.8335,616.4219 L520.6616,611.3438 Z M519.1772,609.1094 L522.1616,609.1094 L525.521,621.5 L523.0679,621.5 L522.3022,618.4375 L519.021,618.4375 L518.271,621.5 L515.8335,621.5 L519.1772,609.1094 Z " fill="#000000"/><text fill="#000000" font-family="sans-serif" font-size="14" font-style="italic" lengthAdjust="spacing" textLength="81.0947" x="541.0522" y="620.8467">Documento</text><line style="stroke:#181818;stroke-width:0.5;" x1="403" x2="727.6992" y1="632" y2="632"/><rect fill="transparent" height="6" style="stroke:#C82930;stroke-width:1;" width="6" x="410" y="642.6484"/><text fill="#000000" font-family="sans-serif" font-size="14" lengthAdjust="spacing" textLength="82.4277" x="422" y="648.9951">String titulo</text><rect fill="transparent" height="6" style="stroke:#C82930;stroke-width:1;" width="6" x="410" y="658.9453"/><text fill="#000000" font-family="sans-serif" font-size="14" lengthAdjust="spacing" textLength="83.4941" x="422" y="665.292">String autor</text><rect fill="transparent" height="6" style="stroke:#C82930;stroke-width:1;" width="6" x="410" y="675.2422"/><text fill="#000000" font-family="sans-serif" font-size="14" lengthAdjust="spacing" textLength="128.0029" x="422" y="681.5889">int a&#241;oPublicacion</text><line style="stroke:#181818;stroke-width:0.5;" x1="403" x2="727.6992" y1="688.8906" y2="688.8906"/><ellipse cx="413" cy="702.5391" fill="#84BE84" rx="3" ry="3" style="stroke:#038048;stroke-width:1;"/><text fill="#000000" font-family="sans-serif" font-size="14" lengthAdjust="spacing" textLength="95.375" x="422" y="705.8857">void prestar()</text><ellipse cx="413" cy="718.8359" fill="#84BE84" rx="3" ry="3" style="stroke:#038048;stroke-width:1;"/><text fill="#000000" font-family="sans-serif" font-size="14" lengthAdjust="spacing" textLength="105.8955" x="422" y="722.1826">void devolver()</text><ellipse cx="413" cy="735.1328" fill="#84BE84" rx="3" ry="3" style="stroke:#038048;stroke-width:1;"/><text fill="#000000" font-family="sans-serif" font-size="14" lengthAdjust="spacing" textLength="174.8906" x="422" y="738.4795">boolean estaDisponible()</text><ellipse cx="413" cy="751.4297" fill="#84BE84" rx="3" ry="3" style="stroke:#038048;stroke-width:1;"/><text fill="#000000" font-family="sans-serif" font-size="14" lengthAdjust="spacing" textLength="119.4033" x="422" y="754.7764">String getTitulo()</text><ellipse cx="413" cy="767.7266" fill="#84BE84" rx="3" ry="3" style="stroke:#038048;stroke-width:1;"/><text fill="#000000" font-family="sans-serif" font-size="14" lengthAdjust="spacing" textLength="188.084" x="422" y="771.0732">void setTitulo(String titulo)</text><ellipse cx="413" cy="784.0234" fill="#84BE84" rx="3" ry="3" style="stroke:#038048;stroke-width:1;"/><text fill="#000000" font-family="sans-serif" font-size="14" lengthAdjust="spacing" textLength="118.4053" x="422" y="787.3701">String getAutor()</text><ellipse cx="413" cy="800.3203" fill="#84BE84" rx="3" ry="3" style="stroke:#038048;stroke-width:1;"/><text fill="#000000" font-family="sans-serif" font-size="14" lengthAdjust="spacing" textLength="188.1523" x="422" y="803.667">void setAutor(String autor)</text><ellipse cx="413" cy="816.6172" fill="#84BE84" rx="3" ry="3" style="stroke:#038048;stroke-width:1;"/><text fill="#000000" font-family="sans-serif" font-size="14" lengthAdjust="spacing" textLength="162.9141" x="422" y="819.9639">int getA&#241;oPublicacion()</text><ellipse cx="413" cy="832.9141" fill="#84BE84" rx="3" ry="3" style="stroke:#038048;stroke-width:1;"/><text fill="#000000" font-family="sans-serif" font-size="14" lengthAdjust="spacing" textLength="300.6992" x="422" y="836.2607">void setA&#241;oPublicacion(int a&#241;oPublicacion)</text></g><!--class Servicio--><g id="elem_Servicio"><rect codeLine="93" fill="#F1F1F1" height="162.0781" id="Servicio" rx="2.5" ry="2.5" style="stroke:#181818;stroke-width:0.5;" width="248.8926" x="885" y="641"/><ellipse cx="977.4048" cy="657" fill="#A9DCDF" rx="11" ry="11" style="stroke:#181818;stroke-width:1;"/><path d="M977.5142,652.3438 L976.3579,657.4219 L978.686,657.4219 L977.5142,652.3438 Z M976.0298,650.1094 L979.0142,650.1094 L982.3735,662.5 L979.9204,662.5 L979.1548,659.4375 L975.8735,659.4375 L975.1235,662.5 L972.686,662.5 L976.0298,650.1094 Z " fill="#000000"/><text fill="#000000" font-family="sans-serif" font-size="14" font-style="italic" lengthAdjust="spacing" textLength="55.583" x="997.9048" y="661.8467">Servicio</text><line style="stroke:#181818;stroke-width:0.5;" x1="886" x2="1132.8926" y1="673" y2="673"/><rect fill="transparent" height="6" style="stroke:#C82930;stroke-width:1;" width="6" x="893" y="683.6484"/><text fill="#000000" font-family="sans-serif" font-size="14" lengthAdjust="spacing" textLength="59.0078" x="905" y="689.9951">String id</text><rect fill="transparent" height="6" style="stroke:#C82930;stroke-width:1;" width="6" x="893" y="699.9453"/><text fill="#000000" font-family="sans-serif" font-size="14" lengthAdjust="spacing" textLength="100.5635" x="905" y="706.292">String nombre</text><line style="stroke:#181818;stroke-width:0.5;" x1="886" x2="1132.8926" y1="713.5938" y2="713.5938"/><ellipse cx="896" cy="727.2422" fill="#84BE84" rx="3" ry="3" style="stroke:#038048;stroke-width:1;"/><text fill="#000000" font-family="sans-serif" font-size="14" lengthAdjust="spacing" textLength="150.5137" x="905" y="730.5889">void ofrecerServicio()</text><ellipse cx="896" cy="743.5391" fill="#84BE84" rx="3" ry="3" style="stroke:#038048;stroke-width:1;"/><text fill="#000000" font-family="sans-serif" font-size="14" lengthAdjust="spacing" textLength="93.1602" x="905" y="746.8857">String getId()</text><ellipse cx="896" cy="759.8359" fill="#84BE84" rx="3" ry="3" style="stroke:#038048;stroke-width:1;"/><text fill="#000000" font-family="sans-serif" font-size="14" lengthAdjust="spacing" textLength="138.4209" x="905" y="763.1826">void setId(String id)</text><ellipse cx="896" cy="776.1328" fill="#84BE84" rx="3" ry="3" style="stroke:#038048;stroke-width:1;"/><text fill="#000000" font-family="sans-serif" font-size="14" lengthAdjust="spacing" textLength="136.0762" x="905" y="779.4795">String getNombre()</text><ellipse cx="896" cy="792.4297" fill="#84BE84" rx="3" ry="3" style="stroke:#038048;stroke-width:1;"/><text fill="#000000" font-family="sans-serif" font-size="14" lengthAdjust="spacing" textLength="222.8926" x="905" y="795.7764">void setNombre(String nombre)</text></g><!--class Aula--><g id="elem_Aula"><rect codeLine="82" fill="#F1F1F1" height="178.375" id="Aula" rx="2.5" ry="2.5" style="stroke:#181818;stroke-width:0.5;" width="260.541" x="879" y="962"/><ellipse cx="989.561" cy="978" fill="#ADD1B2" rx="11" ry="11" style="stroke:#181818;stroke-width:1;"/><path d="M992.5298,983.6406 Q991.9517,983.9375 991.311,984.0781 Q990.6704,984.2344 989.9673,984.2344 Q987.4673,984.2344 986.1392,982.5938 Q984.8267,980.9375 984.8267,977.8125 Q984.8267,974.6875 986.1392,973.0313 Q987.4673,971.375 989.9673,971.375 Q990.6704,971.375 991.311,971.5313 Q991.9673,971.6875 992.5298,971.9844 L992.5298,974.7031 Q991.9048,974.125 991.311,973.8594 Q990.7173,973.5781 990.0923,973.5781 Q988.7485,973.5781 988.061,974.6563 Q987.3735,975.7188 987.3735,977.8125 Q987.3735,979.9063 988.061,980.9844 Q988.7485,982.0469 990.0923,982.0469 Q990.7173,982.0469 991.311,981.7813 Q991.9048,981.5 992.5298,980.9219 L992.5298,983.6406 Z " fill="#000000"/><text fill="#000000" font-family="sans-serif" font-size="14" lengthAdjust="spacing" textLength="30.9189" x="1010.061" y="982.8467">Aula</text><line style="stroke:#181818;stroke-width:0.5;" x1="880" x2="1138.541" y1="994" y2="994"/><rect fill="transparent" height="6" style="stroke:#C82930;stroke-width:1;" width="6" x="887" y="1004.6484"/><text fill="#000000" font-family="sans-serif" font-size="14" lengthAdjust="spacing" textLength="59.0078" x="899" y="1010.9951">String id</text><rect fill="transparent" height="6" style="stroke:#C82930;stroke-width:1;" width="6" x="887" y="1020.9453"/><text fill="#000000" font-family="sans-serif" font-size="14" lengthAdjust="spacing" textLength="94.3838" x="899" y="1027.292">int capacidad</text><line style="stroke:#181818;stroke-width:0.5;" x1="880" x2="1138.541" y1="1034.5938" y2="1034.5938"/><ellipse cx="890" cy="1048.2422" fill="#84BE84" rx="3" ry="3" style="stroke:#038048;stroke-width:1;"/><text fill="#000000" font-family="sans-serif" font-size="14" lengthAdjust="spacing" textLength="103.6533" x="899" y="1051.5889">void reservar()</text><ellipse cx="890" cy="1064.5391" fill="#84BE84" rx="3" ry="3" style="stroke:#038048;stroke-width:1;"/><text fill="#000000" font-family="sans-serif" font-size="14" lengthAdjust="spacing" textLength="90.3711" x="899" y="1067.8857">void liberar()</text><ellipse cx="890" cy="1080.8359" fill="#84BE84" rx="3" ry="3" style="stroke:#038048;stroke-width:1;"/><text fill="#000000" font-family="sans-serif" font-size="14" lengthAdjust="spacing" textLength="93.1602" x="899" y="1084.1826">String getId()</text><ellipse cx="890" cy="1097.1328" fill="#84BE84" rx="3" ry="3" style="stroke:#038048;stroke-width:1;"/><text fill="#000000" font-family="sans-serif" font-size="14" lengthAdjust="spacing" textLength="138.4209" x="899" y="1100.4795">void setId(String id)</text><ellipse cx="890" cy="1113.4297" fill="#84BE84" rx="3" ry="3" style="stroke:#038048;stroke-width:1;"/><text fill="#000000" font-family="sans-serif" font-size="14" lengthAdjust="spacing" textLength="130.375" x="899" y="1116.7764">int getCapacidad()</text><ellipse cx="890" cy="1129.7266" fill="#84BE84" rx="3" ry="3" style="stroke:#038048;stroke-width:1;"/><text fill="#000000" font-family="sans-serif" font-size="14" lengthAdjust="spacing" textLength="234.541" x="899" y="1133.0732">void setCapacidad(int capacidad)</text></g><!--class Material--><g id="elem_Material"><rect codeLine="12" fill="#F1F1F1" height="292.4531" id="Material" rx="2.5" ry="2.5" style="stroke:#181818;stroke-width:0.5;" width="300.6201" x="1175" y="905"/><ellipse cx="1292.6226" cy="921" fill="#ADD1B2" rx="11" ry="11" style="stroke:#181818;stroke-width:1;"/><path d="M1295.5913,926.6406 Q1295.0132,926.9375 1294.3726,927.0781 Q1293.7319,927.2344 1293.0288,927.2344 Q1290.5288,927.2344 1289.2007,925.5938 Q1287.8882,923.9375 1287.8882,920.8125 Q1287.8882,917.6875 1289.2007,916.0313 Q1290.5288,914.375 1293.0288,914.375 Q1293.7319,914.375 1294.3726,914.5313 Q1295.0288,914.6875 1295.5913,914.9844 L1295.5913,917.7031 Q1294.9663,917.125 1294.3726,916.8594 Q1293.7788,916.5781 1293.1538,916.5781 Q1291.8101,916.5781 1291.1226,917.6563 Q1290.4351,918.7188 1290.4351,920.8125 Q1290.4351,922.9063 1291.1226,923.9844 Q1291.8101,925.0469 1293.1538,925.0469 Q1293.7788,925.0469 1294.3726,924.7813 Q1294.9663,924.5 1295.5913,923.9219 L1295.5913,926.6406 Z " fill="#000000"/><text fill="#000000" font-family="sans-serif" font-size="14" lengthAdjust="spacing" textLength="56.875" x="1313.1226" y="925.8467">Material</text><line style="stroke:#181818;stroke-width:0.5;" x1="1176" x2="1474.6201" y1="937" y2="937"/><rect fill="transparent" height="6" style="stroke:#C82930;stroke-width:1;" width="6" x="1183" y="947.6484"/><text fill="#000000" font-family="sans-serif" font-size="14" lengthAdjust="spacing" textLength="59.0078" x="1195" y="953.9951">String id</text><rect fill="transparent" height="6" style="stroke:#C82930;stroke-width:1;" width="6" x="1183" y="963.9453"/><text fill="#000000" font-family="sans-serif" font-size="14" lengthAdjust="spacing" textLength="100.5635" x="1195" y="970.292">String nombre</text><rect fill="transparent" height="6" style="stroke:#C82930;stroke-width:1;" width="6" x="1183" y="980.2422"/><text fill="#000000" font-family="sans-serif" font-size="14" lengthAdjust="spacing" textLength="126.2803" x="1195" y="986.5889">String descripcion</text><rect fill="transparent" height="6" style="stroke:#C82930;stroke-width:1;" width="6" x="1183" y="996.5391"/><text fill="#000000" font-family="sans-serif" font-size="14" lengthAdjust="spacing" textLength="132.0977" x="1195" y="1002.8857">boolean disponible</text><line style="stroke:#181818;stroke-width:0.5;" x1="1176" x2="1474.6201" y1="1010.1875" y2="1010.1875"/><ellipse cx="1186" cy="1023.8359" fill="#84BE84" rx="3" ry="3" style="stroke:#038048;stroke-width:1;"/><text fill="#000000" font-family="sans-serif" font-size="14" lengthAdjust="spacing" textLength="95.375" x="1195" y="1027.1826">void prestar()</text><ellipse cx="1186" cy="1040.1328" fill="#84BE84" rx="3" ry="3" style="stroke:#038048;stroke-width:1;"/><text fill="#000000" font-family="sans-serif" font-size="14" lengthAdjust="spacing" textLength="105.8955" x="1195" y="1043.4795">void devolver()</text><ellipse cx="1186" cy="1056.4297" fill="#84BE84" rx="3" ry="3" style="stroke:#038048;stroke-width:1;"/><text fill="#000000" font-family="sans-serif" font-size="14" lengthAdjust="spacing" textLength="174.8906" x="1195" y="1059.7764">boolean estaDisponible()</text><ellipse cx="1186" cy="1072.7266" fill="#84BE84" rx="3" ry="3" style="stroke:#038048;stroke-width:1;"/><text fill="#000000" font-family="sans-serif" font-size="14" lengthAdjust="spacing" textLength="93.1602" x="1195" y="1076.0732">String getId()</text><ellipse cx="1186" cy="1089.0234" fill="#84BE84" rx="3" ry="3" style="stroke:#038048;stroke-width:1;"/><text fill="#000000" font-family="sans-serif" font-size="14" lengthAdjust="spacing" textLength="138.4209" x="1195" y="1092.3701">void setId(String id)</text><ellipse cx="1186" cy="1105.3203" fill="#84BE84" rx="3" ry="3" style="stroke:#038048;stroke-width:1;"/><text fill="#000000" font-family="sans-serif" font-size="14" lengthAdjust="spacing" textLength="136.0762" x="1195" y="1108.667">String getNombre()</text><ellipse cx="1186" cy="1121.6172" fill="#84BE84" rx="3" ry="3" style="stroke:#038048;stroke-width:1;"/><text fill="#000000" font-family="sans-serif" font-size="14" lengthAdjust="spacing" textLength="222.8926" x="1195" y="1124.9639">void setNombre(String nombre)</text><ellipse cx="1186" cy="1137.9141" fill="#84BE84" rx="3" ry="3" style="stroke:#038048;stroke-width:1;"/><text fill="#000000" font-family="sans-serif" font-size="14" lengthAdjust="spacing" textLength="162.0869" x="1195" y="1141.2607">String getDescripcion()</text><ellipse cx="1186" cy="1154.2109" fill="#84BE84" rx="3" ry="3" style="stroke:#038048;stroke-width:1;"/><text fill="#000000" font-family="sans-serif" font-size="14" lengthAdjust="spacing" textLength="274.6201" x="1195" y="1157.5576">void setDescripcion(String descripcion)</text><ellipse cx="1186" cy="1170.5078" fill="#84BE84" rx="3" ry="3" style="stroke:#038048;stroke-width:1;"/><text fill="#000000" font-family="sans-serif" font-size="14" lengthAdjust="spacing" textLength="156.0986" x="1195" y="1173.8545">boolean isDisponible()</text><ellipse cx="1186" cy="1186.8047" fill="#84BE84" rx="3" ry="3" style="stroke:#038048;stroke-width:1;"/><text fill="#000000" font-family="sans-serif" font-size="14" lengthAdjust="spacing" textLength="272.0635" x="1195" y="1190.1514">void setDisponible(boolean disponible)</text></g><!--class Libro--><g id="elem_Libro"><rect codeLine="72" fill="#F1F1F1" height="162.0781" id="Libro" rx="2.5" ry="2.5" style="stroke:#181818;stroke-width:0.5;" width="288.5547" x="7" y="970"/><ellipse cx="129.5786" cy="986" fill="#ADD1B2" rx="11" ry="11" style="stroke:#181818;stroke-width:1;"/><path d="M132.5474,991.6406 Q131.9692,991.9375 131.3286,992.0781 Q130.688,992.2344 129.9849,992.2344 Q127.4849,992.2344 126.1567,990.5938 Q124.8442,988.9375 124.8442,985.8125 Q124.8442,982.6875 126.1567,981.0313 Q127.4849,979.375 129.9849,979.375 Q130.688,979.375 131.3286,979.5313 Q131.9849,979.6875 132.5474,979.9844 L132.5474,982.7031 Q131.9224,982.125 131.3286,981.8594 Q130.7349,981.5781 130.1099,981.5781 Q128.7661,981.5781 128.0786,982.6563 Q127.3911,983.7188 127.3911,985.8125 Q127.3911,987.9063 128.0786,988.9844 Q128.7661,990.0469 130.1099,990.0469 Q130.7349,990.0469 131.3286,989.7813 Q131.9224,989.5 132.5474,988.9219 L132.5474,991.6406 Z " fill="#000000"/><text fill="#000000" font-family="sans-serif" font-size="14" lengthAdjust="spacing" textLength="34.8975" x="150.0786" y="990.8467">Libro</text><line style="stroke:#181818;stroke-width:0.5;" x1="8" x2="294.5547" y1="1002" y2="1002"/><rect fill="transparent" height="6" style="stroke:#C82930;stroke-width:1;" width="6" x="15" y="1012.6484"/><text fill="#000000" font-family="sans-serif" font-size="14" lengthAdjust="spacing" textLength="75.1748" x="27" y="1018.9951">String isbn</text><rect fill="transparent" height="6" style="stroke:#C82930;stroke-width:1;" width="6" x="15" y="1028.9453"/><text fill="#000000" font-family="sans-serif" font-size="14" lengthAdjust="spacing" textLength="108.6299" x="27" y="1035.292">int numPaginas</text><line style="stroke:#181818;stroke-width:0.5;" x1="8" x2="294.5547" y1="1042.5938" y2="1042.5938"/><ellipse cx="18" cy="1056.2422" fill="#84BE84" rx="3" ry="3" style="stroke:#038048;stroke-width:1;"/><text fill="#000000" font-family="sans-serif" font-size="14" lengthAdjust="spacing" textLength="71.873" x="27" y="1059.5889">void leer()</text><ellipse cx="18" cy="1072.5391" fill="#84BE84" rx="3" ry="3" style="stroke:#038048;stroke-width:1;"/><text fill="#000000" font-family="sans-serif" font-size="14" lengthAdjust="spacing" textLength="109.3271" x="27" y="1075.8857">String getIsbn()</text><ellipse cx="18" cy="1088.8359" fill="#84BE84" rx="3" ry="3" style="stroke:#038048;stroke-width:1;"/><text fill="#000000" font-family="sans-serif" font-size="14" lengthAdjust="spacing" textLength="170.7549" x="27" y="1092.1826">void setIsbn(String isbn)</text><ellipse cx="18" cy="1105.1328" fill="#84BE84" rx="3" ry="3" style="stroke:#038048;stroke-width:1;"/><text fill="#000000" font-family="sans-serif" font-size="14" lengthAdjust="spacing" textLength="144.1426" x="27" y="1108.4795">int getNumPaginas()</text><ellipse cx="18" cy="1121.4297" fill="#84BE84" rx="3" ry="3" style="stroke:#038048;stroke-width:1;"/><text fill="#000000" font-family="sans-serif" font-size="14" lengthAdjust="spacing" textLength="262.5547" x="27" y="1124.7764">void setNumPaginas(int numPaginas)</text></g><!--class Revista--><g id="elem_Revista"><rect codeLine="103" fill="#F1F1F1" height="162.0781" id="Revista" rx="2.5" ry="2.5" style="stroke:#181818;stroke-width:0.5;" width="225.3359" x="331" y="970"/><ellipse cx="413.479" cy="986" fill="#ADD1B2" rx="11" ry="11" style="stroke:#181818;stroke-width:1;"/><path d="M416.4478,991.6406 Q415.8696,991.9375 415.229,992.0781 Q414.5884,992.2344 413.8853,992.2344 Q411.3853,992.2344 410.0571,990.5938 Q408.7446,988.9375 408.7446,985.8125 Q408.7446,982.6875 410.0571,981.0313 Q411.3853,979.375 413.8853,979.375 Q414.5884,979.375 415.229,979.5313 Q415.8853,979.6875 416.4478,979.9844 L416.4478,982.7031 Q415.8228,982.125 415.229,981.8594 Q414.6353,981.5781 414.0103,981.5781 Q412.6665,981.5781 411.979,982.6563 Q411.2915,983.7188 411.2915,985.8125 Q411.2915,987.9063 411.979,988.9844 Q412.6665,990.0469 414.0103,990.0469 Q414.6353,990.0469 415.229,989.7813 Q415.8228,989.5 416.4478,988.9219 L416.4478,991.6406 Z " fill="#000000"/><text fill="#000000" font-family="sans-serif" font-size="14" lengthAdjust="spacing" textLength="51.8779" x="433.979" y="990.8467">Revista</text><line style="stroke:#181818;stroke-width:0.5;" x1="332" x2="555.3359" y1="1002" y2="1002"/><rect fill="transparent" height="6" style="stroke:#C82930;stroke-width:1;" width="6" x="339" y="1012.6484"/><text fill="#000000" font-family="sans-serif" font-size="14" lengthAdjust="spacing" textLength="73.582" x="351" y="1018.9951">String issn</text><rect fill="transparent" height="6" style="stroke:#C82930;stroke-width:1;" width="6" x="339" y="1028.9453"/><text fill="#000000" font-family="sans-serif" font-size="14" lengthAdjust="spacing" textLength="77.0205" x="351" y="1035.292">int numero</text><line style="stroke:#181818;stroke-width:0.5;" x1="332" x2="555.3359" y1="1042.5938" y2="1042.5938"/><ellipse cx="342" cy="1056.2422" fill="#84BE84" rx="3" ry="3" style="stroke:#038048;stroke-width:1;"/><text fill="#000000" font-family="sans-serif" font-size="14" lengthAdjust="spacing" textLength="71.873" x="351" y="1059.5889">void leer()</text><ellipse cx="342" cy="1072.5391" fill="#84BE84" rx="3" ry="3" style="stroke:#038048;stroke-width:1;"/><text fill="#000000" font-family="sans-serif" font-size="14" lengthAdjust="spacing" textLength="107.7344" x="351" y="1075.8857">String getIssn()</text><ellipse cx="342" cy="1088.8359" fill="#84BE84" rx="3" ry="3" style="stroke:#038048;stroke-width:1;"/><text fill="#000000" font-family="sans-serif" font-size="14" lengthAdjust="spacing" textLength="167.5693" x="351" y="1092.1826">void setIssn(String issn)</text><ellipse cx="342" cy="1105.1328" fill="#84BE84" rx="3" ry="3" style="stroke:#038048;stroke-width:1;"/><text fill="#000000" font-family="sans-serif" font-size="14" lengthAdjust="spacing" textLength="112.5332" x="351" y="1108.4795">int getNumero()</text><ellipse cx="342" cy="1121.4297" fill="#84BE84" rx="3" ry="3" style="stroke:#038048;stroke-width:1;"/><text fill="#000000" font-family="sans-serif" font-size="14" lengthAdjust="spacing" textLength="199.3359" x="351" y="1124.7764">void setNumero(int numero)</text></g><!--class MaterialAudiovisual--><g id="elem_MaterialAudiovisual"><rect codeLine="113" fill="#F1F1F1" height="162.0781" id="MaterialAudiovisual" rx="2.5" ry="2.5" style="stroke:#181818;stroke-width:0.5;" width="252.7959" x="591" y="970"/><ellipse cx="644.4092" cy="986" fill="#ADD1B2" rx="11" ry="11" style="stroke:#181818;stroke-width:1;"/><path d="M647.3779,991.6406 Q646.7998,991.9375 646.1592,992.0781 Q645.5186,992.2344 644.8154,992.2344 Q642.3154,992.2344 640.9873,990.5938 Q639.6748,988.9375 639.6748,985.8125 Q639.6748,982.6875 640.9873,981.0313 Q642.3154,979.375 644.8154,979.375 Q645.5186,979.375 646.1592,979.5313 Q646.8154,979.6875 647.3779,979.9844 L647.3779,982.7031 Q646.7529,982.125 646.1592,981.8594 Q645.5654,981.5781 644.9404,981.5781 Q643.5967,981.5781 642.9092,982.6563 Q642.2217,983.7188 642.2217,985.8125 Q642.2217,987.9063 642.9092,988.9844 Q643.5967,990.0469 644.9404,990.0469 Q645.5654,990.0469 646.1592,989.7813 Q646.7529,989.5 647.3779,988.9219 L647.3779,991.6406 Z " fill="#000000"/><text fill="#000000" font-family="sans-serif" font-size="14" lengthAdjust="spacing" textLength="137.4775" x="664.9092" y="990.8467">MaterialAudiovisual</text><line style="stroke:#181818;stroke-width:0.5;" x1="592" x2="842.7959" y1="1002" y2="1002"/><rect fill="transparent" height="6" style="stroke:#C82930;stroke-width:1;" width="6" x="599" y="1012.6484"/><text fill="#000000" font-family="sans-serif" font-size="14" lengthAdjust="spacing" textLength="101.7529" x="611" y="1018.9951">String formato</text><rect fill="transparent" height="6" style="stroke:#C82930;stroke-width:1;" width="6" x="599" y="1028.9453"/><text fill="#000000" font-family="sans-serif" font-size="14" lengthAdjust="spacing" textLength="83.8223" x="611" y="1035.292">int duracion</text><line style="stroke:#181818;stroke-width:0.5;" x1="592" x2="842.7959" y1="1042.5938" y2="1042.5938"/><ellipse cx="602" cy="1056.2422" fill="#84BE84" rx="3" ry="3" style="stroke:#038048;stroke-width:1;"/><text fill="#000000" font-family="sans-serif" font-size="14" lengthAdjust="spacing" textLength="117.6807" x="611" y="1059.5889">void reproducir()</text><ellipse cx="602" cy="1072.5391" fill="#84BE84" rx="3" ry="3" style="stroke:#038048;stroke-width:1;"/><text fill="#000000" font-family="sans-serif" font-size="14" lengthAdjust="spacing" textLength="138.79" x="611" y="1075.8857">String getFormato()</text><ellipse cx="602" cy="1088.8359" fill="#84BE84" rx="3" ry="3" style="stroke:#038048;stroke-width:1;"/><text fill="#000000" font-family="sans-serif" font-size="14" lengthAdjust="spacing" textLength="226.7959" x="611" y="1092.1826">void setFormato(String formato)</text><ellipse cx="602" cy="1105.1328" fill="#84BE84" rx="3" ry="3" style="stroke:#038048;stroke-width:1;"/><text fill="#000000" font-family="sans-serif" font-size="14" lengthAdjust="spacing" textLength="119.6289" x="611" y="1108.4795">int getDuracion()</text><ellipse cx="602" cy="1121.4297" fill="#84BE84" rx="3" ry="3" style="stroke:#038048;stroke-width:1;"/><text fill="#000000" font-family="sans-serif" font-size="14" lengthAdjust="spacing" textLength="213.2334" x="611" y="1124.7764">void setDuracion(int duracion)</text></g><!--reverse link Biblioteca to Elemento--><g id="link_Biblioteca_Elemento"><path codeLine="1" d="M828.4604,244.4164 C811.7704,272.5064 800.15,292.07 783.95,319.31 " fill="transparent" id="Biblioteca-backto-Elemento" style="stroke:#181818;stroke-width:1;"/><polygon fill="transparent" points="834.59,234.1,828.0864,237.215,828.4604,244.4164,834.964,241.3014,834.59,234.1" style="stroke:#181818;stroke-width:1;"/></g><!--link Biblioteca to Usuario--><g id="link_Biblioteca_Usuario"><path codeLine="2" d="M968.79,234.1 C980.63,253.91 986.8442,264.3092 998.8142,284.3392 " fill="transparent" id="Biblioteca-to-Usuario" style="stroke:#181818;stroke-width:1;"/><polygon fill="transparent" points="1004.97,294.64,1005.3257,287.4377,998.8142,284.3392,998.4585,291.5415,1004.97,294.64" style="stroke:#181818;stroke-width:1;"/></g><!--reverse link Elemento to Usuario--><g id="link_Elemento_Usuario"><path codeLine="3" d="M857.24,417 C876.06,417 889.73,417 909.27,417 " fill="transparent" id="Elemento-backto-Usuario" style="stroke:#181818;stroke-width:1;stroke-dasharray:7.0,7.0;"/><polygon fill="#181818" points="851.24,417,860.24,421,856.24,417,860.24,413,851.24,417" style="stroke:#181818;stroke-width:1;"/><text fill="#000000" font-family="sans-serif" font-size="13" lengthAdjust="spacing" textLength="22.9785" x="869.25" y="410.0669">usa</text></g><!--reverse link Elemento to Documento--><g id="link_Elemento_Documento"><path codeLine="4" d="M669.4878,525.2961 C655.0778,552.4061 644.87,571.62 629.82,599.95 " fill="transparent" id="Elemento-backto-Documento" style="stroke:#181818;stroke-width:1;"/><polygon fill="#181818" points="675.12,514.7,668.7718,518.1206,669.4878,525.2961,675.8359,521.8755,675.12,514.7" style="stroke:#181818;stroke-width:1;"/></g><!--reverse link Elemento to Servicio--><g id="link_Elemento_Servicio"><path codeLine="5" d="M825.0117,523.4691 C863.0317,564.1691 898.54,602.2 934.71,640.93 " fill="transparent" id="Elemento-backto-Servicio" style="stroke:#181818;stroke-width:1;"/><polygon fill="#181818" points="816.82,514.7,817.9928,521.8151,825.0117,523.4691,823.8389,516.354,816.82,514.7" style="stroke:#181818;stroke-width:1;"/></g><!--reverse link Servicio to Aula--><g id="link_Servicio_Aula"><path codeLine="6" d="M1009.5,821.41 C1009.5,869.44 1009.5,912.51 1009.5,961.85 " fill="transparent" id="Servicio-backto-Aula" style="stroke:#181818;stroke-width:1;"/><polygon fill="transparent" points="1009.5,803.41,1003.5,821.41,1015.5,821.41,1009.5,803.41" style="stroke:#181818;stroke-width:1;"/></g><!--reverse link Servicio to Material--><g id="link_Servicio_Material"><path codeLine="7" d="M1099.7163,816.3557 C1129.3163,846.9957 1151.54,869.98 1185.18,904.8 " fill="transparent" id="Servicio-backto-Material" style="stroke:#181818;stroke-width:1;"/><polygon fill="transparent" points="1087.21,803.41,1095.4011,820.5245,1104.0316,812.187,1087.21,803.41" style="stroke:#181818;stroke-width:1;"/></g><!--reverse link Documento to Libro--><g id="link_Documento_Libro"><path codeLine="8" d="M387.464,847.9572 C357.614,869.8872 341.56,882.41 313.5,905 C288.36,925.24 261.94,948.13 237.91,969.65 " fill="transparent" id="Documento-backto-Libro" style="stroke:#181818;stroke-width:1;"/><polygon fill="transparent" points="401.97,837.3,383.9116,843.1218,391.0164,852.7925,401.97,837.3" style="stroke:#181818;stroke-width:1;"/></g><!--reverse link Documento to Revista--><g id="link_Documento_Revista"><path codeLine="9" d="M513.9563,861.1639 C498.3563,902.9639 487.58,931.86 473.5,969.58 " fill="transparent" id="Documento-backto-Revista" style="stroke:#181818;stroke-width:1;"/><polygon fill="transparent" points="520.25,844.3,508.335,859.066,519.5776,863.2617,520.25,844.3" style="stroke:#181818;stroke-width:1;"/></g><!--reverse link Documento to MaterialAudiovisual--><g id="link_Documento_MaterialAudiovisual"><path codeLine="10" d="M629.4706,860.6213 C648.9106,902.4213 662.58,931.86 680.12,969.58 " fill="transparent" id="Documento-backto-MaterialAudiovisual" style="stroke:#181818;stroke-width:1;"/><polygon fill="transparent" points="621.88,844.3,624.0301,863.1514,634.911,858.0911,621.88,844.3" style="stroke:#181818;stroke-width:1;"/></g><!--SRC=[nLPTRjim37xtAVJORaWFCFGbRJPWm5OKwtO0MMPT0euPK59UkXrgPzZ59iUMh1-tJRUYpKkIZoB5Z_f4wWBh3ic0ae9MA_6nWotqXggB6L-jIFpGLZ9IvUtY_8onlJDdtY8-2AlbR7_dWcr8sJ5Q0jy0xr6vOFw7EF_fuBNjP0PzbGOOPLU5I2F-1Mkc7Fm6UzH6vh2FiRODabjXNRXATLBhO1BtbN2VrOrXx5k1JVAtfstDa40DQCMuStds8ruJTI1xqQ3UKUzADwv_loTin8x1vSKdfn7Mm9wwFGJG1nXMRa8GRvssRS5yRf8m-e24l8lbLuVSSvS9JVWLhfkPO-uVcygAP8nGbtn2eDbILl2q-kKFAiZds8CQTv0jGolPUoUxGuTRx1ymrbQhqlGgf-0uoreRbig8aVoivvIzGMCxIY1f3V68O6-4_FERhgsxnqe6gRwy9ByVyiZPJMYIQ-6w7lBDFKSmPZGj62WDJYchmZqpBnGYKfRlNi_j08gOWSgA1iq4oSBqOwdKnwtErEWpO1ow5xrXYxWy525tdT2aK5753xqxhxUk-rcslTrUozPTJXq5xc1MPiJLEHPi1omAdAhdAWGlAC-MD8ie-M56FQ2LmKV9dHDO8vieijE5csdPNUkm1fRyZvrbedBfTojE81YIf9QQIvYtp-kiTCkWWBttQtV8CVTfu1TQqgcMWEa87Ua57Ub8HxhKaGkyeA41dNUEqbruY6Iftn9lfQ4v-yPothaPTaoDLRZ0ujFedoVbuNINbCvcsgcOq1wFqub8HS_4-oTVJUX4az79H_IZZR2OsV_VDgUQjZZS2fwcmOcV2dRyNihXyQKlymBpzIgVJTwGLzQTp5y0]--></g></svg>