<svg xmlns="http://www.w3.org/2000/svg" xmlns:xlink="http://www.w3.org/1999/xlink" contentStyleType="text/css" data-diagram-type="CLASS" height="389px" preserveAspectRatio="none" style="width:626px;height:389px;background:#FFFFFF;" version="1.1" viewBox="0 0 626 389" width="626px" zoomAndPan="magnify"><defs/><g><!--class Biblioteca--><g id="elem_Biblioteca"><rect codeLine="41" fill="#F1F1F1" height="48" id="Biblioteca" rx="2.5" ry="2.5" style="stroke:#181818;stroke-width:0.5;" width="101.1045" x="332" y="7"/><ellipse cx="347" cy="23" fill="#ADD1B2" rx="11" ry="11" style="stroke:#181818;stroke-width:1;"/><path d="M349.9688,28.6406 Q349.3906,28.9375 348.75,29.0781 Q348.1094,29.2344 347.4063,29.2344 Q344.9063,29.2344 343.5781,27.5938 Q342.2656,25.9375 342.2656,22.8125 Q342.2656,19.6875 343.5781,18.0313 Q344.9063,16.375 347.4063,16.375 Q348.1094,16.375 348.75,16.5313 Q349.4063,16.6875 349.9688,16.9844 L349.9688,19.7031 Q349.3438,19.125 348.75,18.8594 Q348.1563,18.5781 347.5313,18.5781 Q346.1875,18.5781 345.5,19.6563 Q344.8125,20.7188 344.8125,22.8125 Q344.8125,24.9063 345.5,25.9844 Q346.1875,27.0469 347.5313,27.0469 Q348.1563,27.0469 348.75,26.7813 Q349.3438,26.5 349.9688,25.9219 L349.9688,28.6406 Z " fill="#000000"/><text fill="#000000" font-family="sans-serif" font-size="14" lengthAdjust="spacing" textLength="69.1045" x="361" y="27.8467">Biblioteca</text><line style="stroke:#181818;stroke-width:0.5;" x1="333" x2="432.1045" y1="39" y2="39"/><line style="stroke:#181818;stroke-width:0.5;" x1="333" x2="432.1045" y1="47" y2="47"/></g><!--class Elemento--><g id="elem_Elemento"><rect codeLine="16" fill="#F1F1F1" height="48" id="Elemento" rx="2.5" ry="2.5" style="stroke:#181818;stroke-width:0.5;" width="98.5273" x="258" y="116"/><ellipse cx="273" cy="132" fill="#ADD1B2" rx="11" ry="11" style="stroke:#181818;stroke-width:1;"/><path d="M275.9688,137.6406 Q275.3906,137.9375 274.75,138.0781 Q274.1094,138.2344 273.4063,138.2344 Q270.9063,138.2344 269.5781,136.5938 Q268.2656,134.9375 268.2656,131.8125 Q268.2656,128.6875 269.5781,127.0313 Q270.9063,125.375 273.4063,125.375 Q274.1094,125.375 274.75,125.5313 Q275.4063,125.6875 275.9688,125.9844 L275.9688,128.7031 Q275.3438,128.125 274.75,127.8594 Q274.1563,127.5781 273.5313,127.5781 Q272.1875,127.5781 271.5,128.6563 Q270.8125,129.7188 270.8125,131.8125 Q270.8125,133.9063 271.5,134.9844 Q272.1875,136.0469 273.5313,136.0469 Q274.1563,136.0469 274.75,135.7813 Q275.3438,135.5 275.9688,134.9219 L275.9688,137.6406 Z " fill="#000000"/><text fill="#000000" font-family="sans-serif" font-size="14" lengthAdjust="spacing" textLength="66.5273" x="287" y="136.8467">Elemento</text><line style="stroke:#181818;stroke-width:0.5;" x1="259" x2="355.5273" y1="148" y2="148"/><line style="stroke:#181818;stroke-width:0.5;" x1="259" x2="355.5273" y1="156" y2="156"/></g><!--class Usuario--><g id="elem_Usuario"><rect codeLine="22" fill="#F1F1F1" height="48" id="Usuario" rx="2.5" ry="2.5" style="stroke:#181818;stroke-width:0.5;" width="85.2041" x="416" y="116"/><ellipse cx="431" cy="132" fill="#ADD1B2" rx="11" ry="11" style="stroke:#181818;stroke-width:1;"/><path d="M433.9688,137.6406 Q433.3906,137.9375 432.75,138.0781 Q432.1094,138.2344 431.4063,138.2344 Q428.9063,138.2344 427.5781,136.5938 Q426.2656,134.9375 426.2656,131.8125 Q426.2656,128.6875 427.5781,127.0313 Q428.9063,125.375 431.4063,125.375 Q432.1094,125.375 432.75,125.5313 Q433.4063,125.6875 433.9688,125.9844 L433.9688,128.7031 Q433.3438,128.125 432.75,127.8594 Q432.1563,127.5781 431.5313,127.5781 Q430.1875,127.5781 429.5,128.6563 Q428.8125,129.7188 428.8125,131.8125 Q428.8125,133.9063 429.5,134.9844 Q430.1875,136.0469 431.5313,136.0469 Q432.1563,136.0469 432.75,135.7813 Q433.3438,135.5 433.9688,134.9219 L433.9688,137.6406 Z " fill="#000000"/><text fill="#000000" font-family="sans-serif" font-size="14" lengthAdjust="spacing" textLength="53.2041" x="445" y="136.8467">Usuario</text><line style="stroke:#181818;stroke-width:0.5;" x1="417" x2="500.2041" y1="148" y2="148"/><line style="stroke:#181818;stroke-width:0.5;" x1="417" x2="500.2041" y1="156" y2="156"/></g><!--class Documento--><g id="elem_Documento"><rect codeLine="19" fill="#F1F1F1" height="48" id="Documento" rx="2.5" ry="2.5" style="stroke:#181818;stroke-width:0.5;" width="113.0947" x="176" y="225"/><ellipse cx="191" cy="241" fill="#A9DCDF" rx="11" ry="11" style="stroke:#181818;stroke-width:1;"/><path d="M191.1094,236.3438 L189.9531,241.4219 L192.2813,241.4219 L191.1094,236.3438 Z M189.625,234.1094 L192.6094,234.1094 L195.9688,246.5 L193.5156,246.5 L192.75,243.4375 L189.4688,243.4375 L188.7188,246.5 L186.2813,246.5 L189.625,234.1094 Z " fill="#000000"/><text fill="#000000" font-family="sans-serif" font-size="14" font-style="italic" lengthAdjust="spacing" textLength="81.0947" x="205" y="245.8467">Documento</text><line style="stroke:#181818;stroke-width:0.5;" x1="177" x2="288.0947" y1="257" y2="257"/><line style="stroke:#181818;stroke-width:0.5;" x1="177" x2="288.0947" y1="265" y2="265"/></g><!--class Servicio--><g id="elem_Servicio"><rect codeLine="31" fill="#F1F1F1" height="48" id="Servicio" rx="2.5" ry="2.5" style="stroke:#181818;stroke-width:0.5;" width="87.583" x="420.5" y="225"/><ellipse cx="435.5" cy="241" fill="#A9DCDF" rx="11" ry="11" style="stroke:#181818;stroke-width:1;"/><path d="M435.6094,236.3438 L434.4531,241.4219 L436.7813,241.4219 L435.6094,236.3438 Z M434.125,234.1094 L437.1094,234.1094 L440.4688,246.5 L438.0156,246.5 L437.25,243.4375 L433.9688,243.4375 L433.2188,246.5 L430.7813,246.5 L434.125,234.1094 Z " fill="#000000"/><text fill="#000000" font-family="sans-serif" font-size="14" font-style="italic" lengthAdjust="spacing" textLength="55.583" x="449.5" y="245.8467">Servicio</text><line style="stroke:#181818;stroke-width:0.5;" x1="421.5" x2="507.083" y1="257" y2="257"/><line style="stroke:#181818;stroke-width:0.5;" x1="421.5" x2="507.083" y1="265" y2="265"/></g><!--class Aula--><g id="elem_Aula"><rect codeLine="28" fill="#F1F1F1" height="48" id="Aula" rx="2.5" ry="2.5" style="stroke:#181818;stroke-width:0.5;" width="62.9189" x="433" y="334"/><ellipse cx="448" cy="350" fill="#ADD1B2" rx="11" ry="11" style="stroke:#181818;stroke-width:1;"/><path d="M450.9688,355.6406 Q450.3906,355.9375 449.75,356.0781 Q449.1094,356.2344 448.4063,356.2344 Q445.9063,356.2344 444.5781,354.5938 Q443.2656,352.9375 443.2656,349.8125 Q443.2656,346.6875 444.5781,345.0313 Q445.9063,343.375 448.4063,343.375 Q449.1094,343.375 449.75,343.5313 Q450.4063,343.6875 450.9688,343.9844 L450.9688,346.7031 Q450.3438,346.125 449.75,345.8594 Q449.1563,345.5781 448.5313,345.5781 Q447.1875,345.5781 446.5,346.6563 Q445.8125,347.7188 445.8125,349.8125 Q445.8125,351.9063 446.5,352.9844 Q447.1875,354.0469 448.5313,354.0469 Q449.1563,354.0469 449.75,353.7813 Q450.3438,353.5 450.9688,352.9219 L450.9688,355.6406 Z " fill="#000000"/><text fill="#000000" font-family="sans-serif" font-size="14" lengthAdjust="spacing" textLength="30.9189" x="462" y="354.8467">Aula</text><line style="stroke:#181818;stroke-width:0.5;" x1="434" x2="494.9189" y1="366" y2="366"/><line style="stroke:#181818;stroke-width:0.5;" x1="434" x2="494.9189" y1="374" y2="374"/></g><!--class Material--><g id="elem_Material"><rect codeLine="13" fill="#F1F1F1" height="48" id="Material" rx="2.5" ry="2.5" style="stroke:#181818;stroke-width:0.5;" width="88.875" x="531" y="334"/><ellipse cx="546" cy="350" fill="#ADD1B2" rx="11" ry="11" style="stroke:#181818;stroke-width:1;"/><path d="M548.9688,355.6406 Q548.3906,355.9375 547.75,356.0781 Q547.1094,356.2344 546.4063,356.2344 Q543.9063,356.2344 542.5781,354.5938 Q541.2656,352.9375 541.2656,349.8125 Q541.2656,346.6875 542.5781,345.0313 Q543.9063,343.375 546.4063,343.375 Q547.1094,343.375 547.75,343.5313 Q548.4063,343.6875 548.9688,343.9844 L548.9688,346.7031 Q548.3438,346.125 547.75,345.8594 Q547.1563,345.5781 546.5313,345.5781 Q545.1875,345.5781 544.5,346.6563 Q543.8125,347.7188 543.8125,349.8125 Q543.8125,351.9063 544.5,352.9844 Q545.1875,354.0469 546.5313,354.0469 Q547.1563,354.0469 547.75,353.7813 Q548.3438,353.5 548.9688,352.9219 L548.9688,355.6406 Z " fill="#000000"/><text fill="#000000" font-family="sans-serif" font-size="14" lengthAdjust="spacing" textLength="56.875" x="560" y="354.8467">Material</text><line style="stroke:#181818;stroke-width:0.5;" x1="532" x2="618.875" y1="366" y2="366"/><line style="stroke:#181818;stroke-width:0.5;" x1="532" x2="618.875" y1="374" y2="374"/></g><!--class Libro--><g id="elem_Libro"><rect codeLine="25" fill="#F1F1F1" height="48" id="Libro" rx="2.5" ry="2.5" style="stroke:#181818;stroke-width:0.5;" width="66.8975" x="7" y="334"/><ellipse cx="22" cy="350" fill="#ADD1B2" rx="11" ry="11" style="stroke:#181818;stroke-width:1;"/><path d="M24.9688,355.6406 Q24.3906,355.9375 23.75,356.0781 Q23.1094,356.2344 22.4063,356.2344 Q19.9063,356.2344 18.5781,354.5938 Q17.2656,352.9375 17.2656,349.8125 Q17.2656,346.6875 18.5781,345.0313 Q19.9063,343.375 22.4063,343.375 Q23.1094,343.375 23.75,343.5313 Q24.4063,343.6875 24.9688,343.9844 L24.9688,346.7031 Q24.3438,346.125 23.75,345.8594 Q23.1563,345.5781 22.5313,345.5781 Q21.1875,345.5781 20.5,346.6563 Q19.8125,347.7188 19.8125,349.8125 Q19.8125,351.9063 20.5,352.9844 Q21.1875,354.0469 22.5313,354.0469 Q23.1563,354.0469 23.75,353.7813 Q24.3438,353.5 24.9688,352.9219 L24.9688,355.6406 Z " fill="#000000"/><text fill="#000000" font-family="sans-serif" font-size="14" lengthAdjust="spacing" textLength="34.8975" x="36" y="354.8467">Libro</text><line style="stroke:#181818;stroke-width:0.5;" x1="8" x2="72.8975" y1="366" y2="366"/><line style="stroke:#181818;stroke-width:0.5;" x1="8" x2="72.8975" y1="374" y2="374"/></g><!--class Revista--><g id="elem_Revista"><rect codeLine="34" fill="#F1F1F1" height="48" id="Revista" rx="2.5" ry="2.5" style="stroke:#181818;stroke-width:0.5;" width="83.8779" x="109.5" y="334"/><ellipse cx="124.5" cy="350" fill="#ADD1B2" rx="11" ry="11" style="stroke:#181818;stroke-width:1;"/><path d="M127.4688,355.6406 Q126.8906,355.9375 126.25,356.0781 Q125.6094,356.2344 124.9063,356.2344 Q122.4063,356.2344 121.0781,354.5938 Q119.7656,352.9375 119.7656,349.8125 Q119.7656,346.6875 121.0781,345.0313 Q122.4063,343.375 124.9063,343.375 Q125.6094,343.375 126.25,343.5313 Q126.9063,343.6875 127.4688,343.9844 L127.4688,346.7031 Q126.8438,346.125 126.25,345.8594 Q125.6563,345.5781 125.0313,345.5781 Q123.6875,345.5781 123,346.6563 Q122.3125,347.7188 122.3125,349.8125 Q122.3125,351.9063 123,352.9844 Q123.6875,354.0469 125.0313,354.0469 Q125.6563,354.0469 126.25,353.7813 Q126.8438,353.5 127.4688,352.9219 L127.4688,355.6406 Z " fill="#000000"/><text fill="#000000" font-family="sans-serif" font-size="14" lengthAdjust="spacing" textLength="51.8779" x="138.5" y="354.8467">Revista</text><line style="stroke:#181818;stroke-width:0.5;" x1="110.5" x2="192.3779" y1="366" y2="366"/><line style="stroke:#181818;stroke-width:0.5;" x1="110.5" x2="192.3779" y1="374" y2="374"/></g><!--class MaterialAudiovisual--><g id="elem_MaterialAudiovisual"><rect codeLine="37" fill="#F1F1F1" height="48" id="MaterialAudiovisual" rx="2.5" ry="2.5" style="stroke:#181818;stroke-width:0.5;" width="169.4775" x="229" y="334"/><ellipse cx="244" cy="350" fill="#ADD1B2" rx="11" ry="11" style="stroke:#181818;stroke-width:1;"/><path d="M246.9688,355.6406 Q246.3906,355.9375 245.75,356.0781 Q245.1094,356.2344 244.4063,356.2344 Q241.9063,356.2344 240.5781,354.5938 Q239.2656,352.9375 239.2656,349.8125 Q239.2656,346.6875 240.5781,345.0313 Q241.9063,343.375 244.4063,343.375 Q245.1094,343.375 245.75,343.5313 Q246.4063,343.6875 246.9688,343.9844 L246.9688,346.7031 Q246.3438,346.125 245.75,345.8594 Q245.1563,345.5781 244.5313,345.5781 Q243.1875,345.5781 242.5,346.6563 Q241.8125,347.7188 241.8125,349.8125 Q241.8125,351.9063 242.5,352.9844 Q243.1875,354.0469 244.5313,354.0469 Q245.1563,354.0469 245.75,353.7813 Q246.3438,353.5 246.9688,352.9219 L246.9688,355.6406 Z " fill="#000000"/><text fill="#000000" font-family="sans-serif" font-size="14" lengthAdjust="spacing" textLength="137.4775" x="258" y="354.8467">MaterialAudiovisual</text><line style="stroke:#181818;stroke-width:0.5;" x1="230" x2="397.4775" y1="366" y2="366"/><line style="stroke:#181818;stroke-width:0.5;" x1="230" x2="397.4775" y1="374" y2="374"/></g><!--reverse link Biblioteca to Elemento--><g id="link_Biblioteca_Elemento"><path codeLine="1" d="M359.3404,65.0451 C346.7604,82.9851 336.31,97.89 323.74,115.83 " fill="transparent" id="Biblioteca-backto-Elemento" style="stroke:#181818;stroke-width:1;"/><polygon fill="transparent" points="366.23,55.22,359.5101,57.836,359.3404,65.0451,366.0602,62.4291,366.23,55.22" style="stroke:#181818;stroke-width:1;"/></g><!--link Biblioteca to Usuario--><g id="link_Biblioteca_Usuario"><path codeLine="2" d="M398.99,55.22 C411.74,73.16 422.352,88.1061 435.092,106.0461 " fill="transparent" id="Biblioteca-to-Usuario" style="stroke:#181818;stroke-width:1;"/><polygon fill="transparent" points="442.04,115.83,441.8273,108.622,435.092,106.0461,435.3047,113.254,442.04,115.83" style="stroke:#181818;stroke-width:1;"/></g><!--reverse link Elemento to Usuario--><g id="link_Elemento_Usuario"><path codeLine="3" d="M363.36,140 C382.26,140 397.59,140 415.78,140 " fill="transparent" id="Elemento-backto-Usuario" style="stroke:#181818;stroke-width:1;stroke-dasharray:7.0,7.0;"/><polygon fill="#181818" points="357.36,140,366.36,144,362.36,140,366.36,136,357.36,140" style="stroke:#181818;stroke-width:1;"/><text fill="#000000" font-family="sans-serif" font-size="13" lengthAdjust="spacing" textLength="22.9785" x="375.5" y="133.0669">usa</text></g><!--reverse link Elemento to Documento--><g id="link_Elemento_Documento"><path codeLine="4" d="M284.3404,174.0451 C271.7604,191.9851 261.31,206.89 248.74,224.83 " fill="transparent" id="Elemento-backto-Documento" style="stroke:#181818;stroke-width:1;"/><polygon fill="#181818" points="291.23,164.22,284.5101,166.836,284.3404,174.0451,291.0602,171.4291,291.23,164.22" style="stroke:#181818;stroke-width:1;"/></g><!--reverse link Elemento to Servicio--><g id="link_Elemento_Servicio"><path codeLine="5" d="M351.4869,170.9769 C377.8169,188.9169 404.18,206.89 430.5,224.83 " fill="transparent" id="Elemento-backto-Servicio" style="stroke:#181818;stroke-width:1;"/><polygon fill="#181818" points="341.57,164.22,344.2761,170.9041,351.4869,170.9769,348.7807,164.2928,341.57,164.22" style="stroke:#181818;stroke-width:1;"/></g><!--reverse link Servicio to Aula--><g id="link_Servicio_Aula"><path codeLine="6" d="M464.5,291.22 C464.5,309.16 464.5,315.89 464.5,333.83 " fill="transparent" id="Servicio-backto-Aula" style="stroke:#181818;stroke-width:1;"/><polygon fill="transparent" points="464.5,273.22,458.5,291.22,470.5,291.22,464.5,273.22" style="stroke:#181818;stroke-width:1;"/></g><!--reverse link Servicio to Material--><g id="link_Servicio_Material"><path codeLine="7" d="M501.5491,285.7125 C520.1591,303.6525 532.86,315.89 551.46,333.83 " fill="transparent" id="Servicio-backto-Material" style="stroke:#181818;stroke-width:1;"/><polygon fill="transparent" points="488.59,273.22,497.3849,290.0322,505.7132,281.3928,488.59,273.22" style="stroke:#181818;stroke-width:1;"/></g><!--reverse link Documento to Libro--><g id="link_Documento_Libro"><path codeLine="8" d="M175.1162,281.9814 C140.1562,301.4614 106.58,320.18 74.1,338.28 " fill="transparent" id="Documento-backto-Libro" style="stroke:#181818;stroke-width:1;"/><polygon fill="transparent" points="190.84,273.22,172.1957,276.7402,178.0367,287.2227,190.84,273.22" style="stroke:#181818;stroke-width:1;"/></g><!--reverse link Documento to Revista--><g id="link_Documento_Revista"><path codeLine="9" d="M204.0561,287.5719 C190.4761,305.5119 182.62,315.89 169.04,333.83 " fill="transparent" id="Documento-backto-Revista" style="stroke:#181818;stroke-width:1;"/><polygon fill="transparent" points="214.92,273.22,199.2722,283.9506,208.8401,291.1932,214.92,273.22" style="stroke:#181818;stroke-width:1;"/></g><!--reverse link Documento to MaterialAudiovisual--><g id="link_Documento_MaterialAudiovisual"><path codeLine="10" d="M260.9439,287.5719 C274.5239,305.5119 282.38,315.89 295.96,333.83 " fill="transparent" id="Documento-backto-MaterialAudiovisual" style="stroke:#181818;stroke-width:1;"/><polygon fill="transparent" points="250.08,273.22,256.1599,291.1932,265.7278,283.9506,250.08,273.22" style="stroke:#181818;stroke-width:1;"/></g><!--SRC=[VP5D3i8W48Ntd6BM9lG0ffiskjEDnWDCaUWaA0a_tLJlBfP2RKFS4FA-nnjujDGfqauA1Cqvx9LyoAVJh9rrpZLSh4T3cYKETMNeTdTL8h05Rt7ccn2sqyB7j8LybgOd4SBI1kfNa1klS2KTqKb3g5XEYlg1EgFNuadsP1skvPJH-2lfuF0XZW4meT3QJ6486i1xN2UMBxrWs5bdK3Y8fdbQ8I5rKq3Z4qhWMyFVYRcYmk6fWn8gzB2qJRwVZnzOv1y0]--></g></svg>