<svg xmlns="http://www.w3.org/2000/svg" xmlns:xlink="http://www.w3.org/1999/xlink" contentStyleType="text/css" data-diagram-type="CLASS" height="1344px" preserveAspectRatio="none" style="width:1524px;height:1344px;background:#FFFFFF;" version="1.1" viewBox="0 0 1524 1344" width="1524px" zoomAndPan="magnify"><defs/><g><!--class Main--><g id="elem_Main"><rect codeLine="134" fill="#F1F1F1" height="96.8906" id="Main" rx="2.5" ry="2.5" style="stroke:#181818;stroke-width:0.5;" width="247.1768" x="970" y="7"/><ellipse cx="1072.6279" cy="23" fill="#ADD1B2" rx="11" ry="11" style="stroke:#181818;stroke-width:1;"/><path d="M1075.5967,28.6406 Q1075.0186,28.9375 1074.3779,29.0781 Q1073.7373,29.2344 1073.0342,29.2344 Q1070.5342,29.2344 1069.2061,27.5938 Q1067.8936,25.9375 1067.8936,22.8125 Q1067.8936,19.6875 1069.2061,18.0313 Q1070.5342,16.375 1073.0342,16.375 Q1073.7373,16.375 1074.3779,16.5313 Q1075.0342,16.6875 1075.5967,16.9844 L1075.5967,19.7031 Q1074.9717,19.125 1074.3779,18.8594 Q1073.7842,18.5781 1073.1592,18.5781 Q1071.8154,18.5781 1071.1279,19.6563 Q1070.4404,20.7188 1070.4404,22.8125 Q1070.4404,24.9063 1071.1279,25.9844 Q1071.8154,27.0469 1073.1592,27.0469 Q1073.7842,27.0469 1074.3779,26.7813 Q1074.9717,26.5 1075.5967,25.9219 L1075.5967,28.6406 Z " fill="#000000"/><text fill="#000000" font-family="sans-serif" font-size="14" lengthAdjust="spacing" textLength="33.4209" x="1093.1279" y="27.8467">Main</text><line style="stroke:#181818;stroke-width:0.5;" x1="971" x2="1216.1768" y1="39" y2="39"/><rect fill="transparent" height="6" style="stroke:#C82930;stroke-width:1;" width="6" x="978" y="49.6484"/><text fill="#000000" font-family="sans-serif" font-size="14" lengthAdjust="spacing" textLength="221.1768" x="990" y="55.9951">LibraryManager libraryManager</text><line style="stroke:#181818;stroke-width:0.5;" x1="971" x2="1216.1768" y1="63.2969" y2="63.2969"/><ellipse cx="981" cy="76.9453" fill="#84BE84" rx="3" ry="3" style="stroke:#038048;stroke-width:1;"/><text fill="#000000" font-family="sans-serif" font-size="14" lengthAdjust="spacing" textLength="210.54" x="990" y="80.292">static void main(String[] args)</text><ellipse cx="981" cy="93.2422" fill="#84BE84" rx="3" ry="3" style="stroke:#038048;stroke-width:1;"/><text fill="#000000" font-family="sans-serif" font-size="14" lengthAdjust="spacing" textLength="152.1816" x="990" y="96.5889">void startSimulation()</text></g><!--class LibraryManager--><g id="elem_LibraryManager"><rect codeLine="121" fill="#F1F1F1" height="210.9688" id="LibraryManager" rx="2.5" ry="2.5" style="stroke:#181818;stroke-width:0.5;" width="395.3457" x="896" y="181"/><ellipse cx="1034.2637" cy="197" fill="#ADD1B2" rx="11" ry="11" style="stroke:#181818;stroke-width:1;"/><path d="M1037.2324,202.6406 Q1036.6543,202.9375 1036.0137,203.0781 Q1035.373,203.2344 1034.6699,203.2344 Q1032.1699,203.2344 1030.8418,201.5938 Q1029.5293,199.9375 1029.5293,196.8125 Q1029.5293,193.6875 1030.8418,192.0313 Q1032.1699,190.375 1034.6699,190.375 Q1035.373,190.375 1036.0137,190.5313 Q1036.6699,190.6875 1037.2324,190.9844 L1037.2324,193.7031 Q1036.6074,193.125 1036.0137,192.8594 Q1035.4199,192.5781 1034.7949,192.5781 Q1033.4512,192.5781 1032.7637,193.6563 Q1032.0762,194.7188 1032.0762,196.8125 Q1032.0762,198.9063 1032.7637,199.9844 Q1033.4512,201.0469 1034.7949,201.0469 Q1035.4199,201.0469 1036.0137,200.7813 Q1036.6074,200.5 1037.2324,199.9219 L1037.2324,202.6406 Z " fill="#000000"/><text fill="#000000" font-family="sans-serif" font-size="14" lengthAdjust="spacing" textLength="110.3184" x="1054.7637" y="201.8467">LibraryManager</text><line style="stroke:#181818;stroke-width:0.5;" x1="897" x2="1290.3457" y1="213" y2="213"/><rect fill="transparent" height="6" style="stroke:#C82930;stroke-width:1;" width="6" x="904" y="223.6484"/><text fill="#000000" font-family="sans-serif" font-size="14" lengthAdjust="spacing" textLength="85.9346" x="916" y="229.9951">String name</text><rect fill="transparent" height="6" style="stroke:#C82930;stroke-width:1;" width="6" x="904" y="239.9453"/><text fill="#000000" font-family="sans-serif" font-size="14" lengthAdjust="spacing" textLength="112.4102" x="916" y="246.292">Storage storage</text><rect fill="transparent" height="6" style="stroke:#C82930;stroke-width:1;" width="6" x="904" y="256.2422"/><text fill="#000000" font-family="sans-serif" font-size="14" lengthAdjust="spacing" textLength="126.8408" x="916" y="262.5889">users: List&lt;User&gt;</text><rect fill="transparent" height="6" style="stroke:#C82930;stroke-width:1;" width="6" x="904" y="272.5391"/><text fill="#000000" font-family="sans-serif" font-size="14" lengthAdjust="spacing" textLength="128.1191" x="916" y="278.8857">loans: List&lt;Loan&gt;</text><ellipse cx="907" cy="291.8359" fill="transparent" rx="3" ry="3" style="stroke:#038048;stroke-width:1;"/><text fill="#000000" font-family="sans-serif" font-size="14" lengthAdjust="spacing" textLength="110.332" x="916" y="295.1826">String getLoans</text><line style="stroke:#181818;stroke-width:0.5;" x1="897" x2="1290.3457" y1="302.4844" y2="302.4844"/><ellipse cx="907" cy="316.1328" fill="#84BE84" rx="3" ry="3" style="stroke:#038048;stroke-width:1;"/><text fill="#000000" font-family="sans-serif" font-size="14" lengthAdjust="spacing" textLength="369.3457" x="916" y="319.4795">void addUser(String name, String email, String type)</text><ellipse cx="907" cy="332.4297" fill="#84BE84" rx="3" ry="3" style="stroke:#038048;stroke-width:1;"/><text fill="#000000" font-family="sans-serif" font-size="14" lengthAdjust="spacing" textLength="249.1426" x="916" y="335.7764">void addLoan(User user, Loan loan)</text><ellipse cx="907" cy="348.7266" fill="#84BE84" rx="3" ry="3" style="stroke:#038048;stroke-width:1;"/><text fill="#000000" font-family="sans-serif" font-size="14" lengthAdjust="spacing" textLength="119.3486" x="916" y="352.0732">String getUsers()</text><ellipse cx="907" cy="365.0234" fill="#84BE84" rx="3" ry="3" style="stroke:#038048;stroke-width:1;"/><text fill="#000000" font-family="sans-serif" font-size="14" lengthAdjust="spacing" textLength="201.209" x="916" y="368.3701">void addElementToStorage()</text><ellipse cx="907" cy="381.3203" fill="#84BE84" rx="3" ry="3" style="stroke:#038048;stroke-width:1;"/><text fill="#000000" font-family="sans-serif" font-size="14" lengthAdjust="spacing" textLength="147.916" x="916" y="384.667">Storage getStorage()</text></g><!--class Storage--><g id="elem_Storage"><rect codeLine="22" fill="#F1F1F1" height="390.2344" id="Storage" rx="2.5" ry="2.5" style="stroke:#181818;stroke-width:0.5;" width="342.6133" x="547" y="453"/><ellipse cx="686.6685" cy="469" fill="#ADD1B2" rx="11" ry="11" style="stroke:#181818;stroke-width:1;"/><path d="M689.6372,474.6406 Q689.0591,474.9375 688.4185,475.0781 Q687.7778,475.2344 687.0747,475.2344 Q684.5747,475.2344 683.2466,473.5938 Q681.9341,471.9375 681.9341,468.8125 Q681.9341,465.6875 683.2466,464.0313 Q684.5747,462.375 687.0747,462.375 Q687.7778,462.375 688.4185,462.5313 Q689.0747,462.6875 689.6372,462.9844 L689.6372,465.7031 Q689.0122,465.125 688.4185,464.8594 Q687.8247,464.5781 687.1997,464.5781 Q685.856,464.5781 685.1685,465.6563 Q684.481,466.7188 684.481,468.8125 Q684.481,470.9063 685.1685,471.9844 Q685.856,473.0469 687.1997,473.0469 Q687.8247,473.0469 688.4185,472.7813 Q689.0122,472.5 689.6372,471.9219 L689.6372,474.6406 Z " fill="#000000"/><text fill="#000000" font-family="sans-serif" font-size="14" lengthAdjust="spacing" textLength="54.7764" x="707.1685" y="473.8467">Storage</text><line style="stroke:#181818;stroke-width:0.5;" x1="548" x2="888.6133" y1="485" y2="485"/><rect fill="transparent" height="6" style="stroke:#C82930;stroke-width:1;" width="6" x="555" y="495.6484"/><text fill="#000000" font-family="sans-serif" font-size="14" lengthAdjust="spacing" textLength="35.4785" x="567" y="501.9951">int id</text><rect fill="transparent" height="6" style="stroke:#C82930;stroke-width:1;" width="6" x="555" y="511.9453"/><text fill="#000000" font-family="sans-serif" font-size="14" lengthAdjust="spacing" textLength="199.6504" x="567" y="518.292">magazines: List&lt;Magazine&gt;</text><rect fill="transparent" height="6" style="stroke:#C82930;stroke-width:1;" width="6" x="555" y="528.2422"/><text fill="#000000" font-family="sans-serif" font-size="14" lengthAdjust="spacing" textLength="133.3623" x="567" y="534.5889">books: List&lt;Book&gt;</text><rect fill="transparent" height="6" style="stroke:#C82930;stroke-width:1;" width="6" x="555" y="544.5391"/><text fill="#000000" font-family="sans-serif" font-size="14" lengthAdjust="spacing" textLength="224.6016" x="567" y="550.8857">audiovisuals: List&lt;Audiovisual&gt;</text><rect fill="transparent" height="6" style="stroke:#C82930;stroke-width:1;" width="6" x="555" y="560.8359"/><text fill="#000000" font-family="sans-serif" font-size="14" lengthAdjust="spacing" textLength="179.7031" x="567" y="567.1826">materials: List&lt;Material&gt;</text><rect fill="transparent" height="6" style="stroke:#C82930;stroke-width:1;" width="6" x="555" y="577.1328"/><text fill="#000000" font-family="sans-serif" font-size="14" lengthAdjust="spacing" textLength="209.0293" x="567" y="583.4795">classrooms: List&lt;Classroom&gt;</text><line style="stroke:#181818;stroke-width:0.5;" x1="548" x2="888.6133" y1="590.7813" y2="590.7813"/><ellipse cx="558" cy="604.4297" fill="#84BE84" rx="3" ry="3" style="stroke:#038048;stroke-width:1;"/><text fill="#000000" font-family="sans-serif" font-size="14" lengthAdjust="spacing" textLength="179.6143" x="567" y="607.7764">void addBook(Book book)</text><ellipse cx="558" cy="620.7266" fill="#84BE84" rx="3" ry="3" style="stroke:#038048;stroke-width:1;"/><text fill="#000000" font-family="sans-serif" font-size="14" lengthAdjust="spacing" textLength="277.9082" x="567" y="624.0732">void addMagazine(Magazine magazine)</text><ellipse cx="558" cy="637.0234" fill="#84BE84" rx="3" ry="3" style="stroke:#038048;stroke-width:1;"/><text fill="#000000" font-family="sans-serif" font-size="14" lengthAdjust="spacing" textLength="316.6133" x="567" y="640.3701">void addAudiovisual(Audiovisual audiovisual)</text><ellipse cx="558" cy="653.3203" fill="#84BE84" rx="3" ry="3" style="stroke:#038048;stroke-width:1;"/><text fill="#000000" font-family="sans-serif" font-size="14" lengthAdjust="spacing" textLength="293.7949" x="567" y="656.667">void addClassroom(Classroom classroom)</text><ellipse cx="558" cy="669.6172" fill="#84BE84" rx="3" ry="3" style="stroke:#038048;stroke-width:1;"/><text fill="#000000" font-family="sans-serif" font-size="14" lengthAdjust="spacing" textLength="247.9873" x="567" y="672.9639">void addMaterial(Material material)</text><ellipse cx="558" cy="685.9141" fill="#84BE84" rx="3" ry="3" style="stroke:#038048;stroke-width:1;"/><text fill="#000000" font-family="sans-serif" font-size="14" lengthAdjust="spacing" textLength="154.1777" x="567" y="689.2607">void eraseBook(int id)</text><ellipse cx="558" cy="702.2109" fill="#84BE84" rx="3" ry="3" style="stroke:#038048;stroke-width:1;"/><text fill="#000000" font-family="sans-serif" font-size="14" lengthAdjust="spacing" textLength="186.1836" x="567" y="705.5576">void eraseMagazine(int id)</text><ellipse cx="558" cy="718.5078" fill="#84BE84" rx="3" ry="3" style="stroke:#038048;stroke-width:1;"/><text fill="#000000" font-family="sans-serif" font-size="14" lengthAdjust="spacing" textLength="199.9375" x="567" y="721.8545">void eraseAudiovisual(int id)</text><ellipse cx="558" cy="734.8047" fill="#84BE84" rx="3" ry="3" style="stroke:#038048;stroke-width:1;"/><text fill="#000000" font-family="sans-serif" font-size="14" lengthAdjust="spacing" textLength="192.6914" x="567" y="738.1514">void eraseClassroom(int id)</text><ellipse cx="558" cy="751.1016" fill="#84BE84" rx="3" ry="3" style="stroke:#038048;stroke-width:1;"/><text fill="#000000" font-family="sans-serif" font-size="14" lengthAdjust="spacing" textLength="176.21" x="567" y="754.4482">void eraseMaterial(int id)</text><ellipse cx="558" cy="767.3984" fill="#84BE84" rx="3" ry="3" style="stroke:#038048;stroke-width:1;"/><text fill="#000000" font-family="sans-serif" font-size="14" lengthAdjust="spacing" textLength="174.4326" x="567" y="770.7451">Book getBookById(int id)</text><ellipse cx="558" cy="783.6953" fill="#84BE84" rx="3" ry="3" style="stroke:#038048;stroke-width:1;"/><text fill="#000000" font-family="sans-serif" font-size="14" lengthAdjust="spacing" textLength="238.4443" x="567" y="787.042">Magazine getMagazineById(int id)</text><ellipse cx="558" cy="799.9922" fill="#84BE84" rx="3" ry="3" style="stroke:#038048;stroke-width:1;"/><text fill="#000000" font-family="sans-serif" font-size="14" lengthAdjust="spacing" textLength="265.9521" x="567" y="803.3389">Audiovisual getAudiovisualById(int id)</text><ellipse cx="558" cy="816.2891" fill="#84BE84" rx="3" ry="3" style="stroke:#038048;stroke-width:1;"/><text fill="#000000" font-family="sans-serif" font-size="14" lengthAdjust="spacing" textLength="251.46" x="567" y="819.6357">Classroom getClassroomById(int id)</text><ellipse cx="558" cy="832.5859" fill="#84BE84" rx="3" ry="3" style="stroke:#038048;stroke-width:1;"/><text fill="#000000" font-family="sans-serif" font-size="14" lengthAdjust="spacing" textLength="218.4971" x="567" y="835.9326">Material getMaterialById(int id)</text></g><!--class User--><g id="elem_User"><rect codeLine="61" fill="#F1F1F1" height="259.8594" id="User" rx="2.5" ry="2.5" style="stroke:#181818;stroke-width:0.5;" width="219.6348" x="1297.5" y="518"/><ellipse cx="1387.1123" cy="534" fill="#ADD1B2" rx="11" ry="11" style="stroke:#181818;stroke-width:1;"/><path d="M1390.0811,539.6406 Q1389.5029,539.9375 1388.8623,540.0781 Q1388.2217,540.2344 1387.5186,540.2344 Q1385.0186,540.2344 1383.6904,538.5938 Q1382.3779,536.9375 1382.3779,533.8125 Q1382.3779,530.6875 1383.6904,529.0313 Q1385.0186,527.375 1387.5186,527.375 Q1388.2217,527.375 1388.8623,527.5313 Q1389.5186,527.6875 1390.0811,527.9844 L1390.0811,530.7031 Q1389.4561,530.125 1388.8623,529.8594 Q1388.2686,529.5781 1387.6436,529.5781 Q1386.2998,529.5781 1385.6123,530.6563 Q1384.9248,531.7188 1384.9248,533.8125 Q1384.9248,535.9063 1385.6123,536.9844 Q1386.2998,538.0469 1387.6436,538.0469 Q1388.2686,538.0469 1388.8623,537.7813 Q1389.4561,537.5 1390.0811,536.9219 L1390.0811,539.6406 Z " fill="#000000"/><text fill="#000000" font-family="sans-serif" font-size="14" lengthAdjust="spacing" textLength="31.9102" x="1407.6123" y="538.8467">User</text><line style="stroke:#181818;stroke-width:0.5;" x1="1298.5" x2="1516.1348" y1="550" y2="550"/><rect fill="transparent" height="6" style="stroke:#C82930;stroke-width:1;" width="6" x="1305.5" y="560.6484"/><text fill="#000000" font-family="sans-serif" font-size="14" lengthAdjust="spacing" textLength="35.4785" x="1317.5" y="566.9951">int id</text><rect fill="transparent" height="6" style="stroke:#C82930;stroke-width:1;" width="6" x="1305.5" y="576.9453"/><text fill="#000000" font-family="sans-serif" font-size="14" lengthAdjust="spacing" textLength="85.9346" x="1317.5" y="583.292">String name</text><rect fill="transparent" height="6" style="stroke:#C82930;stroke-width:1;" width="6" x="1305.5" y="593.2422"/><text fill="#000000" font-family="sans-serif" font-size="14" lengthAdjust="spacing" textLength="84.8408" x="1317.5" y="599.5889">String email</text><rect fill="transparent" height="6" style="stroke:#C82930;stroke-width:1;" width="6" x="1305.5" y="609.5391"/><text fill="#000000" font-family="sans-serif" font-size="14" lengthAdjust="spacing" textLength="77.5059" x="1317.5" y="615.8857">String type</text><rect fill="transparent" height="6" style="stroke:#C82930;stroke-width:1;" width="6" x="1305.5" y="625.8359"/><text fill="#000000" font-family="sans-serif" font-size="14" lengthAdjust="spacing" textLength="92.3672" x="1317.5" y="632.1826">int maxItems</text><line style="stroke:#181818;stroke-width:0.5;" x1="1298.5" x2="1516.1348" y1="639.4844" y2="639.4844"/><ellipse cx="1308.5" cy="653.1328" fill="#84BE84" rx="3" ry="3" style="stroke:#038048;stroke-width:1;"/><text fill="#000000" font-family="sans-serif" font-size="14" lengthAdjust="spacing" textLength="93.1602" x="1317.5" y="656.4795">String getId()</text><ellipse cx="1308.5" cy="669.4297" fill="#84BE84" rx="3" ry="3" style="stroke:#038048;stroke-width:1;"/><text fill="#000000" font-family="sans-serif" font-size="14" lengthAdjust="spacing" textLength="138.4209" x="1317.5" y="672.7764">void setId(String id)</text><ellipse cx="1308.5" cy="685.7266" fill="#84BE84" rx="3" ry="3" style="stroke:#038048;stroke-width:1;"/><text fill="#000000" font-family="sans-serif" font-size="14" lengthAdjust="spacing" textLength="121.4473" x="1317.5" y="689.0732">String getName()</text><ellipse cx="1308.5" cy="702.0234" fill="#84BE84" rx="3" ry="3" style="stroke:#038048;stroke-width:1;"/><text fill="#000000" font-family="sans-serif" font-size="14" lengthAdjust="spacing" textLength="193.6348" x="1317.5" y="705.3701">void setName(String name)</text><ellipse cx="1308.5" cy="718.3203" fill="#84BE84" rx="3" ry="3" style="stroke:#038048;stroke-width:1;"/><text fill="#000000" font-family="sans-serif" font-size="14" lengthAdjust="spacing" textLength="118.9863" x="1317.5" y="721.667">String getEmail()</text><ellipse cx="1308.5" cy="734.6172" fill="#84BE84" rx="3" ry="3" style="stroke:#038048;stroke-width:1;"/><text fill="#000000" font-family="sans-serif" font-size="14" lengthAdjust="spacing" textLength="190.0801" x="1317.5" y="737.9639">void setEmail(String email)</text><ellipse cx="1308.5" cy="750.9141" fill="#84BE84" rx="3" ry="3" style="stroke:#038048;stroke-width:1;"/><text fill="#000000" font-family="sans-serif" font-size="14" lengthAdjust="spacing" textLength="114.4814" x="1317.5" y="754.2607">String getType()</text><ellipse cx="1308.5" cy="767.2109" fill="#84BE84" rx="3" ry="3" style="stroke:#038048;stroke-width:1;"/><text fill="#000000" font-family="sans-serif" font-size="14" lengthAdjust="spacing" textLength="178.2402" x="1317.5" y="770.5576">void setType(String type)</text></g><!--class Loan--><g id="elem_Loan"><rect codeLine="140" fill="#F1F1F1" height="145.7813" id="Loan" rx="2.5" ry="2.5" style="stroke:#181818;stroke-width:0.5;" width="337.7734" x="924.5" y="575"/><ellipse cx="1072.228" cy="591" fill="#ADD1B2" rx="11" ry="11" style="stroke:#181818;stroke-width:1;"/><path d="M1075.1968,596.6406 Q1074.6187,596.9375 1073.978,597.0781 Q1073.3374,597.2344 1072.6343,597.2344 Q1070.1343,597.2344 1068.8062,595.5938 Q1067.4937,593.9375 1067.4937,590.8125 Q1067.4937,587.6875 1068.8062,586.0313 Q1070.1343,584.375 1072.6343,584.375 Q1073.3374,584.375 1073.978,584.5313 Q1074.6343,584.6875 1075.1968,584.9844 L1075.1968,587.7031 Q1074.5718,587.125 1073.978,586.8594 Q1073.3843,586.5781 1072.7593,586.5781 Q1071.4155,586.5781 1070.728,587.6563 Q1070.0405,588.7188 1070.0405,590.8125 Q1070.0405,592.9063 1070.728,593.9844 Q1071.4155,595.0469 1072.7593,595.0469 Q1073.3843,595.0469 1073.978,594.7813 Q1074.5718,594.5 1075.1968,593.9219 L1075.1968,596.6406 Z " fill="#000000"/><text fill="#000000" font-family="sans-serif" font-size="14" lengthAdjust="spacing" textLength="33.8174" x="1092.728" y="595.8467">Loan</text><line style="stroke:#181818;stroke-width:0.5;" x1="925.5" x2="1261.2734" y1="607" y2="607"/><rect fill="transparent" height="6" style="stroke:#C82930;stroke-width:1;" width="6" x="932.5" y="617.6484"/><text fill="#000000" font-family="sans-serif" font-size="14" lengthAdjust="spacing" textLength="88.1426" x="944.5" y="623.9951">int maxDays</text><rect fill="transparent" height="6" style="stroke:#C82930;stroke-width:1;" width="6" x="932.5" y="633.9453"/><text fill="#000000" font-family="sans-serif" font-size="14" lengthAdjust="spacing" textLength="66.8965" x="944.5" y="640.292">User user</text><rect fill="transparent" height="6" style="stroke:#C82930;stroke-width:1;" width="6" x="932.5" y="650.2422"/><text fill="#000000" font-family="sans-serif" font-size="14" lengthAdjust="spacing" textLength="112.4102" x="944.5" y="656.5889">Storage storage</text><line style="stroke:#181818;stroke-width:0.5;" x1="925.5" x2="1261.2734" y1="663.8906" y2="663.8906"/><ellipse cx="935.5" cy="677.5391" fill="#84BE84" rx="3" ry="3" style="stroke:#038048;stroke-width:1;"/><text fill="#000000" font-family="sans-serif" font-size="14" lengthAdjust="spacing" textLength="130.2793" x="944.5" y="680.8857">void setMaxDays()</text><ellipse cx="935.5" cy="693.8359" fill="#84BE84" rx="3" ry="3" style="stroke:#038048;stroke-width:1;"/><text fill="#000000" font-family="sans-serif" font-size="14" lengthAdjust="spacing" textLength="120.4971" x="944.5" y="697.1826">int getMaxDays()</text><ellipse cx="935.5" cy="710.1328" fill="#84BE84" rx="3" ry="3" style="stroke:#038048;stroke-width:1;"/><text fill="#000000" font-family="sans-serif" font-size="14" lengthAdjust="spacing" textLength="311.7734" x="944.5" y="713.4795">void createLoan(User user, Storage storage)</text></g><!--class Document--><g id="elem_Document"><rect codeLine="46" fill="#F1F1F1" height="227.2656" id="Document" rx="2.5" ry="2.5" style="stroke:#181818;stroke-width:0.5;" width="198.5391" x="484" y="904"/><ellipse cx="542.7549" cy="920" fill="#A9DCDF" rx="11" ry="11" style="stroke:#181818;stroke-width:1;"/><path d="M542.8643,915.3438 L541.708,920.4219 L544.0361,920.4219 L542.8643,915.3438 Z M541.3799,913.1094 L544.3643,913.1094 L547.7236,925.5 L545.2705,925.5 L544.5049,922.4375 L541.2236,922.4375 L540.4736,925.5 L538.0361,925.5 L541.3799,913.1094 Z " fill="#000000"/><text fill="#000000" font-family="sans-serif" font-size="14" font-style="italic" lengthAdjust="spacing" textLength="72.5293" x="563.2549" y="924.8467">Document</text><line style="stroke:#181818;stroke-width:0.5;" x1="485" x2="681.5391" y1="936" y2="936"/><rect fill="transparent" height="6" style="stroke:#C82930;stroke-width:1;" width="6" x="492" y="946.6484"/><text fill="#000000" font-family="sans-serif" font-size="14" lengthAdjust="spacing" textLength="35.4785" x="504" y="952.9951">int id</text><rect fill="transparent" height="6" style="stroke:#C82930;stroke-width:1;" width="6" x="492" y="962.9453"/><text fill="#000000" font-family="sans-serif" font-size="14" lengthAdjust="spacing" textLength="73.6025" x="504" y="969.292">String title</text><rect fill="transparent" height="6" style="stroke:#C82930;stroke-width:1;" width="6" x="492" y="979.2422"/><text fill="#000000" font-family="sans-serif" font-size="14" lengthAdjust="spacing" textLength="92.3672" x="504" y="985.5889">String author</text><rect fill="transparent" height="6" style="stroke:#C82930;stroke-width:1;" width="6" x="492" y="995.5391"/><text fill="#000000" font-family="sans-serif" font-size="14" lengthAdjust="spacing" textLength="131.7217" x="504" y="1001.8857">int publicationYear</text><rect fill="transparent" height="6" style="stroke:#C82930;stroke-width:1;" width="6" x="492" y="1011.8359"/><text fill="#000000" font-family="sans-serif" font-size="14" lengthAdjust="spacing" textLength="123.6143" x="504" y="1018.1826">boolean available</text><line style="stroke:#181818;stroke-width:0.5;" x1="485" x2="681.5391" y1="1025.4844" y2="1025.4844"/><ellipse cx="495" cy="1039.1328" fill="#84BE84" rx="3" ry="3" style="stroke:#038048;stroke-width:1;"/><text fill="#000000" font-family="sans-serif" font-size="14" lengthAdjust="spacing" textLength="93.1602" x="504" y="1042.4795">String getId()</text><ellipse cx="495" cy="1055.4297" fill="#84BE84" rx="3" ry="3" style="stroke:#038048;stroke-width:1;"/><text fill="#000000" font-family="sans-serif" font-size="14" lengthAdjust="spacing" textLength="138.4209" x="504" y="1058.7764">void setId(String id)</text><ellipse cx="495" cy="1071.7266" fill="#84BE84" rx="3" ry="3" style="stroke:#038048;stroke-width:1;"/><text fill="#000000" font-family="sans-serif" font-size="14" lengthAdjust="spacing" textLength="110.5781" x="504" y="1075.0732">String getTitle()</text><ellipse cx="495" cy="1088.0234" fill="#84BE84" rx="3" ry="3" style="stroke:#038048;stroke-width:1;"/><text fill="#000000" font-family="sans-serif" font-size="14" lengthAdjust="spacing" textLength="155.8389" x="504" y="1091.3701">void setTitle(String id)</text><ellipse cx="495" cy="1104.3203" fill="#84BE84" rx="3" ry="3" style="stroke:#038048;stroke-width:1;"/><text fill="#000000" font-family="sans-serif" font-size="14" lengthAdjust="spacing" textLength="127.2783" x="504" y="1107.667">String getAuthor()</text><ellipse cx="495" cy="1120.6172" fill="#84BE84" rx="3" ry="3" style="stroke:#038048;stroke-width:1;"/><text fill="#000000" font-family="sans-serif" font-size="14" lengthAdjust="spacing" textLength="172.5391" x="504" y="1123.9639">void setAuthor(String id)</text></g><!--class Service--><g id="elem_Service"><rect codeLine="93" fill="#F1F1F1" height="162.0781" id="Service" rx="2.5" ry="2.5" style="stroke:#181818;stroke-width:0.5;" width="192.708" x="901" y="936.5"/><ellipse cx="967.2334" cy="952.5" fill="#A9DCDF" rx="11" ry="11" style="stroke:#181818;stroke-width:1;"/><path d="M967.3428,947.8438 L966.1865,952.9219 L968.5146,952.9219 L967.3428,947.8438 Z M965.8584,945.6094 L968.8428,945.6094 L972.2021,958 L969.749,958 L968.9834,954.9375 L965.7021,954.9375 L964.9521,958 L962.5146,958 L965.8584,945.6094 Z " fill="#000000"/><text fill="#000000" font-family="sans-serif" font-size="14" font-style="italic" lengthAdjust="spacing" textLength="51.7412" x="987.7334" y="957.3467">Service</text><line style="stroke:#181818;stroke-width:0.5;" x1="902" x2="1092.708" y1="968.5" y2="968.5"/><rect fill="transparent" height="6" style="stroke:#C82930;stroke-width:1;" width="6" x="909" y="979.1484"/><text fill="#000000" font-family="sans-serif" font-size="14" lengthAdjust="spacing" textLength="35.4785" x="921" y="985.4951">int id</text><rect fill="transparent" height="6" style="stroke:#C82930;stroke-width:1;" width="6" x="909" y="995.4453"/><text fill="#000000" font-family="sans-serif" font-size="14" lengthAdjust="spacing" textLength="85.9346" x="921" y="1001.792">String name</text><rect fill="transparent" height="6" style="stroke:#C82930;stroke-width:1;" width="6" x="909" y="1011.7422"/><text fill="#000000" font-family="sans-serif" font-size="14" lengthAdjust="spacing" textLength="123.6143" x="921" y="1018.0889">boolean available</text><line style="stroke:#181818;stroke-width:0.5;" x1="902" x2="1092.708" y1="1025.3906" y2="1025.3906"/><ellipse cx="912" cy="1039.0391" fill="#84BE84" rx="3" ry="3" style="stroke:#038048;stroke-width:1;"/><text fill="#000000" font-family="sans-serif" font-size="14" lengthAdjust="spacing" textLength="93.1602" x="921" y="1042.3857">String getId()</text><ellipse cx="912" cy="1055.3359" fill="#84BE84" rx="3" ry="3" style="stroke:#038048;stroke-width:1;"/><text fill="#000000" font-family="sans-serif" font-size="14" lengthAdjust="spacing" textLength="138.4209" x="921" y="1058.6826">void setId(String id)</text><ellipse cx="912" cy="1071.6328" fill="#84BE84" rx="3" ry="3" style="stroke:#038048;stroke-width:1;"/><text fill="#000000" font-family="sans-serif" font-size="14" lengthAdjust="spacing" textLength="121.4473" x="921" y="1074.9795">String getName()</text><ellipse cx="912" cy="1087.9297" fill="#84BE84" rx="3" ry="3" style="stroke:#038048;stroke-width:1;"/><text fill="#000000" font-family="sans-serif" font-size="14" lengthAdjust="spacing" textLength="166.708" x="921" y="1091.2764">void setName(String id)</text></g><!--class Classroom--><g id="elem_Classroom"><rect codeLine="87" fill="#F1F1F1" height="96.8906" id="Classroom" rx="2.5" ry="2.5" style="stroke:#181818;stroke-width:0.5;" width="235.3848" x="880" y="1216.5"/><ellipse cx="956.7642" cy="1232.5" fill="#ADD1B2" rx="11" ry="11" style="stroke:#181818;stroke-width:1;"/><path d="M959.7329,1238.1406 Q959.1548,1238.4375 958.5142,1238.5781 Q957.8735,1238.7344 957.1704,1238.7344 Q954.6704,1238.7344 953.3423,1237.0938 Q952.0298,1235.4375 952.0298,1232.3125 Q952.0298,1229.1875 953.3423,1227.5313 Q954.6704,1225.875 957.1704,1225.875 Q957.8735,1225.875 958.5142,1226.0313 Q959.1704,1226.1875 959.7329,1226.4844 L959.7329,1229.2031 Q959.1079,1228.625 958.5142,1228.3594 Q957.9204,1228.0781 957.2954,1228.0781 Q955.9517,1228.0781 955.2642,1229.1563 Q954.5767,1230.2188 954.5767,1232.3125 Q954.5767,1234.4063 955.2642,1235.4844 Q955.9517,1236.5469 957.2954,1236.5469 Q957.9204,1236.5469 958.5142,1236.2813 Q959.1079,1236 959.7329,1235.4219 L959.7329,1238.1406 Z " fill="#000000"/><text fill="#000000" font-family="sans-serif" font-size="14" lengthAdjust="spacing" textLength="73.3564" x="977.2642" y="1237.3467">Classroom</text><line style="stroke:#181818;stroke-width:0.5;" x1="881" x2="1114.3848" y1="1248.5" y2="1248.5"/><rect fill="transparent" height="6" style="stroke:#C82930;stroke-width:1;" width="6" x="888" y="1259.1484"/><text fill="#000000" font-family="sans-serif" font-size="14" lengthAdjust="spacing" textLength="81.8057" x="900" y="1265.4951">int capacity</text><line style="stroke:#181818;stroke-width:0.5;" x1="881" x2="1114.3848" y1="1272.7969" y2="1272.7969"/><ellipse cx="891" cy="1286.4453" fill="#84BE84" rx="3" ry="3" style="stroke:#038048;stroke-width:1;"/><text fill="#000000" font-family="sans-serif" font-size="14" lengthAdjust="spacing" textLength="117.7969" x="900" y="1289.792">int getCapacity()</text><ellipse cx="891" cy="1302.7422" fill="#84BE84" rx="3" ry="3" style="stroke:#038048;stroke-width:1;"/><text fill="#000000" font-family="sans-serif" font-size="14" lengthAdjust="spacing" textLength="209.3848" x="900" y="1306.0889">void setCapacity(int capacity)</text></g><!--class Material--><g id="elem_Material"><rect codeLine="16" fill="#F1F1F1" height="96.8906" id="Material" rx="2.5" ry="2.5" style="stroke:#181818;stroke-width:0.5;" width="296.2041" x="1150.5" y="1216.5"/><ellipse cx="1265.9146" cy="1232.5" fill="#ADD1B2" rx="11" ry="11" style="stroke:#181818;stroke-width:1;"/><path d="M1268.8833,1238.1406 Q1268.3052,1238.4375 1267.6646,1238.5781 Q1267.0239,1238.7344 1266.3208,1238.7344 Q1263.8208,1238.7344 1262.4927,1237.0938 Q1261.1802,1235.4375 1261.1802,1232.3125 Q1261.1802,1229.1875 1262.4927,1227.5313 Q1263.8208,1225.875 1266.3208,1225.875 Q1267.0239,1225.875 1267.6646,1226.0313 Q1268.3208,1226.1875 1268.8833,1226.4844 L1268.8833,1229.2031 Q1268.2583,1228.625 1267.6646,1228.3594 Q1267.0708,1228.0781 1266.4458,1228.0781 Q1265.1021,1228.0781 1264.4146,1229.1563 Q1263.7271,1230.2188 1263.7271,1232.3125 Q1263.7271,1234.4063 1264.4146,1235.4844 Q1265.1021,1236.5469 1266.4458,1236.5469 Q1267.0708,1236.5469 1267.6646,1236.2813 Q1268.2583,1236 1268.8833,1235.4219 L1268.8833,1238.1406 Z " fill="#000000"/><text fill="#000000" font-family="sans-serif" font-size="14" lengthAdjust="spacing" textLength="56.875" x="1286.4146" y="1237.3467">Material</text><line style="stroke:#181818;stroke-width:0.5;" x1="1151.5" x2="1445.7041" y1="1248.5" y2="1248.5"/><rect fill="transparent" height="6" style="stroke:#C82930;stroke-width:1;" width="6" x="1158.5" y="1259.1484"/><text fill="#000000" font-family="sans-serif" font-size="14" lengthAdjust="spacing" textLength="124.0723" x="1170.5" y="1265.4951">String description</text><line style="stroke:#181818;stroke-width:0.5;" x1="1151.5" x2="1445.7041" y1="1272.7969" y2="1272.7969"/><ellipse cx="1161.5" cy="1286.4453" fill="#84BE84" rx="3" ry="3" style="stroke:#038048;stroke-width:1;"/><text fill="#000000" font-family="sans-serif" font-size="14" lengthAdjust="spacing" textLength="159.8789" x="1170.5" y="1289.792">String getDescription()</text><ellipse cx="1161.5" cy="1302.7422" fill="#84BE84" rx="3" ry="3" style="stroke:#038048;stroke-width:1;"/><text fill="#000000" font-family="sans-serif" font-size="14" lengthAdjust="spacing" textLength="270.2041" x="1170.5" y="1306.0889">void setDescription(String description)</text></g><!--class Book--><g id="elem_Book"><rect codeLine="78" fill="#F1F1F1" height="145.7813" id="Book" rx="2.5" ry="2.5" style="stroke:#181818;stroke-width:0.5;" width="263.0977" x="7" y="1192"/><ellipse cx="116.8774" cy="1208" fill="#ADD1B2" rx="11" ry="11" style="stroke:#181818;stroke-width:1;"/><path d="M119.8462,1213.6406 Q119.2681,1213.9375 118.6274,1214.0781 Q117.9868,1214.2344 117.2837,1214.2344 Q114.7837,1214.2344 113.4556,1212.5938 Q112.1431,1210.9375 112.1431,1207.8125 Q112.1431,1204.6875 113.4556,1203.0313 Q114.7837,1201.375 117.2837,1201.375 Q117.9868,1201.375 118.6274,1201.5313 Q119.2837,1201.6875 119.8462,1201.9844 L119.8462,1204.7031 Q119.2212,1204.125 118.6274,1203.8594 Q118.0337,1203.5781 117.4087,1203.5781 Q116.0649,1203.5781 115.3774,1204.6563 Q114.6899,1205.7188 114.6899,1207.8125 Q114.6899,1209.9063 115.3774,1210.9844 Q116.0649,1212.0469 117.4087,1212.0469 Q118.0337,1212.0469 118.6274,1211.7813 Q119.2212,1211.5 119.8462,1210.9219 L119.8462,1213.6406 Z " fill="#000000"/><text fill="#000000" font-family="sans-serif" font-size="14" lengthAdjust="spacing" textLength="34.8428" x="137.3774" y="1212.8467">Book</text><line style="stroke:#181818;stroke-width:0.5;" x1="8" x2="269.0977" y1="1224" y2="1224"/><rect fill="transparent" height="6" style="stroke:#C82930;stroke-width:1;" width="6" x="15" y="1234.6484"/><text fill="#000000" font-family="sans-serif" font-size="14" lengthAdjust="spacing" textLength="75.1748" x="27" y="1240.9951">String isbn</text><rect fill="transparent" height="6" style="stroke:#C82930;stroke-width:1;" width="6" x="15" y="1250.9453"/><text fill="#000000" font-family="sans-serif" font-size="14" lengthAdjust="spacing" textLength="95.9014" x="27" y="1257.292">int numPages</text><line style="stroke:#181818;stroke-width:0.5;" x1="8" x2="269.0977" y1="1264.5938" y2="1264.5938"/><ellipse cx="18" cy="1278.2422" fill="#84BE84" rx="3" ry="3" style="stroke:#038048;stroke-width:1;"/><text fill="#000000" font-family="sans-serif" font-size="14" lengthAdjust="spacing" textLength="109.3271" x="27" y="1281.5889">String getIsbn()</text><ellipse cx="18" cy="1294.5391" fill="#84BE84" rx="3" ry="3" style="stroke:#038048;stroke-width:1;"/><text fill="#000000" font-family="sans-serif" font-size="14" lengthAdjust="spacing" textLength="170.7549" x="27" y="1297.8857">void setIsbn(String isbn)</text><ellipse cx="18" cy="1310.8359" fill="#84BE84" rx="3" ry="3" style="stroke:#038048;stroke-width:1;"/><text fill="#000000" font-family="sans-serif" font-size="14" lengthAdjust="spacing" textLength="131.4141" x="27" y="1314.1826">int getNumPages()</text><ellipse cx="18" cy="1327.1328" fill="#84BE84" rx="3" ry="3" style="stroke:#038048;stroke-width:1;"/><text fill="#000000" font-family="sans-serif" font-size="14" lengthAdjust="spacing" textLength="237.0977" x="27" y="1330.4795">void setNumPages(int numPages)</text></g><!--class Magazine--><g id="elem_Magazine"><rect codeLine="103" fill="#F1F1F1" height="145.7813" id="Magazine" rx="2.5" ry="2.5" style="stroke:#181818;stroke-width:0.5;" width="267.7939" x="305.5" y="1192"/><ellipse cx="401.7227" cy="1208" fill="#ADD1B2" rx="11" ry="11" style="stroke:#181818;stroke-width:1;"/><path d="M404.6914,1213.6406 Q404.1133,1213.9375 403.4727,1214.0781 Q402.832,1214.2344 402.1289,1214.2344 Q399.6289,1214.2344 398.3008,1212.5938 Q396.9883,1210.9375 396.9883,1207.8125 Q396.9883,1204.6875 398.3008,1203.0313 Q399.6289,1201.375 402.1289,1201.375 Q402.832,1201.375 403.4727,1201.5313 Q404.1289,1201.6875 404.6914,1201.9844 L404.6914,1204.7031 Q404.0664,1204.125 403.4727,1203.8594 Q402.8789,1203.5781 402.2539,1203.5781 Q400.9102,1203.5781 400.2227,1204.6563 Q399.5352,1205.7188 399.5352,1207.8125 Q399.5352,1209.9063 400.2227,1210.9844 Q400.9102,1212.0469 402.2539,1212.0469 Q402.8789,1212.0469 403.4727,1211.7813 Q404.0664,1211.5 404.6914,1210.9219 L404.6914,1213.6406 Z " fill="#000000"/><text fill="#000000" font-family="sans-serif" font-size="14" lengthAdjust="spacing" textLength="66.8486" x="422.2227" y="1212.8467">Magazine</text><line style="stroke:#181818;stroke-width:0.5;" x1="306.5" x2="572.2939" y1="1224" y2="1224"/><rect fill="transparent" height="6" style="stroke:#C82930;stroke-width:1;" width="6" x="313.5" y="1234.6484"/><text fill="#000000" font-family="sans-serif" font-size="14" lengthAdjust="spacing" textLength="73.582" x="325.5" y="1240.9951">String issn</text><rect fill="transparent" height="6" style="stroke:#C82930;stroke-width:1;" width="6" x="313.5" y="1250.9453"/><text fill="#000000" font-family="sans-serif" font-size="14" lengthAdjust="spacing" textLength="119.1572" x="325.5" y="1257.292">int numberPages</text><line style="stroke:#181818;stroke-width:0.5;" x1="306.5" x2="572.2939" y1="1264.5938" y2="1264.5938"/><ellipse cx="316.5" cy="1278.2422" fill="#84BE84" rx="3" ry="3" style="stroke:#038048;stroke-width:1;"/><text fill="#000000" font-family="sans-serif" font-size="14" lengthAdjust="spacing" textLength="107.7344" x="325.5" y="1281.5889">String getIssn()</text><ellipse cx="316.5" cy="1294.5391" fill="#84BE84" rx="3" ry="3" style="stroke:#038048;stroke-width:1;"/><text fill="#000000" font-family="sans-serif" font-size="14" lengthAdjust="spacing" textLength="167.5693" x="325.5" y="1297.8857">void setIssn(String issn)</text><ellipse cx="316.5" cy="1310.8359" fill="#84BE84" rx="3" ry="3" style="stroke:#038048;stroke-width:1;"/><text fill="#000000" font-family="sans-serif" font-size="14" lengthAdjust="spacing" textLength="154.6699" x="325.5" y="1314.1826">int getNumberPages()</text><ellipse cx="316.5" cy="1327.1328" fill="#84BE84" rx="3" ry="3" style="stroke:#038048;stroke-width:1;"/><text fill="#000000" font-family="sans-serif" font-size="14" lengthAdjust="spacing" textLength="241.7939" x="325.5" y="1330.4795">void setNumberPages(int number)</text></g><!--class Audiovisual--><g id="elem_Audiovisual"><rect codeLine="112" fill="#F1F1F1" height="145.7813" id="Audiovisual" rx="2.5" ry="2.5" style="stroke:#181818;stroke-width:0.5;" width="235.665" x="608.5" y="1192"/><ellipse cx="681.7813" cy="1208" fill="#ADD1B2" rx="11" ry="11" style="stroke:#181818;stroke-width:1;"/><path d="M684.75,1213.6406 Q684.1719,1213.9375 683.5313,1214.0781 Q682.8906,1214.2344 682.1875,1214.2344 Q679.6875,1214.2344 678.3594,1212.5938 Q677.0469,1210.9375 677.0469,1207.8125 Q677.0469,1204.6875 678.3594,1203.0313 Q679.6875,1201.375 682.1875,1201.375 Q682.8906,1201.375 683.5313,1201.5313 Q684.1875,1201.6875 684.75,1201.9844 L684.75,1204.7031 Q684.125,1204.125 683.5313,1203.8594 Q682.9375,1203.5781 682.3125,1203.5781 Q680.9688,1203.5781 680.2813,1204.6563 Q679.5938,1205.7188 679.5938,1207.8125 Q679.5938,1209.9063 680.2813,1210.9844 Q680.9688,1212.0469 682.3125,1212.0469 Q682.9375,1212.0469 683.5313,1211.7813 Q684.125,1211.5 684.75,1210.9219 L684.75,1213.6406 Z " fill="#000000"/><text fill="#000000" font-family="sans-serif" font-size="14" lengthAdjust="spacing" textLength="80.6025" x="702.2813" y="1212.8467">Audiovisual</text><line style="stroke:#181818;stroke-width:0.5;" x1="609.5" x2="843.165" y1="1224" y2="1224"/><rect fill="transparent" height="6" style="stroke:#C82930;stroke-width:1;" width="6" x="616.5" y="1234.6484"/><text fill="#000000" font-family="sans-serif" font-size="14" lengthAdjust="spacing" textLength="93.1875" x="628.5" y="1240.9951">String format</text><rect fill="transparent" height="6" style="stroke:#C82930;stroke-width:1;" width="6" x="616.5" y="1250.9453"/><text fill="#000000" font-family="sans-serif" font-size="14" lengthAdjust="spacing" textLength="81.6143" x="628.5" y="1257.292">int duration</text><line style="stroke:#181818;stroke-width:0.5;" x1="609.5" x2="843.165" y1="1264.5938" y2="1264.5938"/><ellipse cx="619.5" cy="1278.2422" fill="#84BE84" rx="3" ry="3" style="stroke:#038048;stroke-width:1;"/><text fill="#000000" font-family="sans-serif" font-size="14" lengthAdjust="spacing" textLength="130.2246" x="628.5" y="1281.5889">String getFormat()</text><ellipse cx="619.5" cy="1294.5391" fill="#84BE84" rx="3" ry="3" style="stroke:#038048;stroke-width:1;"/><text fill="#000000" font-family="sans-serif" font-size="14" lengthAdjust="spacing" textLength="209.665" x="628.5" y="1297.8857">void setFormat(String format)</text><ellipse cx="619.5" cy="1310.8359" fill="#84BE84" rx="3" ry="3" style="stroke:#038048;stroke-width:1;"/><text fill="#000000" font-family="sans-serif" font-size="14" lengthAdjust="spacing" textLength="117.4209" x="628.5" y="1314.1826">int getDuration()</text><ellipse cx="619.5" cy="1327.1328" fill="#84BE84" rx="3" ry="3" style="stroke:#038048;stroke-width:1;"/><text fill="#000000" font-family="sans-serif" font-size="14" lengthAdjust="spacing" textLength="208.8174" x="628.5" y="1330.4795">void setDuration(int duration)</text></g><!--link Main to LibraryManager--><g id="link_Main_LibraryManager"><path codeLine="1" d="M1093.5,104.23 C1093.5,126.51 1093.5,147.98 1093.5,174.74 " fill="transparent" id="Main-to-LibraryManager" style="stroke:#181818;stroke-width:1;"/><polygon fill="#181818" points="1093.5,180.74,1097.5,171.74,1093.5,175.74,1089.5,171.74,1093.5,180.74" style="stroke:#181818;stroke-width:1;"/><text fill="#000000" font-family="sans-serif" font-size="13" lengthAdjust="spacing" textLength="122.6685" x="1094.5" y="147.0669">instancia y ejecuta</text></g><!--reverse link LibraryManager to Storage--><g id="link_LibraryManager_Storage"><path codeLine="2" d="M963.6195,400.1142 C941.3695,420.0342 927.5,432.93 906.5,453 C901.08,458.18 895.59,463.48 890.09,468.85 " fill="transparent" id="LibraryManager-backto-Storage" style="stroke:#181818;stroke-width:1;"/><polygon fill="transparent" points="972.56,392.11,965.4217,393.132,963.6195,400.1142,970.7578,399.0923,972.56,392.11" style="stroke:#181818;stroke-width:1;"/></g><!--reverse link LibraryManager to User--><g id="link_LibraryManager_User"><path codeLine="3" d="M1229.1469,400.494 C1249.8069,419.804 1261.54,432.25 1279.5,453 C1296.8,472.98 1313.62,495.44 1329.08,517.8 " fill="transparent" id="LibraryManager-backto-User" style="stroke:#181818;stroke-width:1;"/><polygon fill="transparent" points="1220.38,392.3,1222.0321,399.3193,1229.1469,400.494,1227.4948,393.4747,1220.38,392.3" style="stroke:#181818;stroke-width:1;"/></g><!--reverse link LibraryManager to Loan--><g id="link_LibraryManager_Loan"><path codeLine="4" d="M1093.5,404.45 C1093.5,463.1 1093.5,522.68 1093.5,574.98 " fill="transparent" id="LibraryManager-backto-Loan" style="stroke:#181818;stroke-width:1;"/><polygon fill="transparent" points="1093.5,392.45,1089.5,398.45,1093.5,404.45,1097.5,398.45,1093.5,392.45" style="stroke:#181818;stroke-width:1;"/></g><!--link Storage to Loan--><g id="link_Storage_Loan"><path codeLine="5" d="M890.25,648 C901.63,648 901.01,648 912.39,648 " fill="transparent" id="Storage-to-Loan" style="stroke:#181818;stroke-width:1;"/><polygon fill="#181818" points="924.39,648,918.39,644,912.39,648,918.39,652,924.39,648" style="stroke:#181818;stroke-width:1;"/></g><!--reverse link Loan to User--><g id="link_Loan_User"><path codeLine="6" d="M1274.77,648 C1286.26,648 1285.76,648 1297.25,648 " fill="transparent" id="Loan-backto-User" style="stroke:#181818;stroke-width:1;"/><polygon fill="#181818" points="1262.77,648,1268.77,652,1274.77,648,1268.77,644,1262.77,648" style="stroke:#181818;stroke-width:1;"/></g><!--reverse link Storage to Document--><g id="link_Storage_Document"><path codeLine="7" d="M643.0124,854.5041 C635.4124,875.1941 632.02,884.43 624.93,903.71 " fill="transparent" id="Storage-backto-Document" style="stroke:#181818;stroke-width:1;"/><polygon fill="#181818" points="647.15,843.24,641.3265,847.4928,643.0124,854.5041,648.8359,850.2513,647.15,843.24" style="stroke:#181818;stroke-width:1;"/></g><!--reverse link Storage to Service--><g id="link_Storage_Service"><path codeLine="8" d="M873.2256,852.798 C898.2156,885.718 915.61,908.63 936.69,936.41 " fill="transparent" id="Storage-backto-Service" style="stroke:#181818;stroke-width:1;"/><polygon fill="#181818" points="865.97,843.24,866.4118,850.4376,873.2256,852.798,872.7838,845.6005,865.97,843.24" style="stroke:#181818;stroke-width:1;"/></g><!--reverse link Service to Classroom--><g id="link_Service_Classroom"><path codeLine="10" d="M997.5,1116.55 C997.5,1155.45 997.5,1182.88 997.5,1216.29 " fill="transparent" id="Service-backto-Classroom" style="stroke:#181818;stroke-width:1;"/><polygon fill="transparent" points="997.5,1098.55,991.5,1116.55,1003.5,1116.55,997.5,1098.55" style="stroke:#181818;stroke-width:1;"/></g><!--reverse link Service to Material--><g id="link_Service_Material"><path codeLine="11" d="M1108.3474,1108.9085 C1156.2874,1148.0185 1198.64,1182.56 1239.95,1216.25 " fill="transparent" id="Service-backto-Material" style="stroke:#181818;stroke-width:1;"/><polygon fill="transparent" points="1094.4,1097.53,1104.5546,1113.5576,1112.1402,1104.2593,1094.4,1097.53" style="stroke:#181818;stroke-width:1;"/></g><!--reverse link Document to Book--><g id="link_Document_Book"><path codeLine="12" d="M468.1491,1082.1345 C404.7391,1117.1145 337.68,1154.11 269.04,1191.99 " fill="transparent" id="Document-backto-Book" style="stroke:#181818;stroke-width:1;"/><polygon fill="transparent" points="483.91,1073.44,465.2509,1076.8808,471.0473,1087.3881,483.91,1073.44" style="stroke:#181818;stroke-width:1;"/></g><!--reverse link Document to Magazine--><g id="link_Document_Magazine"><path codeLine="13" d="M508.2897,1146.7143 C496.1597,1167.3843 492.92,1172.92 481.74,1191.99 " fill="transparent" id="Document-backto-Magazine" style="stroke:#181818;stroke-width:1;"/><polygon fill="transparent" points="517.4,1131.19,503.115,1143.6775,513.4645,1149.751,517.4,1131.19" style="stroke:#181818;stroke-width:1;"/></g><!--reverse link Document to Audiovisual--><g id="link_Document_Audiovisual"><path codeLine="14" d="M658.1999,1146.7437 C670.2399,1167.4137 673.45,1172.92 684.56,1191.99 " fill="transparent" id="Document-backto-Audiovisual" style="stroke:#181818;stroke-width:1;"/><polygon fill="transparent" points="649.14,1131.19,653.0153,1149.7637,663.3844,1143.7238,649.14,1131.19" style="stroke:#181818;stroke-width:1;"/></g><!--SRC=[hLR9Rjim4BthAuYSb4K_40G6aZW50iH50QU7ekXX9B4EMoq6IHbrq_vxX_iYkItGvk28RxOtC-IG6s03gQeLUM8r1txSm00xoiarEME3a30q3CYHq2-qcIIS5PdQM5LaAqUEYoNHUq7v4luqmb1OEr9njdkHrOL1rG-vi9Xnu1Glq78zDbDF1vc0MyeFhA55OJ_8pGz4xpiGWezZdy8Ra9Gpw0hdoi1tu_WrWpQmW-zie1byExLiF30neO-YKK6yJ_9Q4FohjfApOKTQAXhEzfADWyOlBRwZSXr4vRaH7aRM4f6AvexEYvykgYk13KeOCcIjNVIMlBZ6rWfvuv9P4QjGOy9Eg9Bt0WZvENcKyihxDoa7_sRjv8shlbFmxJ0QbqJd2sshWfVgHrCwpwIET-a-V6QvPaIoZBxZV78JpwdqNu7ud8d9iFJTTZL8D2a7GNLEfXzpeK_fb4ASoIcTGFrq6CitLT2LnXse_jyT7zjCxCkCAkvxGIqkC6f6omNbK5nKzOl5uBQoEhZvJjHmxqCj98T6caRvWU1EGNm8xEcHJ7OqGM2IBoCF1lkfxbW3wdnze605k1ixYiC83i0wgAsBw0mZh-pe8cB5FgUW_gnev1O6F6rqgvdcLXRDpC9aK6FpDmKPe4_hGNjCCQtPSK-3VG_V7YNjHV6F9NYBWNC3ZKN4PaOFYbnkPS2O_hpUcCAit0gBKeocgJuNwVnceXv24OQfVuVZLingW5gpAYWiycB5oeqgW_KqAuN3ut0HnN2Eejusi8U6oMCIuTw2UGIFnvPBnyfTcN-pYVxtGVdJBh63m5szTbxbhHDfwshAJtHFB7HFHDqJy-uvPmiDzA8GDs8RZysKyEUHutKIABSJXwM7mnkjbmUsQE8hPRss_cQl3OV7GIF6sUljzUGWCMyHOH-36fnm3BdhNuqa-pRey8ddOFNSMqMCy9vLcl50k2BnCVShStmJI-MirBDFHRxI3qgYeissc5BotGkmCX2fpuUEgklbURGP1YEJC5e5IRGhyLbjQvLLi4kMnXa-j2LhpDsDIRhDz_4J0RuJISSaSBbb_TIvRePEgMnLJ3Uort1KoLI-8iLYe_nMs1WJdQ7RDWcc5HjEyMREIvsvHLg_0000]--></g></svg>