<svg xmlns="http://www.w3.org/2000/svg" xmlns:xlink="http://www.w3.org/1999/xlink" contentStyleType="text/css" data-diagram-type="STATE" height="373px" preserveAspectRatio="none" style="width:1771px;height:373px;background:#FFFFFF;" version="1.1" viewBox="0 0 1771 373" width="1771px" zoomAndPan="magnify"><defs/><g><path d="M19.5,7 L1745.5885,7 A12.5,12.5 0 0 1 1758.0885,19.5 L1758.0885,33.2969 L7,33.2969 L7,19.5 A12.5,12.5 0 0 1 19.5,7" fill="#F1F1F1" style="stroke:#F1F1F1;stroke-width:1;"/><rect fill="none" height="360.2969" rx="12.5" ry="12.5" style="stroke:#181818;stroke-width:0.5;" width="1751.0885" x="7" y="7"/><line style="stroke:#181818;stroke-width:0.5;" x1="7" x2="1758.0885" y1="33.2969" y2="33.2969"/><text fill="#000000" font-family="sans-serif" font-size="14" lengthAdjust="spacing" textLength="125.4941" x="819.7972" y="24.9951">SistemaBiblioteca</text><ellipse cx="854.38" cy="54.2969" fill="#222222" rx="10" ry="10" style="stroke:#222222;stroke-width:1;"/><g id="SistemaBiblioteca.Inactivo"><rect fill="#F1F1F1" height="50" rx="12.5" ry="12.5" style="stroke:#181818;stroke-width:0.5;" width="75.5078" x="816.63" y="101.2969"/><line style="stroke:#181818;stroke-width:0.5;" x1="816.63" x2="892.1378" y1="127.5938" y2="127.5938"/><text fill="#000000" font-family="sans-serif" font-size="14" lengthAdjust="spacing" textLength="55.5078" x="826.63" y="119.292">Inactivo</text></g><g id="SistemaBiblioteca.Buscando"><rect fill="#F1F1F1" height="50" rx="12.5" ry="12.5" style="stroke:#181818;stroke-width:0.5;" width="88.373" x="223.2" y="204.2969"/><line style="stroke:#181818;stroke-width:0.5;" x1="223.2" x2="311.573" y1="230.5938" y2="230.5938"/><text fill="#000000" font-family="sans-serif" font-size="14" lengthAdjust="spacing" textLength="68.373" x="233.2" y="222.292">Buscando</text></g><g id="SistemaBiblioteca.SolicitandoPrestamo"><rect fill="#F1F1F1" height="50" rx="12.5" ry="12.5" style="stroke:#181818;stroke-width:0.5;" width="163.5889" x="432.59" y="307.2969"/><line style="stroke:#181818;stroke-width:0.5;" x1="432.59" x2="596.1789" y1="333.5938" y2="333.5938"/><text fill="#000000" font-family="sans-serif" font-size="14" lengthAdjust="spacing" textLength="143.5889" x="442.59" y="325.292">SolicitandoPrestamo</text></g><g id="SistemaBiblioteca.Devolviendo"><rect fill="#F1F1F1" height="50" rx="12.5" ry="12.5" style="stroke:#181818;stroke-width:0.5;" width="107.2471" x="510.76" y="204.2969"/><line style="stroke:#181818;stroke-width:0.5;" x1="510.76" x2="618.0071" y1="230.5938" y2="230.5938"/><text fill="#000000" font-family="sans-serif" font-size="14" lengthAdjust="spacing" textLength="87.2471" x="520.76" y="222.292">Devolviendo</text></g><g id="SistemaBiblioteca.AgregandoElemento"><rect fill="#F1F1F1" height="50" rx="12.5" ry="12.5" style="stroke:#181818;stroke-width:0.5;" width="163.1514" x="883.81" y="204.2969"/><line style="stroke:#181818;stroke-width:0.5;" x1="883.81" x2="1046.9614" y1="230.5938" y2="230.5938"/><text fill="#000000" font-family="sans-serif" font-size="14" lengthAdjust="spacing" textLength="143.1514" x="893.81" y="222.292">AgregandoElemento</text></g><g id="SistemaBiblioteca.EliminandoElemento"><rect fill="#F1F1F1" height="50" rx="12.5" ry="12.5" style="stroke:#181818;stroke-width:0.5;" width="164.457" x="1304.15" y="204.2969"/><line style="stroke:#181818;stroke-width:0.5;" x1="1304.15" x2="1468.607" y1="230.5938" y2="230.5938"/><text fill="#000000" font-family="sans-serif" font-size="14" lengthAdjust="spacing" textLength="144.457" x="1314.15" y="222.292">EliminandoElemento</text></g><!--link *start*SistemaBiblioteca to Inactivo--><g class="link" data-entity-1="*start*SistemaBiblioteca" data-entity-2="Inactivo" data-source-line="2" data-uid="lnk4" id="link_*start*SistemaBiblioteca_Inactivo"><path d="M854.38,64.7369 C854.38,73.9969 854.38,82.4869 854.38,94.9769" fill="none" id="*start*SistemaBiblioteca-to-Inactivo" style="stroke:#181818;stroke-width:1;"/><polygon fill="#181818" points="854.38,100.9769,858.38,91.9769,854.38,95.9769,850.38,91.9769,854.38,100.9769" style="stroke:#181818;stroke-width:1;"/></g><!--link Inactivo to Buscando--><g class="link" data-entity-1="Inactivo" data-entity-2="Buscando" data-source-line="4" data-uid="lnk6" id="link_Inactivo_Buscando"><path d="M816.16,127.8869 C661.81,130.4469 91.49,141.7669 65.38,169.2969 C18,219.2669 143.9105,227.5595 216.7705,228.4995" fill="none" id="Inactivo-to-Buscando" style="stroke:#181818;stroke-width:1;"/><polygon fill="#181818" points="222.77,228.5769,213.8224,224.4611,217.7704,228.5124,213.7191,232.4604,222.77,228.5769" style="stroke:#181818;stroke-width:1;"/><text fill="#000000" font-family="sans-serif" font-size="13" lengthAdjust="spacing" textLength="178.2168" x="66.38" y="182.3638">Usuario busca un elemento</text></g><!--link Buscando to Inactivo--><g class="link" data-entity-1="Buscando" data-entity-2="Inactivo" data-source-line="5" data-uid="lnk7" id="link_Buscando_Inactivo"><path d="M266.81,203.8669 C267.91,191.6369 271.53,177.6969 281.38,169.2969 C322.01,134.6969 689.1202,128.6498 810.4502,127.5798" fill="none" id="Buscando-to-Inactivo" style="stroke:#181818;stroke-width:1;"/><polygon fill="#181818" points="816.45,127.5269,807.4151,123.6064,811.4502,127.571,807.4856,131.6061,816.45,127.5269" style="stroke:#181818;stroke-width:1;"/><text fill="#000000" font-family="sans-serif" font-size="13" lengthAdjust="spacing" textLength="160.4243" x="282.38" y="182.3638">Elemento no encontrado</text></g><!--link Buscando to SolicitandoPrestamo--><g class="link" data-entity-1="Buscando" data-entity-2="SolicitandoPrestamo" data-source-line="6" data-uid="lnk9" id="link_Buscando_SolicitandoPrestamo"><path d="M261.15,254.6569 C259.66,266.4169 260.38,279.9669 268.38,289.2969 C289.41,313.7869 363.3036,323.5928 426.4136,327.8528" fill="none" id="Buscando-to-SolicitandoPrestamo" style="stroke:#181818;stroke-width:1;"/><polygon fill="#181818" points="432.4,328.2569,423.6898,323.6598,427.4114,327.9201,423.151,331.6417,432.4,328.2569" style="stroke:#181818;stroke-width:1;"/><text fill="#000000" font-family="sans-serif" font-size="13" lengthAdjust="spacing" textLength="222.6123" x="269.38" y="285.3638">Elemento encontrado y disponible</text></g><!--link SolicitandoPrestamo to Inactivo--><g class="link" data-entity-1="SolicitandoPrestamo" data-entity-2="Inactivo" data-source-line="8" data-uid="lnk10" id="link_SolicitandoPrestamo_Inactivo"><path d="M596.53,328.2169 C797.82,320.1069 1311.33,295.8869 1477.38,254.2969 C1550.75,235.9169 1591.94,249.5669 1633.38,186.2969 C1637.52,179.9769 1638.58,174.7769 1633.38,169.2969 C1607.63,142.1269 1051.1591,130.6609 898.3791,128.0109" fill="none" id="SolicitandoPrestamo-to-Inactivo" style="stroke:#181818;stroke-width:1;"/><polygon fill="#181818" points="892.38,127.9069,901.3093,132.0624,897.3792,127.9936,901.448,124.0636,892.38,127.9069" style="stroke:#181818;stroke-width:1;"/><text fill="#000000" font-family="sans-serif" font-size="13" lengthAdjust="spacing" textLength="127.7085" x="1620.38" y="233.8638">Pr&#233;stamo aprobado</text></g><!--link SolicitandoPrestamo to Buscando--><g class="link" data-entity-1="SolicitandoPrestamo" data-entity-2="Buscando" data-source-line="9" data-uid="lnk11" id="link_SolicitandoPrestamo_Buscando"><path d="M511.07,307.0769 C508.15,294.9069 502.67,280.9469 492.38,272.2969 C465.62,249.7869 375.2881,238.8887 317.7081,233.9587" fill="none" id="SolicitandoPrestamo-to-Buscando" style="stroke:#181818;stroke-width:1;"/><polygon fill="#181818" points="311.73,233.4469,320.356,238.2001,316.7118,233.8734,321.0384,230.2292,311.73,233.4469" style="stroke:#181818;stroke-width:1;"/><text fill="#000000" font-family="sans-serif" font-size="13" lengthAdjust="spacing" textLength="188.0874" x="506.38" y="285.3638">Usuario busca otro elemento</text></g><!--link Inactivo to Devolviendo--><g class="link" data-entity-1="Inactivo" data-entity-2="Devolviendo" data-source-line="11" data-uid="lnk13" id="link_Inactivo_Devolviendo"><path d="M816.19,128.4469 C720.68,131.7169 477.42,142.6069 453.38,169.2969 C431.69,193.3769 466.6868,207.9718 504.7968,217.1518" fill="none" id="Inactivo-to-Devolviendo" style="stroke:#181818;stroke-width:1;"/><polygon fill="#181818" points="510.63,218.5569,502.817,212.5605,505.769,217.386,500.9435,220.338,510.63,218.5569" style="stroke:#181818;stroke-width:1;"/><text fill="#000000" font-family="sans-serif" font-size="13" lengthAdjust="spacing" textLength="199.3228" x="454.38" y="182.3638">Usuario devuelve un elemento</text></g><!--link Devolviendo to Inactivo--><g class="link" data-entity-1="Devolviendo" data-entity-2="Inactivo" data-source-line="12" data-uid="lnk14" id="link_Devolviendo_Inactivo"><path d="M616.75,203.9069 C629.1,198.1469 642.21,192.0169 654.38,186.2969 C670.4,178.7769 673.74,175.2969 690.38,169.2969 C732.55,154.0969 776.8136,143.366 810.4536,136.146" fill="none" id="Devolviendo-to-Inactivo" style="stroke:#181818;stroke-width:1;"/><polygon fill="#181818" points="816.32,134.8869,806.681,132.8646,811.4313,135.9361,808.3598,140.6864,816.32,134.8869" style="stroke:#181818;stroke-width:1;"/><text fill="#000000" font-family="sans-serif" font-size="13" lengthAdjust="spacing" textLength="153.499" x="691.38" y="182.3638">Devoluci&#243;n completada</text></g><!--link Inactivo to AgregandoElemento--><g class="link" data-entity-1="Inactivo" data-entity-2="AgregandoElemento" data-source-line="14" data-uid="lnk16" id="link_Inactivo_AgregandoElemento"><path d="M848.89,151.6169 C847.69,163.0869 848.44,176.3969 855.38,186.2969 C862.48,196.4269 867.0748,201.2854 878.0348,207.1254" fill="none" id="Inactivo-to-AgregandoElemento" style="stroke:#181818;stroke-width:1;"/><polygon fill="#181818" points="883.33,209.9469,877.2682,202.1845,878.9173,207.5956,873.5062,209.2447,883.33,209.9469" style="stroke:#181818;stroke-width:1;"/><text fill="#000000" font-family="sans-serif" font-size="13" lengthAdjust="spacing" textLength="228.2173" x="856.38" y="182.3638">Administrador agrega un elemento</text></g><!--link AgregandoElemento to Inactivo--><g class="link" data-entity-1="AgregandoElemento" data-entity-2="Inactivo" data-source-line="15" data-uid="lnk17" id="link_AgregandoElemento_Inactivo"><path d="M1047.31,213.7969 C1078.61,204.6269 1103.01,190.4169 1085.38,169.2969 C1061.22,140.3469 957.3433,131.5899 898.2533,128.7999" fill="none" id="AgregandoElemento-to-Inactivo" style="stroke:#181818;stroke-width:1;"/><polygon fill="#181818" points="892.26,128.5169,901.0613,132.9369,897.2544,128.7527,901.4386,124.9458,892.26,128.5169" style="stroke:#181818;stroke-width:1;"/><text fill="#000000" font-family="sans-serif" font-size="13" lengthAdjust="spacing" textLength="127.8926" x="1092.38" y="182.3638">Elemento agregado</text></g><!--link Inactivo to EliminandoElemento--><g class="link" data-entity-1="Inactivo" data-entity-2="EliminandoElemento" data-source-line="17" data-uid="lnk19" id="link_Inactivo_EliminandoElemento"><path d="M892.46,127.5469 C960.42,128.8669 1106.55,135.7869 1224.38,169.2969 C1241.4,174.1369 1243.96,179.7069 1260.38,186.2969 C1275.68,192.4369 1286.5912,196.48 1302.5412,201.92" fill="none" id="Inactivo-to-EliminandoElemento" style="stroke:#181818;stroke-width:1;"/><polygon fill="#181818" points="1308.22,203.8569,1300.993,197.1658,1303.4877,202.2428,1298.4106,204.7375,1308.22,203.8569" style="stroke:#181818;stroke-width:1;"/><text fill="#000000" font-family="sans-serif" font-size="13" lengthAdjust="spacing" textLength="230.1406" x="1261.38" y="182.3638">Administrador elimina un elemento</text></g><!--link EliminandoElemento to Inactivo--><g class="link" data-entity-1="EliminandoElemento" data-entity-2="Inactivo" data-source-line="18" data-uid="lnk20" id="link_EliminandoElemento_Inactivo"><path d="M1468.96,207.9169 C1492.24,198.3869 1507.57,185.5169 1492.38,169.2969 C1451.32,125.4369 1029.3998,125.6751 898.3298,126.8051" fill="none" id="EliminandoElemento-to-Inactivo" style="stroke:#181818;stroke-width:1;"/><polygon fill="#181818" points="892.33,126.8569,901.3641,130.7791,897.3298,126.8138,901.2952,122.7794,892.33,126.8569" style="stroke:#181818;stroke-width:1;"/><text fill="#000000" font-family="sans-serif" font-size="13" lengthAdjust="spacing" textLength="129.8159" x="1499.38" y="182.3638">Elemento eliminado</text></g><!--SRC=[VP4xRiCm38Rtd89pWLmWGu44oT0jWD6fo41BH4105Ws95b0KFL3d724NgsodUSXnDudyF_vyL8fAK75KQd33jMDHCWXV2u2FbmCibw_mvj4e9rdasDzxI6owQD1RWHMynmu32zHz23eFvAWXhvAPg-o-M6Ps5mbu0V96l0Qq4w0InuQr_-y3HSNcWRs1y0cMOoi-Jq5zhy_8eeLzEF-C2Mo3rAFz73SxhcYGsy3bbhQKn2McHz9IwiWbAdPrBovw7LATuVF9Wv6cTQHeSMAtFWOwzcrULxI2jMtOvnltQmg0Ww8mdc9prnfnEnrqvpZR_6jDewJmVWBEcLyAPFVlNm00]--></g></svg>