<?xml version="1.0" encoding="us-ascii" standalone="no"?><svg xmlns="http://www.w3.org/2000/svg" xmlns:xlink="http://www.w3.org/1999/xlink" contentStyleType="text/css" height="416px" preserveAspectRatio="none" style="width:741px;height:416px;background:#FFFFFF;" version="1.1" viewBox="0 0 741 416" width="741px" zoomAndPan="magnify"><defs/><g><rect fill="#DDDDDD" height="404.902" style="stroke:#181818;stroke-width:0.5;" width="157" x="276" y="6"/><text fill="#000000" font-family="sans-serif" font-size="13" font-weight="bold" lengthAdjust="spacing" textLength="130" x="289.5" y="19.897">repo SDD@mmasias</text><rect fill="#DDDDDD" height="404.902" style="stroke:#181818;stroke-width:0.5;" width="199" x="536.5" y="6"/><text fill="#000000" font-family="sans-serif" font-size="13" font-weight="bold" lengthAdjust="spacing" textLength="193" x="539.5" y="19.897">repo SDD@CoordinadorGrupo</text><rect fill="#FFFFFF" height="293.0602" style="stroke:#181818;stroke-width:1.0;" width="10" x="299" y="71.7739"/><rect fill="#FFFFFF" height="164.5301" style="stroke:#181818;stroke-width:1.0;" width="10" x="378.5" y="200.304"/><rect fill="#FFFFFF" height="293.0602" style="stroke:#181818;stroke-width:1.0;" width="10" x="631" y="71.7739"/><line style="stroke:#181818;stroke-width:0.5;stroke-dasharray:5.0,5.0;" x1="304" x2="304" y1="61.7739" y2="373.8341"/><line style="stroke:#181818;stroke-width:0.5;stroke-dasharray:5.0,5.0;" x1="383" x2="383" y1="61.7739" y2="373.8341"/><line style="stroke:#181818;stroke-width:0.5;stroke-dasharray:5.0,5.0;" x1="636" x2="636" y1="61.7739" y2="373.8341"/><rect fill="#E2E2F0" height="33.0679" rx="2.5" ry="2.5" style="stroke:#181818;stroke-width:0.5;" width="48" x="280" y="27.706"/><text fill="#000000" font-family="sans-serif" font-size="14" lengthAdjust="spacing" textLength="34" x="287" y="49.672">main</text><rect fill="#E2E2F0" height="33.0679" rx="2.5" ry="2.5" style="stroke:#181818;stroke-width:0.5;" width="48" x="280" y="372.8341"/><text fill="#000000" font-family="sans-serif" font-size="14" lengthAdjust="spacing" textLength="34" x="287" y="394.8">main</text><rect fill="#E2E2F0" height="33.0679" rx="2.5" ry="2.5" style="stroke:#181818;stroke-width:0.5;" width="91" x="338" y="27.706"/><text fill="#000000" font-family="sans-serif" font-size="14" lengthAdjust="spacing" textLength="77" x="345" y="49.672">ramaGrupo</text><rect fill="#E2E2F0" height="33.0679" rx="2.5" ry="2.5" style="stroke:#181818;stroke-width:0.5;" width="91" x="338" y="372.8341"/><text fill="#000000" font-family="sans-serif" font-size="14" lengthAdjust="spacing" textLength="77" x="345" y="394.8">ramaGrupo</text><rect fill="#E2E2F0" height="33.0679" rx="2.5" ry="2.5" style="stroke:#181818;stroke-width:0.5;" width="96" x="588" y="27.706"/><text fill="#000000" font-family="sans-serif" font-size="14" lengthAdjust="spacing" textLength="82" x="595" y="49.672">participante</text><rect fill="#E2E2F0" height="33.0679" rx="2.5" ry="2.5" style="stroke:#181818;stroke-width:0.5;" width="96" x="588" y="372.8341"/><text fill="#000000" font-family="sans-serif" font-size="14" lengthAdjust="spacing" textLength="82" x="595" y="394.8">participante</text><rect fill="#FFFFFF" height="293.0602" style="stroke:#181818;stroke-width:1.0;" width="10" x="299" y="71.7739"/><rect fill="#FFFFFF" height="164.5301" style="stroke:#181818;stroke-width:1.0;" width="10" x="378.5" y="200.304"/><rect fill="#FFFFFF" height="293.0602" style="stroke:#181818;stroke-width:1.0;" width="10" x="631" y="71.7739"/><path d="M79,76.7739 L79,139.7739 L294,139.7739 L294,86.7739 L284,76.7739 L79,76.7739 " fill="#FEFFDD" style="stroke:#181818;stroke-width:0.5;"/><path d="M284,76.7739 L284,86.7739 L294,86.7739 L284,76.7739 " fill="#FEFFDD" style="stroke:#181818;stroke-width:0.5;"/><text fill="#000000" font-family="sans-serif" font-size="13" lengthAdjust="spacing" textLength="139" x="85" y="95.6709">Cada grupo tendr&#225; una</text><text fill="#000000" font-family="sans-serif" font-size="13" lengthAdjust="spacing" textLength="153" x="85" y="113.377">rama asignada dentro del</text><text fill="#000000" font-family="sans-serif" font-size="13" lengthAdjust="spacing" textLength="194" x="85" y="131.083">repositorio principal de entregas</text><polygon fill="#181818" points="619,164.598,629,168.598,619,172.598,623,168.598" style="stroke:#181818;stroke-width:1.0;"/><line style="stroke:#181818;stroke-width:1.0;stroke-dasharray:2.0,2.0;" x1="383.5" x2="625" y1="168.598" y2="168.598"/><text fill="#000000" font-family="sans-serif" font-size="13" lengthAdjust="spacing" textLength="24" x="390.5" y="162.789">fork</text><polygon fill="#181818" points="399.5,196.304,389.5,200.304,399.5,204.304,395.5,200.304" style="stroke:#181818;stroke-width:1.0;"/><line style="stroke:#181818;stroke-width:1.0;stroke-dasharray:2.0,2.0;" x1="393.5" x2="630" y1="200.304" y2="200.304"/><text fill="#000000" font-family="sans-serif" font-size="13" lengthAdjust="spacing" textLength="176" x="405.5" y="194.495">aportes / avances / revisiones</text><line style="stroke:#181818;stroke-width:1.0;" x1="388.5" x2="430.5" y1="232.01" y2="232.01"/><line style="stroke:#181818;stroke-width:1.0;" x1="430.5" x2="430.5" y1="232.01" y2="245.01"/><line style="stroke:#181818;stroke-width:1.0;" x1="389.5" x2="430.5" y1="245.01" y2="245.01"/><polygon fill="#181818" points="399.5,241.01,389.5,245.01,399.5,249.01,395.5,245.01" style="stroke:#181818;stroke-width:1.0;"/><text fill="#000000" font-family="sans-serif" font-size="13" lengthAdjust="spacing" textLength="177" x="395.5" y="226.201">propuesta de revisi&#243;n / ajuste</text><path d="M195,258.01 L195,303.01 L491,303.01 L491,268.01 L481,258.01 L195,258.01 " fill="#FEFFDD" style="stroke:#181818;stroke-width:0.5;"/><path d="M481,258.01 L481,268.01 L491,268.01 L481,258.01 " fill="#FEFFDD" style="stroke:#181818;stroke-width:0.5;"/><text fill="#000000" font-family="sans-serif" font-size="13" lengthAdjust="spacing" textLength="191" x="201" y="276.907">Durante el cuatrimestre, la rama</text><text fill="#000000" font-family="sans-serif" font-size="13" lengthAdjust="spacing" textLength="272" x="204" y="294.6131">del grupo se va actualizando con sus avances.</text><path d="M5,313.4221 L5,358.4221 L294,358.4221 L294,323.4221 L284,313.4221 L5,313.4221 " fill="#FEFFDD" style="stroke:#181818;stroke-width:0.5;"/><path d="M284,313.4221 L284,323.4221 L294,323.4221 L284,313.4221 " fill="#FEFFDD" style="stroke:#181818;stroke-width:0.5;"/><text fill="#000000" font-family="sans-serif" font-size="13" lengthAdjust="spacing" textLength="186" x="11" y="332.3191">Al final del cuatrimestre, el repo</text><text fill="#000000" font-family="sans-serif" font-size="13" lengthAdjust="spacing" textLength="268" x="11" y="350.0251">contiene las ramas de todos los participantes</text><!--SRC=[PL91KiCm3Bpx5PfUk1Iuzy3GeGmFuCf5ITGYS2oFx6GOViCRU48_XkoMD85SOalohdQbHZvWfHG5ddUx-xx7n9XMuC2-Y9gvvOWXmwf73Yl01ELGqzXc7Z7J9HB4RfxskOOsy80Tma47GyyKEZr-mH0GNe9YZuR5Xr0gEWfPnNxUCjPAuYpA0b4v57flAIWrTC3qlxC2zbH8QdlJpHaZDFBXNBFG-22Y7HknwFbLXRmwTQzyUCqW-pa5RU3HBmBGAc7Lqg96ohWsKHSTuAT4kMN51j-abBGIW3piHNlCOfHzexIDv3rtyb_QdBEgcmUMGrXa9kbkiWEkh-_-YB8ktjr2LgcPNcm0esYc1BU08uQsdfH6JYo1afkuBvxFw1P8KIKEb4v-d22Etw40lmt96dRLV1b9w-givsztWzRcpBTsmApS6v3IkhXS5wbQxy-BbWX6BBOCwFaJGoVLz3IaNn4tPxRPecvj9BOIlk8iIInGLkSb64fc2cMuforBTRRIIG8loz4azmC0]--></g></svg>